M48
;DRILL file {KiCad 4.0.7} date 05/14/20 06:51:51
;FORMAT={-:-/ absolute / inch / decimal}
FMAT,2
INCH,TZ
T1C0.016
T2C0.024
T3C0.028
T4C0.031
T5C0.032
T6C0.035
T7C0.039
T8C0.039
T9C0.047
T10C0.091
T11C0.126
%
G90
G05
M72
T1
X4.6567Y-2.4764
X4.7933Y-2.5311
X4.8091Y-3.7638
X4.8091Y-3.9882
X4.8091Y-4.1358
X4.8155Y-2.9272
X4.8583Y-4.7913
X4.9173Y-4.3819
X4.9654Y-2.6587
X4.9755Y-2.9672
X4.9795Y-2.787
X5.0055Y-3.1272
X5.0098Y-4.6398
X5.0185Y-2.4303
X5.0374Y-3.9035
X5.0413Y-4.9291
X5.0551Y-3.5472
X5.1122Y-3.6701
X5.1181Y-4.7783
X5.1323Y-2.7874
X5.1323Y-4.5177
X5.1555Y-1.8372
X5.1594Y-3.9843
X5.1955Y-3.0672
X5.2217Y-2.576
X5.2272Y-4.6693
X5.2394Y-2.324
X5.2441Y-4.9469
X5.2803Y-2.4362
X5.2855Y-3.5202
X5.3055Y-2.1672
X5.3155Y-1.8372
X5.3155Y-1.9572
X5.3228Y-3.9469
X5.4055Y-1.8072
X5.4138Y-2.5898
X5.4155Y-1.9572
X5.4155Y-2.9672
X5.4508Y-4.9469
X5.462Y-3.2062
X5.463Y-2.0657
X5.5059Y-3.7953
X5.5059Y-3.9488
X5.508Y-3.5207
X5.5118Y-4.4055
X5.5155Y-1.8072
X5.5455Y-2.7872
X5.552Y-1.9577
X5.5815Y-3.3107
X5.599Y-3.5202
X5.6053Y-4.3022
X5.6053Y-4.4055
X5.6083Y-3.626
X5.612Y-1.8072
X5.628Y-4.6112
X5.6585Y-3.878
X5.6604Y-3.8041
X5.668Y-2.0737
X5.679Y-3.4617
X5.6929Y-2.8031
X5.6955Y-2.4572
X5.7083Y-5.1083
X5.7126Y-4.4498
X5.7795Y-2.5669
X5.781Y-1.7762
X5.797Y-2.2027
X5.8355Y-2.7272
X5.8406Y-3.063
X5.8406Y-3.1988
X5.8728Y-4.8543
X5.876Y-5.0394
X5.9295Y-2.5681
X5.9409Y-2.8701
X5.9567Y-4.5886
X5.9567Y-4.7205
X5.9567Y-4.8602
X5.9734Y-4.4902
X5.9961Y-2.7087
X6.0059Y-5.2031
X6.0555Y-3.4372
X6.0591Y-2.5276
X6.0756Y-2.9441
X6.0787Y-2.4567
X6.1102Y-4.7018
X6.1255Y-3.2872
X6.1388Y-4.8996
X6.1545Y-4.3091
X6.1654Y-4.5285
X6.2047Y-2.6024
X6.2175Y-4.7028
X6.2315Y-3.5332
X6.2697Y-3.6791
X6.2717Y-2.3406
X6.2854Y-4.7923
X6.3055Y-3.3772
X6.3555Y-2.7772
X6.3937Y-3.0236
X6.3937Y-3.1732
X6.4055Y-2.2165
X6.4114Y-2.3957
X6.4255Y-3.5072
X6.4272Y-3.6791
X6.4455Y-2.6872
X6.4488Y-3.0787
X6.4705Y-3.2339
X6.4724Y-3.1535
X6.4955Y-2.8372
X6.498Y-2.3091
X6.502Y-4.5531
X6.5453Y-3.2264
X6.5508Y-3.126
X6.5543Y-2.9717
X6.5752Y-3.3063
X6.5787Y-3.7126
X6.5855Y-2.5372
X6.5937Y-4.9339
X6.6008Y-3.6079
X6.6065Y-3.5262
X6.6335Y-3.2484
X6.6476Y-2.1594
X6.677Y-3.8122
X6.6858Y-3.2886
X6.6858Y-3.5122
X6.6955Y-2.4572
X6.6955Y-2.7172
X6.7122Y-3.0618
X6.7355Y-2.8272
X6.7366Y-2.9902
X6.7555Y-2.6972
X6.7585Y-3.7392
X6.811Y-4.8563
X6.8255Y-2.8372
X6.828Y-3.6079
X6.8555Y-2.4572
X6.8755Y-2.5772
X6.887Y-3.5087
X6.9065Y-3.6757
X6.9449Y-4.9902
X6.9925Y-3.7532
X6.9955Y-2.5272
X7.0945Y-3.6512
X7.1455Y-2.4272
X7.1555Y-2.3172
X7.1655Y-2.1572
X7.1655Y-2.5272
X7.1705Y-2.9839
X7.1961Y-3.9736
X7.1961Y-4.2378
X7.203Y-3.4927
X7.2421Y-4.4606
X7.2431Y-4.7894
X7.2655Y-3.0472
X7.2657Y-3.8406
X7.2657Y-4.1181
X7.2657Y-4.2697
X7.3055Y-2.5272
X7.3255Y-1.9072
X7.3255Y-2.0472
X7.3258Y-3.2451
X7.3355Y-2.7972
X7.3555Y-2.2172
X7.4006Y-3.0886
X7.4232Y-3.752
X7.424Y-3.6172
X7.4291Y-4.1378
X7.4455Y-2.3072
X7.4555Y-2.4572
X7.4655Y-2.0172
X7.4655Y-2.1272
X7.503Y-3.2451
X7.5059Y-4.2677
X7.5275Y-3.4867
X7.5275Y-3.6172
X7.5311Y-3.0457
X7.532Y-3.3607
X7.5591Y-2.8356
X7.5655Y-2.2072
X7.5655Y-2.3072
X7.5819Y-3.078
X7.5984Y-3.7953
X7.5984Y-3.9646
X7.6155Y-2.0272
X7.6155Y-2.1172
X7.6228Y-2.8827
X7.6255Y-3.1542
X7.6406Y-2.924
X7.6555Y-2.4572
X7.674Y-3.6172
X7.6745Y-3.3607
X7.6745Y-3.4867
X7.689Y-4.8681
X7.742Y-2.8992
X7.7555Y-2.2072
X7.7555Y-2.3072
X7.7755Y-2.0272
X7.7755Y-2.1172
X7.7953Y-4.1378
X7.8025Y-3.1537
X7.8169Y-3.3602
X7.8189Y-3.4862
X7.8189Y-3.6161
X7.8355Y-2.4572
X7.859Y-2.7032
X7.8602Y-3.8307
X7.9646Y-3.3602
X7.9665Y-3.4843
X7.9783Y-3.9823
X7.9783Y-4.2382
X7.9783Y-4.3504
X7.9787Y-3.7913
X7.9882Y-2.6051
X7.9985Y-3.1537
X8.0585Y-2.9377
X8.1152Y-2.1506
X8.1152Y-2.2904
X8.1161Y-4.3504
X8.1457Y-3.2323
X8.1516Y-3.4272
X8.1516Y-3.5728
X8.1929Y-3.9331
X8.2055Y-2.5372
X8.2303Y-2.0689
X8.2303Y-2.2264
X8.2303Y-2.378
X8.2421Y-4.2382
X8.2421Y-4.3504
X8.372Y-2.0689
X8.372Y-2.2264
X8.372Y-2.378
X8.372Y-2.5354
X8.372Y-2.6752
T2
X7.7461Y-3.7756
X7.7461Y-3.8543
X7.8504Y-3.0157
X7.9291Y-3.0157
X8.085Y-3.3827
X8.085Y-3.4614
T3
X4.8559Y-2.4827
X4.8563Y-2.3921
X4.8783Y-3.2075
X4.9055Y-2.6917
X4.9055Y-2.9917
X5.0905Y-2.9953
X5.1559Y-2.4827
X5.1563Y-2.3921
X5.5118Y-3.4205
X5.5118Y-3.7205
X5.5118Y-4.2079
X5.5118Y-4.5079
X5.5744Y-2.1921
X5.6024Y-3.4193
X5.6024Y-3.7193
X5.6055Y-4.2067
X5.6055Y-4.5067
X5.6693Y-2.2256
X5.7795Y-4.189
X5.7865Y-1.98
X5.8681Y-4.4193
X5.8814Y-2.0135
X6.0374Y-2.2996
X6.0795Y-4.189
X6.0855Y-2.0572
X6.1681Y-4.4193
X6.3374Y-2.2996
X6.3855Y-2.0572
X6.3863Y-2.4887
X6.5031Y-2.9252
X6.5984Y-2.7008
X6.8031Y-2.9252
X6.9155Y-2.2572
X6.9155Y-2.3772
X7.2155Y-2.2572
X7.2155Y-2.3772
T4
X5.0886Y-2.6969
X5.2807Y-2.6969
X6.1657Y-4.635
X6.1657Y-4.8272
X6.2555Y-5.0972
X6.2555Y-5.1957
X6.4961Y-4.7433
X6.5945Y-4.7433
X6.6224Y-3.9224
X6.6224Y-4.0012
X6.828Y-2.7567
X6.8355Y-2.0572
X6.9398Y-3.1114
X6.9398Y-3.2098
X6.9469Y-4.8228
X7.0164Y-4.7532
X7.0201Y-2.7567
X7.2016Y-3.6673
X7.2355Y-2.0572
X7.2803Y-3.6673
X7.3652Y-3.9793
X7.3652Y-4.0778
X7.4409Y-4.939
X7.5105Y-4.8694
X7.5693Y-2.685
X7.648Y-2.685
T5
X7.8957Y-2.1559
X7.8957Y-2.2559
X7.9744Y-2.1559
X7.9744Y-2.2559
T6
X4.6283Y-3.3697
X4.6287Y-3.1094
X4.6291Y-2.5886
X4.6291Y-2.8488
X4.7283Y-3.3697
X4.7287Y-3.1094
X4.7291Y-2.5886
X4.7291Y-2.8488
T7
X4.622Y-1.9717
X4.622Y-2.0717
X4.622Y-2.1717
X4.622Y-2.2717
X4.622Y-2.3717
X4.722Y-1.9717
X4.722Y-2.0717
X4.722Y-2.1717
X4.722Y-2.2717
X4.722Y-2.3717
X4.9606Y-1.6929
X4.9606Y-5.1969
X5.0606Y-1.6929
X5.0606Y-5.1969
X5.1606Y-1.6929
X5.1606Y-5.1969
X5.2606Y-1.6929
X5.2606Y-5.1969
X5.3606Y-1.6929
X5.3606Y-5.1969
X5.4606Y-1.6929
X5.4606Y-5.1969
X5.5606Y-1.6929
X5.5606Y-5.1969
X5.578Y-4.7587
X5.6606Y-1.6929
X5.6606Y-5.1969
X5.7606Y-1.6929
X5.7606Y-5.1969
X5.7748Y-4.7587
X5.8185Y-3.8494
X5.8606Y-1.6929
X5.8606Y-5.1969
X6.0154Y-3.8494
X6.6142Y-5.1969
X6.7142Y-5.1969
X6.8142Y-5.1969
X6.9142Y-5.1969
X7.0142Y-5.1969
X7.1142Y-5.1969
X7.2047Y-1.6929
X7.2142Y-5.1969
X7.3047Y-1.6929
X7.3142Y-5.1969
X7.4047Y-1.6929
X7.4142Y-5.1969
X7.5047Y-1.6929
X7.5142Y-5.1969
X7.6047Y-1.6929
X7.7047Y-1.6929
X7.7953Y-5.1969
X7.8047Y-1.6929
X7.8953Y-5.1969
X7.9047Y-1.6929
X7.9953Y-5.1969
X8.0047Y-1.6929
X8.0953Y-5.1969
X8.1047Y-1.6929
X8.3114Y-3.2835
X8.3114Y-3.3835
X8.3114Y-3.4835
X8.3114Y-3.5835
T8
X4.8393Y-4.2786
X4.8393Y-4.4986
X4.8982Y-3.6291
X4.8982Y-3.8491
X5.8686Y-4.3172
X6.2686Y-4.3172
X7.0472Y-3.5449
X7.0472Y-3.9449
T10
X8.0807Y-1.9697
X8.0807Y-2.4421
T11
X4.685Y-1.7323
X4.685Y-5.1575
X8.3071Y-1.7323
X8.3071Y-5.1575
T6
X8.1161Y-3.7362G85X8.1437Y-3.7362
G05
X8.1161Y-3.8346G85X8.1437Y-3.8346
G05
X8.1161Y-4.0315G85X8.1437Y-4.0315
G05
X8.1161Y-4.1299G85X8.1437Y-4.1299
G05
X8.1165Y-2.7433G85X8.1441Y-2.7433
G05
X8.1165Y-2.8417G85X8.1441Y-2.8417
G05
X8.1165Y-3.0386G85X8.1441Y-3.0386
G05
X8.1165Y-3.137G85X8.1441Y-3.137
G05
X8.3268Y-3.9469G85X8.3268Y-3.9193
G05
X8.3272Y-2.9539G85X8.3272Y-2.9264
G05
T7
X7.9567Y-4.6732G85X7.9567Y-4.5945
G05
X8.1142Y-4.8189G85X8.0354Y-4.8189
G05
X8.1929Y-4.6732G85X8.1929Y-4.5945
G05
T9
X8.1299Y-3.9331G85X8.1299Y-3.9331
G05
X8.1303Y-2.9402G85X8.1303Y-2.9402
G05
X8.3268Y-3.7362G85X8.3268Y-3.7362
G05
X8.3268Y-4.1299G85X8.3268Y-4.1299
G05
X8.3272Y-2.7433G85X8.3272Y-2.7433
G05
X8.3272Y-3.137G85X8.3272Y-3.137
G05
X8.4252Y-3.7362G85X8.4252Y-3.7362
G05
X8.4252Y-4.1299G85X8.4252Y-4.1299
G05
X8.4256Y-2.7433G85X8.4256Y-2.7433
G05
X8.4256Y-3.137G85X8.4256Y-3.137
G05
T0
M30
