G04 #@! TF.FileFunction,Soldermask,Bot*
%FSLAX46Y46*%
G04 Gerber Fmt 4.6, Leading zero omitted, Abs format (unit mm)*
G04 Created by KiCad (PCBNEW 4.0.7) date 05/14/20 06:06:45*
%MOMM*%
%LPD*%
G01*
G04 APERTURE LIST*
%ADD10C,0.100000*%
%ADD11C,1.998980*%
%ADD12C,1.400000*%
%ADD13C,1.400000*%
%ADD14C,1.500000*%
%ADD15R,1.200000X1.200000*%
%ADD16C,1.200000*%
%ADD17O,1.600000X2.500000*%
%ADD18O,1.200000X1.200000*%
%ADD19O,2.500000X1.600000*%
%ADD20C,5.600000*%
%ADD21R,3.500000X3.500000*%
%ADD22R,1.600000X1.600000*%
%ADD23C,1.600000*%
%ADD24R,1.700000X1.700000*%
%ADD25O,1.700000X1.700000*%
%ADD26C,1.520000*%
%ADD27C,2.700000*%
%ADD28O,1.400000X1.400000*%
%ADD29R,2.000000X2.000000*%
%ADD30C,2.000000*%
%ADD31R,1.800000X1.800000*%
%ADD32C,1.800000*%
%ADD33O,1.600000X1.600000*%
G04 APERTURE END LIST*
D10*
D11*
X122918000Y-108676000D03*
X122918000Y-114264000D03*
D12*
X167600000Y-68600000D03*
D13*
X162211846Y-63211846D02*
X162211846Y-63211846D01*
D14*
X129250000Y-68500000D03*
X134130000Y-68500000D03*
D15*
X205360000Y-85920000D03*
D16*
X205360000Y-87920000D03*
D15*
X196750000Y-95900000D03*
D16*
X196750000Y-97900000D03*
D17*
X211500000Y-99900000D03*
D18*
X206500000Y-99900000D03*
D19*
X206500000Y-94900000D03*
X206500000Y-97400000D03*
X206500000Y-102400000D03*
X206500000Y-104900000D03*
D18*
X211500000Y-94900000D03*
X211500000Y-104900000D03*
X214000000Y-94900000D03*
X214000000Y-104900000D03*
D17*
X211510000Y-74680000D03*
D18*
X206510000Y-74680000D03*
D19*
X206510000Y-69680000D03*
X206510000Y-72180000D03*
X206510000Y-77180000D03*
X206510000Y-79680000D03*
D18*
X211510000Y-69680000D03*
X211510000Y-79680000D03*
X214010000Y-69680000D03*
X214010000Y-79680000D03*
D15*
X199400000Y-76600000D03*
D16*
X201400000Y-76600000D03*
D20*
X211000000Y-44000000D03*
X119000000Y-44000000D03*
X119000000Y-131000000D03*
X211000000Y-131000000D03*
D11*
X179000000Y-100201260D03*
X179000000Y-90041260D03*
D21*
X202100000Y-117700000D03*
X208100000Y-117700000D03*
X205100000Y-122400000D03*
D14*
X178310000Y-70020000D03*
X173430000Y-70020000D03*
X156610000Y-122610000D03*
X156610000Y-117730000D03*
D22*
X182920000Y-93150000D03*
D23*
X184920000Y-93150000D03*
D22*
X168210000Y-99630000D03*
D23*
X168210000Y-101630000D03*
D22*
X192260000Y-68200000D03*
D23*
X194260000Y-68200000D03*
D10*
G36*
X189000000Y-126581371D02*
X187868629Y-125450000D01*
X189000000Y-124318629D01*
X190131371Y-125450000D01*
X189000000Y-126581371D01*
X189000000Y-126581371D01*
G37*
D23*
X190767767Y-123682233D03*
D24*
X183000000Y-43000000D03*
D25*
X185540000Y-43000000D03*
X188080000Y-43000000D03*
X190620000Y-43000000D03*
X193160000Y-43000000D03*
X195700000Y-43000000D03*
X198240000Y-43000000D03*
X200780000Y-43000000D03*
X203320000Y-43000000D03*
X205860000Y-43000000D03*
D24*
X168000000Y-132000000D03*
D25*
X170540000Y-132000000D03*
X173080000Y-132000000D03*
X175620000Y-132000000D03*
X178160000Y-132000000D03*
X180700000Y-132000000D03*
X183240000Y-132000000D03*
X185780000Y-132000000D03*
X188320000Y-132000000D03*
X190860000Y-132000000D03*
D24*
X126000000Y-132000000D03*
D25*
X128540000Y-132000000D03*
X131080000Y-132000000D03*
X133620000Y-132000000D03*
X136160000Y-132000000D03*
X138700000Y-132000000D03*
X141240000Y-132000000D03*
X143780000Y-132000000D03*
X146320000Y-132000000D03*
X148860000Y-132000000D03*
D24*
X126000000Y-43000000D03*
D25*
X128540000Y-43000000D03*
X131080000Y-43000000D03*
X133620000Y-43000000D03*
X136160000Y-43000000D03*
X138700000Y-43000000D03*
X141240000Y-43000000D03*
X143780000Y-43000000D03*
X146320000Y-43000000D03*
X148860000Y-43000000D03*
D10*
G36*
X176450000Y-123631371D02*
X175318629Y-122500000D01*
X176450000Y-121368629D01*
X177581371Y-122500000D01*
X176450000Y-123631371D01*
X176450000Y-123631371D01*
G37*
D23*
X178217767Y-120732233D03*
D24*
X198000000Y-132000000D03*
D25*
X200540000Y-132000000D03*
X203080000Y-132000000D03*
X205620000Y-132000000D03*
D26*
X200550000Y-54760000D03*
X200550000Y-57300000D03*
X202550000Y-57300000D03*
X202550000Y-54760000D03*
D27*
X205250000Y-50030000D03*
X205250000Y-62030000D03*
D11*
X124414000Y-92178000D03*
X124414000Y-97766000D03*
D12*
X172800000Y-74300000D03*
D28*
X165180000Y-74300000D03*
D22*
X167500000Y-120480000D03*
D23*
X165000000Y-120480000D03*
D11*
X149062740Y-109658000D03*
X159222740Y-109658000D03*
D22*
X158890000Y-129470000D03*
D23*
X158890000Y-131970000D03*
D12*
X146800000Y-106400000D03*
D28*
X154420000Y-106400000D03*
D12*
X149050000Y-112250000D03*
D28*
X156670000Y-112250000D03*
D22*
X187075000Y-103575000D03*
D23*
X187075000Y-101075000D03*
D29*
X141680000Y-120870000D03*
D30*
X146680000Y-120870000D03*
D29*
X147790000Y-97776000D03*
D30*
X152790000Y-97776000D03*
D12*
X140000000Y-94500000D03*
D28*
X140000000Y-86880000D03*
D12*
X140000000Y-114500000D03*
D28*
X140000000Y-106880000D03*
D12*
X142300000Y-86850000D03*
D28*
X142300000Y-94470000D03*
D12*
X142380000Y-106850000D03*
D28*
X142380000Y-114470000D03*
D22*
X176270000Y-79030000D03*
D23*
X176270000Y-81530000D03*
D24*
X117400000Y-60240000D03*
D25*
X119940000Y-60240000D03*
X117400000Y-57700000D03*
X119940000Y-57700000D03*
X117400000Y-55160000D03*
X119940000Y-55160000D03*
X117400000Y-52620000D03*
X119940000Y-52620000D03*
X117400000Y-50080000D03*
X119940000Y-50080000D03*
D31*
X117580000Y-65750000D03*
D32*
X120120000Y-65750000D03*
D12*
X123350000Y-60760000D03*
D28*
X130970000Y-60760000D03*
D31*
X117580000Y-72360000D03*
D32*
X120120000Y-72360000D03*
D31*
X117570000Y-78980000D03*
D32*
X120110000Y-78980000D03*
D31*
X117560000Y-85590000D03*
D32*
X120100000Y-85590000D03*
D12*
X123340000Y-63060000D03*
D28*
X130960000Y-63060000D03*
D12*
X124600000Y-75990300D03*
D28*
X124600000Y-68370300D03*
D12*
X123910000Y-81470000D03*
D13*
X129298154Y-76081846D02*
X129298154Y-76081846D01*
D24*
X211110000Y-83400000D03*
D25*
X211110000Y-85940000D03*
X211110000Y-88480000D03*
X211110000Y-91020000D03*
D12*
X141590000Y-55680000D03*
D13*
X146978154Y-50291846D02*
X146978154Y-50291846D01*
D12*
X183274000Y-57334000D03*
D28*
X175654000Y-57334000D03*
D12*
X183274000Y-60382000D03*
D28*
X175654000Y-60382000D03*
D12*
X153350000Y-58410000D03*
D28*
X160970000Y-58410000D03*
D12*
X144000000Y-56530000D03*
D13*
X149388154Y-51141846D02*
X149388154Y-51141846D01*
D22*
X183782000Y-52254000D03*
D33*
X173622000Y-52254000D03*
D12*
X154572000Y-52254000D03*
D28*
X162192000Y-52254000D03*
M02*
