G04 #@! TF.FileFunction,Soldermask,Top*
%FSLAX46Y46*%
G04 Gerber Fmt 4.6, Leading zero omitted, Abs format (unit mm)*
G04 Created by KiCad (PCBNEW 4.0.3+e1-6302~38~ubuntu14.04.1-stable) date Wed Jul 12 07:56:50 2017*
%MOMM*%
%LPD*%
G01*
G04 APERTURE LIST*
%ADD10C,0.100000*%
%ADD11C,2.000000*%
%ADD12R,2.500000X2.000000*%
%ADD13C,0.900000*%
%ADD14R,1.750000X0.450000*%
%ADD15R,1.300000X1.300000*%
%ADD16C,1.300000*%
%ADD17R,2.148840X1.501140*%
%ADD18R,0.900000X1.200000*%
%ADD19R,1.500000X0.600000*%
%ADD20O,1.600000X2.500000*%
%ADD21O,1.200000X1.200000*%
%ADD22O,2.500000X1.600000*%
%ADD23R,1.600000X1.600000*%
%ADD24C,1.998980*%
%ADD25R,1.700000X1.400000*%
%ADD26R,1.400000X1.700000*%
%ADD27R,0.750000X1.200000*%
%ADD28R,1.200000X0.900000*%
%ADD29R,1.200000X0.750000*%
%ADD30C,5.700000*%
%ADD31R,0.600000X1.500000*%
%ADD32R,3.500120X3.500120*%
%ADD33R,1.560000X0.650000*%
%ADD34R,2.032000X3.657600*%
%ADD35R,2.032000X1.016000*%
%ADD36R,0.550000X1.600000*%
%ADD37R,1.600000X0.550000*%
%ADD38R,2.000000X2.500000*%
%ADD39R,1.500000X0.400000*%
%ADD40R,0.400000X1.500000*%
%ADD41R,1.550000X0.600000*%
%ADD42C,1.500000*%
%ADD43R,1.700000X1.700000*%
%ADD44O,1.700000X1.700000*%
%ADD45R,0.800000X1.900000*%
%ADD46R,3.200000X1.500000*%
%ADD47R,1.500000X3.200000*%
%ADD48R,3.500000X2.000000*%
%ADD49R,7.000000X7.000000*%
%ADD50R,1.800000X1.800000*%
%ADD51C,1.800000*%
%ADD52O,2.300000X1.600000*%
%ADD53O,5.001260X3.500120*%
%ADD54C,1.600200*%
%ADD55O,5.000000X5.000000*%
%ADD56O,1.800000X1.800000*%
%ADD57R,3.657600X2.032000*%
%ADD58R,1.016000X2.032000*%
%ADD59R,2.700000X3.200000*%
%ADD60C,1.524000*%
%ADD61C,1.440000*%
%ADD62R,1.900000X0.800000*%
%ADD63C,1.520000*%
%ADD64R,1.520000X1.520000*%
%ADD65R,1.700000X3.300000*%
%ADD66C,1.600000*%
%ADD67C,1.400000*%
%ADD68O,1.400000X1.400000*%
%ADD69R,3.150000X1.700000*%
%ADD70R,1.300000X2.500000*%
%ADD71R,1.300000X2.550000*%
%ADD72R,2.200000X2.200000*%
%ADD73O,2.200000X2.200000*%
%ADD74R,1.501140X2.148840*%
G04 APERTURE END LIST*
D10*
D11*
X115025000Y-99300000D03*
X113755000Y-96760000D03*
X110005000Y-99300000D03*
X108735000Y-96760000D03*
D12*
X76280000Y-90350000D03*
X76280000Y-94350000D03*
D13*
X140350000Y-108800000D03*
X140350000Y-113200000D03*
D14*
X123100000Y-112975000D03*
X123100000Y-113625000D03*
X123100000Y-114275000D03*
X123100000Y-114925000D03*
X123100000Y-115575000D03*
X123100000Y-116225000D03*
X123100000Y-116875000D03*
X123100000Y-117525000D03*
X123100000Y-118175000D03*
X123100000Y-118825000D03*
X123100000Y-119475000D03*
X123100000Y-120125000D03*
X123100000Y-120775000D03*
X123100000Y-121425000D03*
X130300000Y-121425000D03*
X130300000Y-120775000D03*
X130300000Y-120125000D03*
X130300000Y-119475000D03*
X130300000Y-118825000D03*
X130300000Y-118175000D03*
X130300000Y-117525000D03*
X130300000Y-116875000D03*
X130300000Y-116225000D03*
X130300000Y-115575000D03*
X130300000Y-114925000D03*
X130300000Y-114275000D03*
X130300000Y-113625000D03*
X130300000Y-112975000D03*
D15*
X131000000Y-106500000D03*
D16*
X129000000Y-106500000D03*
D17*
X131501140Y-106500000D03*
X128498860Y-106500000D03*
D15*
X84925000Y-36100000D03*
D16*
X87425000Y-36100000D03*
D15*
X48200000Y-106110000D03*
D16*
X48200000Y-108610000D03*
D18*
X104350000Y-66050000D03*
X104350000Y-68250000D03*
X92175000Y-50300000D03*
X92175000Y-52500000D03*
D19*
X100050000Y-63870000D03*
X100050000Y-62600000D03*
X100050000Y-61330000D03*
X100050000Y-60060000D03*
X100050000Y-58790000D03*
X100050000Y-57520000D03*
X100050000Y-56250000D03*
X100050000Y-54980000D03*
X94650000Y-54980000D03*
X94650000Y-56250000D03*
X94650000Y-57520000D03*
X94650000Y-58790000D03*
X94650000Y-60060000D03*
X94650000Y-61330000D03*
X94650000Y-62600000D03*
X94650000Y-63870000D03*
D20*
X141450000Y-60050000D03*
D21*
X136450000Y-60050000D03*
D22*
X136450000Y-55050000D03*
X136450000Y-57550000D03*
X136450000Y-62550000D03*
X136450000Y-65050000D03*
D21*
X141450000Y-55050000D03*
X141450000Y-65050000D03*
X143950000Y-55050000D03*
X143950000Y-65050000D03*
D23*
X85325000Y-56925000D03*
X83025000Y-56925000D03*
X86300000Y-39000000D03*
X84000000Y-39000000D03*
D19*
X112375000Y-68410000D03*
X112375000Y-67140000D03*
X112375000Y-65870000D03*
X112375000Y-64600000D03*
X112375000Y-63330000D03*
X112375000Y-62060000D03*
X112375000Y-60790000D03*
X106975000Y-60790000D03*
X106975000Y-62060000D03*
X106975000Y-63330000D03*
X106975000Y-64600000D03*
X106975000Y-65870000D03*
X106975000Y-67140000D03*
X106975000Y-68410000D03*
D24*
X121250000Y-62000000D03*
X131660000Y-62000000D03*
D23*
X66450000Y-38800000D03*
X64150000Y-38800000D03*
X76250000Y-52000000D03*
X76250000Y-49700000D03*
X85325000Y-46325000D03*
X83025000Y-46325000D03*
X85325000Y-51625000D03*
X83025000Y-51625000D03*
X85325000Y-62225000D03*
X83025000Y-62225000D03*
X59330000Y-47030000D03*
X59330000Y-44730000D03*
X140450000Y-96000000D03*
X138150000Y-96000000D03*
X118250000Y-37500000D03*
X120550000Y-37500000D03*
D15*
X120700000Y-35200000D03*
D16*
X118200000Y-35200000D03*
D23*
X96680000Y-76010000D03*
X96680000Y-73710000D03*
D25*
X59050000Y-37400000D03*
X59050000Y-35000000D03*
D26*
X78250000Y-44000000D03*
X80650000Y-44000000D03*
X78250000Y-59950000D03*
X80650000Y-59950000D03*
D20*
X141450000Y-47000000D03*
D21*
X136450000Y-47000000D03*
D22*
X136450000Y-42000000D03*
X136450000Y-44500000D03*
X136450000Y-49500000D03*
X136450000Y-52000000D03*
D21*
X141450000Y-42000000D03*
X141450000Y-52000000D03*
X143950000Y-42000000D03*
X143950000Y-52000000D03*
D23*
X86880000Y-67180000D03*
X89180000Y-67180000D03*
X99400000Y-69540000D03*
X99400000Y-67240000D03*
X97650000Y-52850000D03*
X95350000Y-52850000D03*
X64800000Y-61325000D03*
X67100000Y-61325000D03*
X57675000Y-57075000D03*
X59975000Y-57075000D03*
X118600000Y-69850000D03*
X118600000Y-67550000D03*
X126350000Y-67450000D03*
X124050000Y-67450000D03*
X126350000Y-62000000D03*
X124050000Y-62000000D03*
D24*
X121600000Y-51200000D03*
X121600000Y-41040000D03*
X121250000Y-67450000D03*
X131410000Y-67450000D03*
D25*
X59050000Y-41750000D03*
X59050000Y-39350000D03*
D26*
X78250000Y-49300000D03*
X80650000Y-49300000D03*
X78250000Y-54600000D03*
X80650000Y-54600000D03*
D24*
X99100000Y-74030000D03*
X88940000Y-74030000D03*
X61850000Y-41800000D03*
X72010000Y-41800000D03*
X72000000Y-38800000D03*
X61840000Y-38800000D03*
X118475000Y-74200000D03*
X118475000Y-64040000D03*
D15*
X58425000Y-54475000D03*
D16*
X56425000Y-54475000D03*
D17*
X58926140Y-54475000D03*
X55923860Y-54475000D03*
D18*
X114400000Y-60275000D03*
X114400000Y-62475000D03*
D27*
X116200000Y-60325000D03*
X116200000Y-62225000D03*
X116200000Y-68375000D03*
X116200000Y-66475000D03*
D18*
X114400000Y-66475000D03*
X114400000Y-68675000D03*
X104575000Y-62600000D03*
X104575000Y-60400000D03*
D28*
X111875000Y-58675000D03*
X109675000Y-58675000D03*
X109900000Y-70650000D03*
X112100000Y-70650000D03*
D29*
X90200000Y-40050000D03*
X92100000Y-40050000D03*
D28*
X108200000Y-54000000D03*
X110400000Y-54000000D03*
X114800000Y-54000000D03*
X112600000Y-54000000D03*
X116900000Y-51000000D03*
X119100000Y-51000000D03*
X114800000Y-38400000D03*
X112600000Y-38400000D03*
X120100000Y-72100000D03*
X117900000Y-72100000D03*
X120200000Y-59400000D03*
X118000000Y-59400000D03*
D27*
X97420000Y-71050000D03*
X97420000Y-69150000D03*
D25*
X65900000Y-46800000D03*
X65900000Y-44400000D03*
X68400000Y-45000000D03*
X68400000Y-42600000D03*
D23*
X133810000Y-53780000D03*
X131510000Y-53780000D03*
D26*
X123450000Y-43600000D03*
X121050000Y-43600000D03*
D25*
X92450000Y-74740000D03*
X92450000Y-77140000D03*
D26*
X123450000Y-48600000D03*
X121050000Y-48600000D03*
D30*
X140600000Y-119800000D03*
X48800000Y-120450000D03*
X49000000Y-34000000D03*
X141000000Y-37000000D03*
D18*
X106100000Y-41800000D03*
X106100000Y-39600000D03*
D28*
X108200000Y-38400000D03*
X110400000Y-38400000D03*
X110400000Y-41400000D03*
X108200000Y-41400000D03*
X112600000Y-41400000D03*
X114800000Y-41400000D03*
X116900000Y-41400000D03*
X119100000Y-41400000D03*
D18*
X104300000Y-39600000D03*
X104300000Y-41800000D03*
X106100000Y-50600000D03*
X106100000Y-52800000D03*
D28*
X110400000Y-51000000D03*
X108200000Y-51000000D03*
X112600000Y-51000000D03*
X114800000Y-51000000D03*
D18*
X104300000Y-52800000D03*
X104300000Y-50600000D03*
D31*
X109890000Y-48900000D03*
X111160000Y-48900000D03*
X112430000Y-48900000D03*
X113700000Y-48900000D03*
X114970000Y-48900000D03*
X116240000Y-48900000D03*
X117510000Y-48900000D03*
X117510000Y-43500000D03*
X116240000Y-43500000D03*
X114970000Y-43500000D03*
X113700000Y-43500000D03*
X112430000Y-43500000D03*
X111160000Y-43500000D03*
X109890000Y-43500000D03*
D15*
X136850000Y-99550000D03*
D16*
X141850000Y-99550000D03*
D32*
X133799860Y-71000000D03*
X139799340Y-71000000D03*
X136799600Y-75699000D03*
D33*
X75750000Y-47500000D03*
X75750000Y-46550000D03*
X75750000Y-45600000D03*
X73050000Y-45600000D03*
X73050000Y-47500000D03*
X73050000Y-46550000D03*
X75750000Y-58450000D03*
X75750000Y-57500000D03*
X75750000Y-56550000D03*
X73050000Y-56550000D03*
X73050000Y-58450000D03*
X73050000Y-57500000D03*
D27*
X47000000Y-74150000D03*
X47000000Y-72250000D03*
D23*
X49650000Y-80875000D03*
X51950000Y-80875000D03*
X49700000Y-72450000D03*
X52000000Y-72450000D03*
D27*
X55550000Y-74150000D03*
X55550000Y-72250000D03*
X73430000Y-74150000D03*
X73430000Y-72250000D03*
X71790000Y-74150000D03*
X71790000Y-72250000D03*
X63750000Y-74150000D03*
X63750000Y-72250000D03*
D24*
X70175000Y-59450000D03*
X60015000Y-59450000D03*
D26*
X71900000Y-33800000D03*
X69500000Y-33800000D03*
D34*
X81402000Y-36100000D03*
D35*
X74798000Y-36100000D03*
X74798000Y-38386000D03*
X74798000Y-33814000D03*
D14*
X70300000Y-55825000D03*
X70300000Y-55175000D03*
X70300000Y-54525000D03*
X70300000Y-53875000D03*
X70300000Y-53225000D03*
X70300000Y-52575000D03*
X70300000Y-51925000D03*
X70300000Y-51275000D03*
X70300000Y-50625000D03*
X70300000Y-49975000D03*
X63100000Y-49975000D03*
X63100000Y-50625000D03*
X63100000Y-51275000D03*
X63100000Y-51925000D03*
X63100000Y-52575000D03*
X63100000Y-53225000D03*
X63100000Y-53875000D03*
X63100000Y-54525000D03*
X63100000Y-55175000D03*
X63100000Y-55825000D03*
D36*
X107700000Y-112750000D03*
X106900000Y-112750000D03*
X106100000Y-112750000D03*
X105300000Y-112750000D03*
X104500000Y-112750000D03*
X103700000Y-112750000D03*
X102900000Y-112750000D03*
X102100000Y-112750000D03*
D37*
X100650000Y-114200000D03*
X100650000Y-115000000D03*
X100650000Y-115800000D03*
X100650000Y-116600000D03*
X100650000Y-117400000D03*
X100650000Y-118200000D03*
X100650000Y-119000000D03*
X100650000Y-119800000D03*
D36*
X102100000Y-121250000D03*
X102900000Y-121250000D03*
X103700000Y-121250000D03*
X104500000Y-121250000D03*
X105300000Y-121250000D03*
X106100000Y-121250000D03*
X106900000Y-121250000D03*
X107700000Y-121250000D03*
D37*
X109150000Y-119800000D03*
X109150000Y-119000000D03*
X109150000Y-118200000D03*
X109150000Y-117400000D03*
X109150000Y-116600000D03*
X109150000Y-115800000D03*
X109150000Y-115000000D03*
X109150000Y-114200000D03*
D12*
X47000000Y-80500000D03*
X47000000Y-76500000D03*
D38*
X47000000Y-83500000D03*
X51000000Y-83500000D03*
X47000000Y-69700000D03*
X51000000Y-69700000D03*
D12*
X55550000Y-80500000D03*
X55550000Y-76500000D03*
D38*
X55550000Y-83500000D03*
X59550000Y-83500000D03*
X55550000Y-69700000D03*
X59550000Y-69700000D03*
D12*
X72650000Y-80500000D03*
X72650000Y-76500000D03*
D38*
X72650000Y-83500000D03*
X76650000Y-83500000D03*
X72650000Y-69700000D03*
X76650000Y-69700000D03*
D12*
X64100000Y-80500000D03*
X64100000Y-76500000D03*
D38*
X64100000Y-83500000D03*
X68100000Y-83500000D03*
X64100000Y-69700000D03*
X68100000Y-69700000D03*
D39*
X64920000Y-58010000D03*
X64920000Y-58660000D03*
X64920000Y-59310000D03*
X67580000Y-59310000D03*
X67580000Y-58010000D03*
D40*
X63850000Y-44870000D03*
X63200000Y-44870000D03*
X62550000Y-44870000D03*
X62550000Y-47530000D03*
X63850000Y-47530000D03*
D41*
X118800000Y-119405000D03*
X118800000Y-118135000D03*
X118800000Y-116865000D03*
X118800000Y-115595000D03*
X113400000Y-115595000D03*
X113400000Y-116865000D03*
X113400000Y-118135000D03*
X113400000Y-119405000D03*
D23*
X47330000Y-94550000D03*
X47330000Y-92250000D03*
D42*
X98050000Y-109925000D03*
X102930000Y-109925000D03*
D43*
X86000000Y-120000000D03*
D44*
X86000000Y-122540000D03*
X88540000Y-120000000D03*
X88540000Y-122540000D03*
X91080000Y-120000000D03*
X91080000Y-122540000D03*
D23*
X126250000Y-110200000D03*
X128550000Y-110200000D03*
X136050000Y-120100000D03*
X133750000Y-120100000D03*
D25*
X134000000Y-114300000D03*
X134000000Y-116700000D03*
D26*
X132000000Y-109200000D03*
X134400000Y-109200000D03*
D45*
X92470000Y-72250000D03*
X94370000Y-72250000D03*
X93420000Y-69250000D03*
D23*
X73250000Y-60700000D03*
X75550000Y-60700000D03*
D29*
X59950000Y-72150000D03*
X58050000Y-72150000D03*
X60950000Y-67130000D03*
X59050000Y-67130000D03*
X60950000Y-86180000D03*
X59050000Y-86180000D03*
X60450000Y-80830000D03*
X58550000Y-80830000D03*
X69500000Y-67060000D03*
X67600000Y-67060000D03*
X68500000Y-72150000D03*
X66600000Y-72150000D03*
X77050000Y-72150000D03*
X75150000Y-72150000D03*
X69500000Y-86180000D03*
X67600000Y-86180000D03*
X69000000Y-80830000D03*
X67100000Y-80830000D03*
X77550000Y-80830000D03*
X75650000Y-80830000D03*
D23*
X105200000Y-107975000D03*
X102900000Y-107975000D03*
X95725000Y-107975000D03*
X98025000Y-107975000D03*
D46*
X122050000Y-64950000D03*
X126050000Y-64950000D03*
D47*
X101990000Y-66920000D03*
X101990000Y-70920000D03*
D46*
X88400000Y-44000000D03*
X84400000Y-44000000D03*
X88300000Y-49300000D03*
X84300000Y-49300000D03*
X88200000Y-54600000D03*
X84200000Y-54600000D03*
X88200000Y-59800000D03*
X84200000Y-59800000D03*
X62400000Y-35900000D03*
X66400000Y-35900000D03*
D34*
X50598000Y-109800000D03*
D35*
X57202000Y-109800000D03*
X57202000Y-107514000D03*
X57202000Y-112086000D03*
D48*
X126425000Y-33800000D03*
X126425000Y-38380000D03*
D49*
X133825000Y-36100000D03*
D23*
X63634000Y-109728000D03*
X61334000Y-109728000D03*
X90575000Y-109775000D03*
X92875000Y-109775000D03*
D24*
X61500000Y-97000000D03*
X61500000Y-107160000D03*
D46*
X127000000Y-44100000D03*
X131000000Y-44100000D03*
X127000000Y-48400000D03*
X131000000Y-48400000D03*
D28*
X55780000Y-95360000D03*
X57980000Y-95360000D03*
X53780000Y-95360000D03*
X51580000Y-95360000D03*
D18*
X57990000Y-100660000D03*
X57990000Y-98460000D03*
X51590000Y-100660000D03*
X51590000Y-98460000D03*
X57990000Y-104890000D03*
X57990000Y-102690000D03*
X51590000Y-104890000D03*
X51590000Y-102690000D03*
D46*
X123250000Y-71350000D03*
X127250000Y-71350000D03*
X123250000Y-59400000D03*
X127250000Y-59400000D03*
D19*
X100050000Y-47970000D03*
X100050000Y-46700000D03*
X100050000Y-45430000D03*
X100050000Y-44160000D03*
X100050000Y-42890000D03*
X100050000Y-41620000D03*
X100050000Y-40350000D03*
X100050000Y-39080000D03*
X94650000Y-39080000D03*
X94650000Y-40350000D03*
X94650000Y-41620000D03*
X94650000Y-42890000D03*
X94650000Y-44160000D03*
X94650000Y-45430000D03*
X94650000Y-46700000D03*
X94650000Y-47970000D03*
D26*
X118850000Y-54240000D03*
X121250000Y-54240000D03*
X125750000Y-55750000D03*
X123350000Y-55750000D03*
D23*
X55450000Y-36130000D03*
X53150000Y-36130000D03*
D50*
X48190000Y-113070000D03*
D51*
X48190000Y-115610000D03*
D25*
X53300000Y-119300000D03*
X53300000Y-116900000D03*
D43*
X116600000Y-122100000D03*
D44*
X114060000Y-122100000D03*
D43*
X118450000Y-110175000D03*
D44*
X115910000Y-110175000D03*
X113370000Y-110175000D03*
X110830000Y-110175000D03*
D46*
X51375000Y-38600000D03*
X47375000Y-38600000D03*
D39*
X65170000Y-93690000D03*
X65170000Y-93040000D03*
X65170000Y-92390000D03*
X62510000Y-92390000D03*
X62510000Y-93040000D03*
X62510000Y-93690000D03*
D40*
X48450000Y-86570000D03*
X47800000Y-86570000D03*
X47150000Y-86570000D03*
X47150000Y-89230000D03*
X47800000Y-89230000D03*
X48450000Y-89230000D03*
X47150000Y-66755000D03*
X47800000Y-66755000D03*
X48450000Y-66755000D03*
X48450000Y-64095000D03*
X47800000Y-64095000D03*
X47150000Y-64095000D03*
X57000000Y-86570000D03*
X56350000Y-86570000D03*
X55700000Y-86570000D03*
X55700000Y-89230000D03*
X56350000Y-89230000D03*
X57000000Y-89230000D03*
X55700000Y-66755000D03*
X56350000Y-66755000D03*
X57000000Y-66755000D03*
X57000000Y-64095000D03*
X56350000Y-64095000D03*
X55700000Y-64095000D03*
X73800000Y-86540000D03*
X73150000Y-86540000D03*
X72500000Y-86540000D03*
X72500000Y-89200000D03*
X73150000Y-89200000D03*
X73800000Y-89200000D03*
X72800000Y-66755000D03*
X73450000Y-66755000D03*
X74100000Y-66755000D03*
X74100000Y-64095000D03*
X73450000Y-64095000D03*
X72800000Y-64095000D03*
X65550000Y-86570000D03*
X64900000Y-86570000D03*
X64250000Y-86570000D03*
X64250000Y-89230000D03*
X64900000Y-89230000D03*
X65550000Y-89230000D03*
X64250000Y-66755000D03*
X64900000Y-66755000D03*
X65550000Y-66755000D03*
X65550000Y-64095000D03*
X64900000Y-64095000D03*
X64250000Y-64095000D03*
D39*
X56660000Y-92390000D03*
X56660000Y-93040000D03*
X56660000Y-93690000D03*
X59320000Y-93690000D03*
X59320000Y-93040000D03*
X59320000Y-92390000D03*
X52740000Y-93660000D03*
X52740000Y-93010000D03*
X52740000Y-92360000D03*
X50080000Y-92360000D03*
X50080000Y-93010000D03*
X50080000Y-93660000D03*
D52*
X120904000Y-79248000D03*
X120904000Y-89408000D03*
X128524000Y-79248000D03*
X128524000Y-89408000D03*
X120904000Y-91948000D03*
X128524000Y-91948000D03*
D53*
X136931400Y-90695780D03*
X136931400Y-80497680D03*
D54*
X132666740Y-85598000D03*
X132666740Y-88097360D03*
D25*
X136200000Y-86000000D03*
X136200000Y-83600000D03*
X132675000Y-82500000D03*
X132675000Y-80100000D03*
X138675000Y-86000000D03*
X138675000Y-83600000D03*
X129500000Y-84100000D03*
X129500000Y-81700000D03*
D23*
X125900000Y-81050000D03*
X123600000Y-81050000D03*
X125900000Y-83425000D03*
X123600000Y-83425000D03*
X125900000Y-85650000D03*
X123600000Y-85650000D03*
D55*
X99590000Y-82140000D03*
D50*
X97050000Y-98800000D03*
D56*
X99590000Y-98800000D03*
X102130000Y-98800000D03*
D23*
X110450000Y-102090000D03*
X110450000Y-104390000D03*
X112850000Y-102100000D03*
X112850000Y-104400000D03*
X107975000Y-102100000D03*
X107975000Y-104400000D03*
X79880000Y-84520000D03*
X79880000Y-86820000D03*
X96800000Y-93950000D03*
X96800000Y-91650000D03*
D57*
X84800000Y-84698000D03*
D58*
X84800000Y-91302000D03*
X87086000Y-91302000D03*
X82514000Y-91302000D03*
D23*
X84020000Y-77870000D03*
X81720000Y-77870000D03*
D29*
X101150000Y-86300000D03*
X99250000Y-86300000D03*
X101150000Y-77900000D03*
X99250000Y-77900000D03*
D24*
X99250000Y-102450000D03*
X89090000Y-102450000D03*
D59*
X84850000Y-81000000D03*
X92750000Y-81000000D03*
D26*
X82400000Y-94000000D03*
X80000000Y-94000000D03*
X100300000Y-92900000D03*
X102700000Y-92900000D03*
X89300000Y-93800000D03*
X91700000Y-93800000D03*
D25*
X80020000Y-91670000D03*
X80020000Y-89270000D03*
D60*
X90000000Y-91200000D03*
X92540000Y-89930000D03*
X90000000Y-88660000D03*
X92540000Y-87390000D03*
X90000000Y-86120000D03*
X92540000Y-84850000D03*
D29*
X67050000Y-96900000D03*
X68950000Y-96900000D03*
D23*
X85300000Y-103575000D03*
X83000000Y-103575000D03*
D45*
X78550000Y-105150000D03*
X80450000Y-105150000D03*
X79500000Y-102150000D03*
D26*
X94050000Y-96350000D03*
X91650000Y-96350000D03*
X71500000Y-96900000D03*
X73900000Y-96900000D03*
D25*
X74200000Y-99100000D03*
X74200000Y-101500000D03*
X71200000Y-99100000D03*
X71200000Y-101500000D03*
X78800000Y-96900000D03*
X78800000Y-99300000D03*
X83050000Y-98550000D03*
X83050000Y-100950000D03*
D26*
X89050000Y-98550000D03*
X86650000Y-98550000D03*
D61*
X89000000Y-96250000D03*
X86460000Y-96250000D03*
X83920000Y-96250000D03*
D29*
X93850000Y-102500000D03*
X91950000Y-102500000D03*
X75050000Y-107750000D03*
X76950000Y-107750000D03*
D45*
X67200000Y-105925000D03*
X69100000Y-105925000D03*
X68150000Y-102925000D03*
D62*
X113980000Y-88650000D03*
X113980000Y-90550000D03*
X116980000Y-89600000D03*
D18*
X76800000Y-102600000D03*
X76800000Y-104800000D03*
D26*
X79250000Y-110575000D03*
X81650000Y-110575000D03*
D63*
X81790000Y-107750000D03*
X84330000Y-107750000D03*
D64*
X79250000Y-107750000D03*
D24*
X121400000Y-75700000D03*
X131560000Y-75700000D03*
D26*
X67575000Y-108275000D03*
X69975000Y-108275000D03*
X109000000Y-88700000D03*
X111400000Y-88700000D03*
D15*
X84070000Y-74490000D03*
D16*
X84070000Y-71990000D03*
D29*
X125710000Y-89250000D03*
X123810000Y-89250000D03*
D65*
X132175000Y-97650000D03*
X132175000Y-92150000D03*
D24*
X55372000Y-39878000D03*
X55372000Y-50038000D03*
D41*
X60970000Y-118335000D03*
X60970000Y-119605000D03*
X60970000Y-120875000D03*
X60970000Y-122145000D03*
X66370000Y-122145000D03*
X66370000Y-120875000D03*
X66370000Y-119605000D03*
X66370000Y-118335000D03*
D27*
X58674000Y-117668000D03*
X58674000Y-119568000D03*
D23*
X79840000Y-118260000D03*
D66*
X79840000Y-121760000D03*
D23*
X91500000Y-112650000D03*
D66*
X88000000Y-112650000D03*
D23*
X71140000Y-118260000D03*
D66*
X71140000Y-121760000D03*
D28*
X65616000Y-116332000D03*
X63416000Y-116332000D03*
X65616000Y-114300000D03*
X63416000Y-114300000D03*
D67*
X56388000Y-122682000D03*
D68*
X56388000Y-120142000D03*
D67*
X56388000Y-117856000D03*
D68*
X56388000Y-115316000D03*
D69*
X49724000Y-42458000D03*
X49724000Y-44958000D03*
X49724000Y-47458000D03*
X54924000Y-47458000D03*
X54924000Y-44958000D03*
X54924000Y-42458000D03*
D70*
X52324000Y-41608000D03*
D71*
X52324000Y-48308000D03*
D72*
X61150000Y-113550000D03*
D73*
X71310000Y-113550000D03*
D67*
X46990000Y-52070000D03*
D68*
X49530000Y-52070000D03*
D67*
X46990000Y-55880000D03*
D68*
X49530000Y-55880000D03*
D18*
X46736000Y-42842000D03*
X46736000Y-45042000D03*
D28*
X73800000Y-104800000D03*
X71600000Y-104800000D03*
D27*
X52025000Y-77425000D03*
X52025000Y-75525000D03*
X54800000Y-100525000D03*
X54800000Y-98625000D03*
X60575000Y-77525000D03*
X60575000Y-75625000D03*
X77425000Y-77500000D03*
X77425000Y-75600000D03*
X68725000Y-77625000D03*
X68725000Y-75725000D03*
D29*
X67825000Y-110375000D03*
X69725000Y-110375000D03*
D15*
X106375000Y-74375000D03*
D16*
X108375000Y-74375000D03*
D17*
X105873860Y-74375000D03*
X108876140Y-74375000D03*
D15*
X128600000Y-53225000D03*
D16*
X128600000Y-55225000D03*
D74*
X128600000Y-52723860D03*
X128600000Y-55726140D03*
D15*
X95450000Y-50375000D03*
D16*
X97450000Y-50375000D03*
D17*
X94948860Y-50375000D03*
X97951140Y-50375000D03*
D15*
X89680000Y-64900000D03*
D16*
X87680000Y-64900000D03*
D17*
X90181140Y-64900000D03*
X87178860Y-64900000D03*
D29*
X87442000Y-76454000D03*
X89342000Y-76454000D03*
D15*
X105648000Y-35306000D03*
D16*
X103648000Y-35306000D03*
D17*
X106149140Y-35306000D03*
X103146860Y-35306000D03*
D29*
X109150000Y-91350000D03*
X107250000Y-91350000D03*
M02*
