M48
;DRILL file {KiCad 4.0.3+e1-6302~38~ubuntu14.04.1-stable} date Wed Jul 12 07:57:02 2017
;FORMAT={-:-/ absolute / metric / decimal}
FMAT,2
METRIC,TZ
T1C0.400
T2C0.700
T3C0.762
T4C0.800
T5C0.900
T6C1.000
T7C1.001
T8C1.100
T9C1.200
T10C2.200
T11C3.200
%
G90
G05
M71
T1
X45.974Y-86.106
X46.15Y-101.6
X46.175Y-104.65
X47.Y-47.45
X47.675Y-53.9
X47.95Y-60.9
X47.975Y-103.775
X49.15Y-69.725
X49.175Y-78.875
X49.175Y-83.725
X49.2Y-49.875
X49.575Y-76.15
X49.8Y-89.2
X49.925Y-97.075
X50.1Y-94.5
X50.2Y-62.
X50.425Y-99.7
X50.775Y-57.125
X50.875Y-50.775
X51.075Y-74.175
X51.275Y-53.9
X51.35Y-91.35
X51.95Y-79.
X52.3Y-43.9
X52.3Y-53.3
X52.4Y-114.525
X52.7Y-59.
X52.7Y-83.45
X52.75Y-66.4
X52.75Y-69.7
X52.825Y-61.35
X53.15Y-111.275
X53.175Y-97.075
X53.175Y-100.025
X53.4Y-108.8
X53.825Y-102.725
X54.2Y-86.1
X54.2Y-121.35
X54.225Y-114.1
X54.45Y-74.175
X54.55Y-123.75
X54.7Y-91.5
X54.8Y-96.45
X54.875Y-108.275
X54.95Y-64.1
X55.1Y-57.4
X55.5Y-78.425
X55.775Y-61.35
X56.275Y-104.95
X56.3Y-102.725
X56.375Y-97.
X56.375Y-100.525
X57.3Y-37.15
X57.375Y-40.65
X57.45Y-33.25
X57.475Y-44.9
X57.475Y-74.175
X57.475Y-78.425
X57.475Y-82.175
X57.55Y-69.725
X57.575Y-48.4
X57.76Y-89.23
X58.525Y-50.675
X59.182Y-91.44
X59.275Y-61.35
X59.3Y-31.4
X59.5Y-87.9
X59.85Y-100.65
X59.85Y-102.725
X59.85Y-104.975
X60.05Y-95.4
X60.3Y-111.425
X60.575Y-55.55
X60.6Y-79.175
X60.825Y-91.325
X60.96Y-94.234
X61.025Y-50.675
X61.05Y-48.35
X61.05Y-52.925
X61.15Y-74.175
X61.3Y-83.5
X61.4Y-69.725
X61.7Y-115.6
X61.725Y-101.625
X61.825Y-63.7
X62.23Y-119.634
X62.4Y-57.2
X62.5Y-31.4
X62.5Y-60.825
X62.525Y-104.975
X62.95Y-95.
X63.15Y-89.2
X63.175Y-46.3
X63.2Y-86.2
X63.53Y-64.09
X63.7Y-112.075
X63.825Y-107.2
X63.85Y-93.05
X64.1Y-78.525
X64.2Y-91.15
X64.575Y-95.075
X64.9Y-51.8
X64.9Y-74.175
X65.6Y-113.2
X65.8Y-31.4
X65.825Y-99.525
X65.85Y-42.05
X65.95Y-49.175
X65.975Y-51.225
X66.05Y-69.725
X66.075Y-83.475
X66.13Y-58.07
X66.4Y-89.23
X66.475Y-54.525
X66.775Y-73.7
X66.775Y-76.25
X66.775Y-79.125
X66.8Y-103.375
X67.475Y-91.425
X67.5Y-87.875
X67.9Y-51.6
X67.9Y-56.175
X67.925Y-48.775
X68.15Y-101.1
X68.15Y-105.925
X68.325Y-98.375
X68.425Y-38.85
X68.8Y-111.6
X69.Y-31.4
X69.05Y-113.55
X69.75Y-82.
X70.Y-41.15
X70.275Y-46.125
X70.275Y-48.775
X70.3Y-106.6
X70.33Y-57.07
X70.475Y-61.7
X70.625Y-63.7
X71.Y-89.23
X71.075Y-69.725
X71.675Y-85.5
X71.83Y-60.55
X72.16Y-64.1
X72.2Y-31.4
X72.325Y-52.9
X72.41Y-55.37
X72.65Y-94.03
X72.675Y-78.525
X72.99Y-91.2
X73.05Y-48.79
X73.725Y-50.625
X73.725Y-53.6
X73.75Y-44.75
X73.8Y-106.825
X73.86Y-92.41
X73.925Y-114.675
X74.15Y-109.975
X74.2Y-103.25
X74.65Y-69.725
X74.65Y-73.675
X74.676Y-78.486
X74.676Y-83.566
X74.8Y-76.65
X75.525Y-97.75
X75.625Y-86.075
X75.9Y-31.4
X76.Y-41.
X76.Y-43.6
X76.025Y-111.85
X76.23Y-92.42
X76.25Y-53.6
X76.25Y-63.175
X76.29Y-95.98
X76.3Y-37.3
X76.875Y-66.675
X77.05Y-100.875
X77.27Y-57.5
X77.275Y-61.65
X77.37Y-46.55
X77.6Y-86.7
X78.3Y-113.225
X78.38Y-90.57
X78.63Y-95.36
X78.9Y-34.8
X78.9Y-37.3
X78.9Y-41.
X79.1Y-52.15
X79.225Y-64.075
X79.3Y-31.4
X79.5Y-103.675
X79.88Y-70.32
X79.882Y-66.642
X79.9Y-78.775
X79.925Y-73.7
X80.5Y-46.5
X80.63Y-95.59
X80.8Y-61.65
X80.925Y-100.525
X80.95Y-113.225
X81.49Y-82.81
X81.575Y-64.92
X81.7Y-53.
X81.76Y-86.49
X82.5Y-89.3
X83.01Y-87.45
X83.275Y-68.45
X83.5Y-64.8
X83.6Y-31.4
X83.65Y-91.325
X83.825Y-112.775
X84.2Y-42.2
X84.725Y-99.75
X84.75Y-89.325
X85.3Y-53.1
X85.95Y-91.375
X85.975Y-93.65
X86.125Y-110.475
X86.35Y-87.2
X86.6Y-73.2
X86.825Y-70.3
X87.075Y-100.5
X87.15Y-104.05
X87.5Y-81.
X87.675Y-94.95
X87.8Y-31.4
X88.05Y-108.6
X88.3Y-62.
X89.3Y-46.3
X89.3Y-51.5
X89.4Y-78.
X89.675Y-100.175
X89.9Y-33.5
X90.1Y-56.9
X90.225Y-106.425
X90.7Y-59.8
X90.7Y-74.7
X90.9Y-50.1
X91.Y-83.4
X91.05Y-98.25
X91.4Y-42.1
X92.Y-43.825
X92.2Y-37.
X92.2Y-47.275
X92.2Y-91.6
X92.275Y-101.125
X92.725Y-104.125
X92.725Y-106.425
X92.92Y-60.82
X93.575Y-122.65
X93.7Y-52.825
X94.3Y-93.7
X94.6Y-98.8
X94.7Y-74.5
X94.8Y-78.
X94.8Y-87.4
X95.3Y-33.4
X95.725Y-106.425
X95.725Y-110.3
X95.875Y-121.275
X95.9Y-70.9
X95.975Y-123.225
X96.3Y-80.55
X96.3Y-82.925
X96.4Y-89.
X96.5Y-101.05
X96.5Y-104.125
X97.01Y-61.1
X97.3Y-59.8
X97.55Y-79.275
X97.6Y-119.
X97.7Y-56.9
X97.925Y-112.
X98.3Y-47.05
X98.55Y-44.225
X98.6Y-90.2
X98.6Y-92.2
X98.6Y-94.8
X98.6Y-123.6
X99.05Y-121.25
X99.8Y-75.8
X100.1Y-33.4
X100.1Y-37.
X100.525Y-106.575
X100.6Y-110.075
X101.1Y-123.2
X101.45Y-42.9
X101.6Y-94.8
X102.Y-74.3
X102.025Y-88.7
X102.2Y-101.6
X102.2Y-104.2
X102.3Y-123.625
X102.55Y-114.425
X102.6Y-62.95
X102.75Y-115.7
X103.125Y-59.55
X103.4Y-44.25
X103.8Y-119.5
X104.3Y-49.
X104.4Y-96.2
X104.4Y-103.4
X104.45Y-98.8
X104.45Y-101.4
X104.5Y-71.3
X104.5Y-115.
X104.85Y-117.5
X104.875Y-123.625
X105.15Y-44.25
X105.325Y-85.2
X105.337Y-83.325
X105.337Y-87.325
X105.337Y-89.737
X105.375Y-81.725
X105.4Y-64.9
X105.525Y-68.4
X105.65Y-110.15
X105.8Y-93.9
X105.8Y-96.3
X105.8Y-118.5
X106.075Y-49.3
X106.275Y-115.45
X106.4Y-103.4
X106.65Y-119.625
X106.707Y-80.233
X106.8Y-97.6
X107.Y-37.63
X107.2Y-100.
X107.2Y-114.6
X107.55Y-81.675
X107.8Y-71.3
X107.8Y-116.55
X108.23Y-78.71
X108.425Y-86.225
X108.425Y-106.775
X108.425Y-110.125
X108.45Y-83.575
X108.6Y-64.6
X108.675Y-93.075
X108.7Y-42.9
X108.7Y-49.35
X108.7Y-68.5
X108.98Y-56.34
X109.72Y-64.58
X109.725Y-81.65
X110.5Y-115.8
X111.1Y-106.775
X111.5Y-69.375
X111.65Y-83.9
X111.7Y-122.1
X111.8Y-81.65
X111.9Y-39.7
X112.Y-116.875
X112.04Y-90.42
X112.05Y-78.71
X112.1Y-119.4
X112.175Y-94.825
X112.25Y-52.9
X112.7Y-74.4
X113.4Y-114.2
X113.7Y-47.57
X113.7Y-106.775
X113.8Y-81.675
X114.1Y-93.9
X114.275Y-86.4
X114.875Y-82.7
X114.9Y-80.575
X114.9Y-84.475
X115.21Y-103.42
X115.9Y-114.2
X115.9Y-118.1
X116.225Y-106.775
X116.3Y-74.4
X117.2Y-103.6
X119.22Y-103.54
X119.675Y-106.775
X119.76Y-100.64
X120.3Y-98.
X121.Y-115.6
X122.41Y-99.35
X124.7Y-113.6
X124.81Y-99.47
X124.87Y-101.97
X124.9Y-116.8
X126.375Y-36.275
X129.56Y-98.67
X129.62Y-96.44
X131.Y-122.55
X132.2Y-122.4
X132.4Y-113.9
X135.9Y-109.4
T2
X46.99Y-52.07
X46.99Y-55.88
X49.53Y-52.07
X49.53Y-55.88
X56.388Y-115.316
X56.388Y-117.856
X56.388Y-120.142
X56.388Y-122.682
T3
X90.Y-86.12
X90.Y-88.66
X90.Y-91.2
X92.54Y-84.85
X92.54Y-87.39
X92.54Y-89.93
T4
X48.2Y-106.11
X48.2Y-108.61
X56.425Y-54.475
X58.425Y-54.475
X71.14Y-118.26
X71.14Y-121.76
X79.25Y-107.75
X79.84Y-118.26
X79.84Y-121.76
X81.79Y-107.75
X83.92Y-96.25
X84.07Y-71.99
X84.07Y-74.49
X84.33Y-107.75
X84.925Y-36.1
X86.46Y-96.25
X87.425Y-36.1
X87.68Y-64.9
X88.Y-112.65
X89.Y-96.25
X89.68Y-64.9
X91.5Y-112.65
X95.45Y-50.375
X97.45Y-50.375
X98.05Y-109.925
X102.93Y-109.925
X103.648Y-35.306
X105.648Y-35.306
X106.375Y-74.375
X108.375Y-74.375
X118.2Y-35.2
X120.7Y-35.2
X128.6Y-53.225
X128.6Y-55.225
X129.Y-106.5
X131.Y-106.5
X136.85Y-99.55
X141.85Y-99.55
T5
X48.19Y-113.07
X48.19Y-115.61
T6
X86.Y-120.
X86.Y-122.54
X88.54Y-120.
X88.54Y-122.54
X91.08Y-120.
X91.08Y-122.54
X97.05Y-98.8
X99.59Y-98.8
X102.13Y-98.8
X108.735Y-96.76
X110.005Y-99.3
X110.83Y-110.175
X113.37Y-110.175
X113.755Y-96.76
X114.06Y-122.1
X115.025Y-99.3
X115.91Y-110.175
X116.6Y-122.1
X118.45Y-110.175
X120.904Y-79.248
X120.904Y-89.408
X120.904Y-91.948
X128.524Y-79.248
X128.524Y-89.408
X128.524Y-91.948
T7
X55.372Y-39.878
X55.372Y-50.038
X60.015Y-59.45
X61.5Y-97.
X61.5Y-107.16
X61.84Y-38.8
X61.85Y-41.8
X70.175Y-59.45
X72.Y-38.8
X72.01Y-41.8
X88.94Y-74.03
X89.09Y-102.45
X99.1Y-74.03
X99.25Y-102.45
X118.475Y-64.04
X118.475Y-74.2
X121.25Y-62.
X121.25Y-67.45
X121.4Y-75.7
X121.6Y-41.04
X121.6Y-51.2
X131.41Y-67.45
X131.56Y-75.7
X131.66Y-62.
X132.667Y-85.598
X132.667Y-88.097
T8
X61.15Y-113.55
X71.31Y-113.55
T10
X136.931Y-80.498
X136.931Y-90.696
T11
X48.8Y-120.45
X49.Y-34.
X140.6Y-119.8
X141.Y-37.
T5
X136.1Y-42.G85X136.8Y-42.
G05
X136.1Y-44.5G85X136.8Y-44.5
G05
X136.1Y-49.5G85X136.8Y-49.5
G05
X136.1Y-52.G85X136.8Y-52.
G05
X136.1Y-55.05G85X136.8Y-55.05
G05
X136.1Y-57.55G85X136.8Y-57.55
G05
X136.1Y-62.55G85X136.8Y-62.55
G05
X136.1Y-65.05G85X136.8Y-65.05
G05
X141.45Y-47.35G85X141.45Y-46.65
G05
X141.45Y-60.4G85X141.45Y-59.7
G05
T7
X133.8Y-71.999G85X133.8Y-70.001
G05
X137.799Y-75.699G85X135.8Y-75.699
G05
X139.799Y-71.999G85X139.799Y-70.001
G05
T9
X136.45Y-47.G85X136.45Y-47.
G05
X136.45Y-60.05G85X136.45Y-60.05
G05
X141.45Y-42.G85X141.45Y-42.
G05
X141.45Y-52.G85X141.45Y-52.
G05
X141.45Y-55.05G85X141.45Y-55.05
G05
X141.45Y-65.05G85X141.45Y-65.05
G05
X143.95Y-42.G85X143.95Y-42.
G05
X143.95Y-52.G85X143.95Y-52.
G05
X143.95Y-55.05G85X143.95Y-55.05
G05
X143.95Y-65.05G85X143.95Y-65.05
G05
T0
M30
