G04 #@! TF.FileFunction,Soldermask,Bot*
%FSLAX46Y46*%
G04 Gerber Fmt 4.6, Leading zero omitted, Abs format (unit mm)*
G04 Created by KiCad (PCBNEW 4.0.3+e1-6302~38~ubuntu14.04.1-stable) date Wed Jul 12 07:56:50 2017*
%MOMM*%
%LPD*%
G01*
G04 APERTURE LIST*
%ADD10C,0.100000*%
%ADD11C,2.000000*%
%ADD12R,2.300000X0.500000*%
%ADD13R,2.500000X2.000000*%
%ADD14C,0.900000*%
%ADD15R,1.300000X1.300000*%
%ADD16C,1.300000*%
%ADD17O,1.600000X2.500000*%
%ADD18O,1.200000X1.200000*%
%ADD19O,2.500000X1.600000*%
%ADD20C,1.998980*%
%ADD21C,5.700000*%
%ADD22R,3.500120X3.500120*%
%ADD23R,1.600000X1.600000*%
%ADD24C,1.500000*%
%ADD25R,1.700000X1.700000*%
%ADD26O,1.700000X1.700000*%
%ADD27R,1.800000X1.800000*%
%ADD28C,1.800000*%
%ADD29R,0.650000X1.560000*%
%ADD30O,2.300000X1.600000*%
%ADD31O,5.001260X3.500120*%
%ADD32C,1.600200*%
%ADD33O,5.000000X5.000000*%
%ADD34O,1.800000X1.800000*%
%ADD35R,2.150000X5.500000*%
%ADD36R,1.600000X3.500000*%
%ADD37C,1.524000*%
%ADD38C,1.440000*%
%ADD39C,1.520000*%
%ADD40R,1.520000X1.520000*%
%ADD41C,1.600000*%
%ADD42C,1.400000*%
%ADD43O,1.400000X1.400000*%
%ADD44R,3.000000X7.500000*%
%ADD45R,2.200000X2.200000*%
%ADD46O,2.200000X2.200000*%
G04 APERTURE END LIST*
D10*
D11*
X115025000Y-99300000D03*
X113755000Y-96760000D03*
X110005000Y-99300000D03*
X108735000Y-96760000D03*
D12*
X137750000Y-109400000D03*
X137750000Y-110200000D03*
X137750000Y-111000000D03*
X137750000Y-111800000D03*
X137750000Y-112600000D03*
D13*
X137850000Y-106550000D03*
X143350000Y-106550000D03*
X137850000Y-115450000D03*
X143350000Y-115450000D03*
D14*
X140350000Y-108800000D03*
X140350000Y-113200000D03*
D15*
X131000000Y-106500000D03*
D16*
X129000000Y-106500000D03*
D15*
X84925000Y-36100000D03*
D16*
X87425000Y-36100000D03*
D15*
X48200000Y-106110000D03*
D16*
X48200000Y-108610000D03*
D17*
X141450000Y-60050000D03*
D18*
X136450000Y-60050000D03*
D19*
X136450000Y-55050000D03*
X136450000Y-57550000D03*
X136450000Y-62550000D03*
X136450000Y-65050000D03*
D18*
X141450000Y-55050000D03*
X141450000Y-65050000D03*
X143950000Y-55050000D03*
X143950000Y-65050000D03*
D20*
X121250000Y-62000000D03*
X131660000Y-62000000D03*
D15*
X120700000Y-35200000D03*
D16*
X118200000Y-35200000D03*
D17*
X141450000Y-47000000D03*
D18*
X136450000Y-47000000D03*
D19*
X136450000Y-42000000D03*
X136450000Y-44500000D03*
X136450000Y-49500000D03*
X136450000Y-52000000D03*
D18*
X141450000Y-42000000D03*
X141450000Y-52000000D03*
X143950000Y-42000000D03*
X143950000Y-52000000D03*
D20*
X121600000Y-51200000D03*
X121600000Y-41040000D03*
X121250000Y-67450000D03*
X131410000Y-67450000D03*
X99100000Y-74030000D03*
X88940000Y-74030000D03*
X61850000Y-41800000D03*
X72010000Y-41800000D03*
X72000000Y-38800000D03*
X61840000Y-38800000D03*
X118475000Y-74200000D03*
X118475000Y-64040000D03*
D15*
X58425000Y-54475000D03*
D16*
X56425000Y-54475000D03*
D21*
X140600000Y-119800000D03*
X48800000Y-120450000D03*
X49000000Y-34000000D03*
X141000000Y-37000000D03*
D15*
X136850000Y-99550000D03*
D16*
X141850000Y-99550000D03*
D22*
X133799860Y-71000000D03*
X139799340Y-71000000D03*
X136799600Y-75699000D03*
D23*
X73440000Y-65050000D03*
X73440000Y-67350000D03*
X64890000Y-65050000D03*
X64890000Y-67350000D03*
D20*
X70175000Y-59450000D03*
X60015000Y-59450000D03*
D24*
X98050000Y-109925000D03*
X102930000Y-109925000D03*
D25*
X86000000Y-120000000D03*
D26*
X86000000Y-122540000D03*
X88540000Y-120000000D03*
X88540000Y-122540000D03*
X91080000Y-120000000D03*
X91080000Y-122540000D03*
D23*
X50800000Y-65050000D03*
X50800000Y-67350000D03*
D20*
X61500000Y-97000000D03*
X61500000Y-107160000D03*
D27*
X48190000Y-113070000D03*
D28*
X48190000Y-115610000D03*
D25*
X116600000Y-122100000D03*
D26*
X114060000Y-122100000D03*
D25*
X118450000Y-110175000D03*
D26*
X115910000Y-110175000D03*
X113370000Y-110175000D03*
X110830000Y-110175000D03*
D29*
X132350000Y-118130000D03*
X131400000Y-118130000D03*
X130450000Y-118130000D03*
X130450000Y-115430000D03*
X132350000Y-115430000D03*
D30*
X120904000Y-79248000D03*
X120904000Y-89408000D03*
X128524000Y-79248000D03*
X128524000Y-89408000D03*
X120904000Y-91948000D03*
X128524000Y-91948000D03*
D31*
X136931400Y-90695780D03*
X136931400Y-80497680D03*
D32*
X132666740Y-85598000D03*
X132666740Y-88097360D03*
D33*
X99590000Y-82140000D03*
D27*
X97050000Y-98800000D03*
D34*
X99590000Y-98800000D03*
X102130000Y-98800000D03*
D35*
X127635000Y-96900000D03*
X131485000Y-96900000D03*
D36*
X122410000Y-96650000D03*
X122410000Y-102050000D03*
D20*
X99250000Y-102450000D03*
X89090000Y-102450000D03*
D37*
X90000000Y-91200000D03*
X92540000Y-89930000D03*
X90000000Y-88660000D03*
X92540000Y-87390000D03*
X90000000Y-86120000D03*
X92540000Y-84850000D03*
D38*
X89000000Y-96250000D03*
X86460000Y-96250000D03*
X83920000Y-96250000D03*
D39*
X81790000Y-107750000D03*
X84330000Y-107750000D03*
D40*
X79250000Y-107750000D03*
D20*
X121400000Y-75700000D03*
X131560000Y-75700000D03*
D23*
X56340000Y-65050000D03*
X56340000Y-67350000D03*
D15*
X84070000Y-74490000D03*
D16*
X84070000Y-71990000D03*
D20*
X55372000Y-39878000D03*
X55372000Y-50038000D03*
D23*
X79840000Y-118260000D03*
D41*
X79840000Y-121760000D03*
D23*
X91500000Y-112650000D03*
D41*
X88000000Y-112650000D03*
D23*
X71140000Y-118260000D03*
D41*
X71140000Y-121760000D03*
D42*
X56388000Y-122682000D03*
D43*
X56388000Y-120142000D03*
D42*
X56388000Y-117856000D03*
D43*
X56388000Y-115316000D03*
D44*
X59760000Y-120020000D03*
X64760000Y-120020000D03*
D45*
X61150000Y-113550000D03*
D46*
X71310000Y-113550000D03*
D42*
X46990000Y-52070000D03*
D43*
X49530000Y-52070000D03*
D42*
X46990000Y-55880000D03*
D43*
X49530000Y-55880000D03*
D23*
X51400000Y-87550000D03*
X51400000Y-85250000D03*
X56000000Y-87550000D03*
X56000000Y-85250000D03*
X61500000Y-87550000D03*
X61500000Y-85250000D03*
X73040000Y-87800000D03*
X73040000Y-85500000D03*
D15*
X106375000Y-74375000D03*
D16*
X108375000Y-74375000D03*
D15*
X128600000Y-53225000D03*
D16*
X128600000Y-55225000D03*
D15*
X95450000Y-50375000D03*
D16*
X97450000Y-50375000D03*
D15*
X89680000Y-64900000D03*
D16*
X87680000Y-64900000D03*
D15*
X105648000Y-35306000D03*
D16*
X103648000Y-35306000D03*
M02*
