G04 #@! TF.FileFunction,Legend,Bot*
%FSLAX46Y46*%
G04 Gerber Fmt 4.6, Leading zero omitted, Abs format (unit mm)*
G04 Created by KiCad (PCBNEW 4.0.3+e1-6302~38~ubuntu14.04.1-stable) date Wed Jul 12 07:56:50 2017*
%MOMM*%
%LPD*%
G01*
G04 APERTURE LIST*
%ADD10C,0.100000*%
%ADD11C,0.150000*%
%ADD12C,0.120000*%
G04 APERTURE END LIST*
D10*
D11*
X117825000Y-77980000D02*
X105325000Y-77980000D01*
X105325000Y-77980000D02*
X105325000Y-100460000D01*
X105325000Y-100460000D02*
X118835000Y-100460000D01*
X118835000Y-100460000D02*
X118835000Y-77980000D01*
D12*
X144800000Y-107150000D02*
X144800000Y-114850000D01*
X145800000Y-107150000D02*
X145800000Y-114850000D01*
X145800000Y-114850000D02*
X136600000Y-114850000D01*
X136600000Y-114850000D02*
X136600000Y-107150000D01*
X136600000Y-107150000D02*
X145800000Y-107150000D01*
D11*
X129925000Y-104001000D02*
X129925000Y-108999000D01*
X129785000Y-104009000D02*
X129785000Y-106346000D01*
X129785000Y-106654000D02*
X129785000Y-108991000D01*
X129645000Y-104025000D02*
X129645000Y-106027000D01*
X129645000Y-106973000D02*
X129645000Y-108975000D01*
X129505000Y-104049000D02*
X129505000Y-105880000D01*
X129505000Y-107120000D02*
X129505000Y-108951000D01*
X129365000Y-104082000D02*
X129365000Y-105788000D01*
X129365000Y-107212000D02*
X129365000Y-108918000D01*
X129225000Y-104123000D02*
X129225000Y-105732000D01*
X129225000Y-107268000D02*
X129225000Y-108877000D01*
X129085000Y-104173000D02*
X129085000Y-105705000D01*
X129085000Y-107295000D02*
X129085000Y-108827000D01*
X128945000Y-104234000D02*
X128945000Y-105702000D01*
X128945000Y-107298000D02*
X128945000Y-108766000D01*
X128805000Y-104304000D02*
X128805000Y-105724000D01*
X128805000Y-107276000D02*
X128805000Y-108696000D01*
X128665000Y-104386000D02*
X128665000Y-105774000D01*
X128665000Y-107226000D02*
X128665000Y-108614000D01*
X128525000Y-104481000D02*
X128525000Y-105856000D01*
X128525000Y-107144000D02*
X128525000Y-108519000D01*
X128385000Y-104592000D02*
X128385000Y-105988000D01*
X128385000Y-107012000D02*
X128385000Y-108408000D01*
X128245000Y-104720000D02*
X128245000Y-106235000D01*
X128245000Y-106765000D02*
X128245000Y-108280000D01*
X128105000Y-104869000D02*
X128105000Y-108131000D01*
X127965000Y-105048000D02*
X127965000Y-107952000D01*
X127825000Y-105267000D02*
X127825000Y-107733000D01*
X127685000Y-105556000D02*
X127685000Y-107444000D01*
X127545000Y-106028000D02*
X127545000Y-106972000D01*
X129800000Y-106500000D02*
G75*
G03X129800000Y-106500000I-800000J0D01*
G01*
X132537500Y-106500000D02*
G75*
G03X132537500Y-106500000I-2537500J0D01*
G01*
X86250000Y-38599000D02*
X86250000Y-33601000D01*
X86390000Y-38591000D02*
X86390000Y-33609000D01*
X86530000Y-38575000D02*
X86530000Y-36195000D01*
X86530000Y-36005000D02*
X86530000Y-33625000D01*
X86670000Y-38551000D02*
X86670000Y-36590000D01*
X86670000Y-35610000D02*
X86670000Y-33649000D01*
X86810000Y-38518000D02*
X86810000Y-36757000D01*
X86810000Y-35443000D02*
X86810000Y-33682000D01*
X86950000Y-38477000D02*
X86950000Y-36864000D01*
X86950000Y-35336000D02*
X86950000Y-33723000D01*
X87090000Y-38427000D02*
X87090000Y-36935000D01*
X87090000Y-35265000D02*
X87090000Y-33773000D01*
X87230000Y-38366000D02*
X87230000Y-36979000D01*
X87230000Y-35221000D02*
X87230000Y-33834000D01*
X87370000Y-38296000D02*
X87370000Y-36998000D01*
X87370000Y-35202000D02*
X87370000Y-33904000D01*
X87510000Y-38214000D02*
X87510000Y-36996000D01*
X87510000Y-35204000D02*
X87510000Y-33986000D01*
X87650000Y-38119000D02*
X87650000Y-36971000D01*
X87650000Y-35229000D02*
X87650000Y-34081000D01*
X87790000Y-38008000D02*
X87790000Y-36923000D01*
X87790000Y-35277000D02*
X87790000Y-34192000D01*
X87930000Y-37880000D02*
X87930000Y-36845000D01*
X87930000Y-35355000D02*
X87930000Y-34320000D01*
X88070000Y-37731000D02*
X88070000Y-36728000D01*
X88070000Y-35472000D02*
X88070000Y-34469000D01*
X88210000Y-37552000D02*
X88210000Y-36540000D01*
X88210000Y-35660000D02*
X88210000Y-34648000D01*
X88350000Y-37333000D02*
X88350000Y-34867000D01*
X88490000Y-37044000D02*
X88490000Y-35156000D01*
X88630000Y-36572000D02*
X88630000Y-35628000D01*
X88325000Y-36100000D02*
G75*
G03X88325000Y-36100000I-900000J0D01*
G01*
X88712500Y-36100000D02*
G75*
G03X88712500Y-36100000I-2537500J0D01*
G01*
X45701000Y-107435000D02*
X50699000Y-107435000D01*
X45709000Y-107575000D02*
X50691000Y-107575000D01*
X45725000Y-107715000D02*
X48105000Y-107715000D01*
X48295000Y-107715000D02*
X50675000Y-107715000D01*
X45749000Y-107855000D02*
X47710000Y-107855000D01*
X48690000Y-107855000D02*
X50651000Y-107855000D01*
X45782000Y-107995000D02*
X47543000Y-107995000D01*
X48857000Y-107995000D02*
X50618000Y-107995000D01*
X45823000Y-108135000D02*
X47436000Y-108135000D01*
X48964000Y-108135000D02*
X50577000Y-108135000D01*
X45873000Y-108275000D02*
X47365000Y-108275000D01*
X49035000Y-108275000D02*
X50527000Y-108275000D01*
X45934000Y-108415000D02*
X47321000Y-108415000D01*
X49079000Y-108415000D02*
X50466000Y-108415000D01*
X46004000Y-108555000D02*
X47302000Y-108555000D01*
X49098000Y-108555000D02*
X50396000Y-108555000D01*
X46086000Y-108695000D02*
X47304000Y-108695000D01*
X49096000Y-108695000D02*
X50314000Y-108695000D01*
X46181000Y-108835000D02*
X47329000Y-108835000D01*
X49071000Y-108835000D02*
X50219000Y-108835000D01*
X46292000Y-108975000D02*
X47377000Y-108975000D01*
X49023000Y-108975000D02*
X50108000Y-108975000D01*
X46420000Y-109115000D02*
X47455000Y-109115000D01*
X48945000Y-109115000D02*
X49980000Y-109115000D01*
X46569000Y-109255000D02*
X47572000Y-109255000D01*
X48828000Y-109255000D02*
X49831000Y-109255000D01*
X46748000Y-109395000D02*
X47760000Y-109395000D01*
X48640000Y-109395000D02*
X49652000Y-109395000D01*
X46967000Y-109535000D02*
X49433000Y-109535000D01*
X47256000Y-109675000D02*
X49144000Y-109675000D01*
X47728000Y-109815000D02*
X48672000Y-109815000D01*
X49100000Y-108610000D02*
G75*
G03X49100000Y-108610000I-900000J0D01*
G01*
X50737500Y-107360000D02*
G75*
G03X50737500Y-107360000I-2537500J0D01*
G01*
X144950000Y-66050000D02*
X133950000Y-66050000D01*
X144950000Y-54050000D02*
X133950000Y-54050000D01*
X144950000Y-66050000D02*
X144950000Y-54050000D01*
X124040000Y-63270000D02*
X129120000Y-63270000D01*
X129120000Y-63270000D02*
X129120000Y-60730000D01*
X129120000Y-60730000D02*
X124040000Y-60730000D01*
X124040000Y-60730000D02*
X124040000Y-63270000D01*
X124040000Y-62000000D02*
X122770000Y-62000000D01*
X129120000Y-62000000D02*
X130390000Y-62000000D01*
X119375000Y-32701000D02*
X119375000Y-37699000D01*
X119235000Y-32709000D02*
X119235000Y-37691000D01*
X119095000Y-32725000D02*
X119095000Y-35105000D01*
X119095000Y-35295000D02*
X119095000Y-37675000D01*
X118955000Y-32749000D02*
X118955000Y-34710000D01*
X118955000Y-35690000D02*
X118955000Y-37651000D01*
X118815000Y-32782000D02*
X118815000Y-34543000D01*
X118815000Y-35857000D02*
X118815000Y-37618000D01*
X118675000Y-32823000D02*
X118675000Y-34436000D01*
X118675000Y-35964000D02*
X118675000Y-37577000D01*
X118535000Y-32873000D02*
X118535000Y-34365000D01*
X118535000Y-36035000D02*
X118535000Y-37527000D01*
X118395000Y-32934000D02*
X118395000Y-34321000D01*
X118395000Y-36079000D02*
X118395000Y-37466000D01*
X118255000Y-33004000D02*
X118255000Y-34302000D01*
X118255000Y-36098000D02*
X118255000Y-37396000D01*
X118115000Y-33086000D02*
X118115000Y-34304000D01*
X118115000Y-36096000D02*
X118115000Y-37314000D01*
X117975000Y-33181000D02*
X117975000Y-34329000D01*
X117975000Y-36071000D02*
X117975000Y-37219000D01*
X117835000Y-33292000D02*
X117835000Y-34377000D01*
X117835000Y-36023000D02*
X117835000Y-37108000D01*
X117695000Y-33420000D02*
X117695000Y-34455000D01*
X117695000Y-35945000D02*
X117695000Y-36980000D01*
X117555000Y-33569000D02*
X117555000Y-34572000D01*
X117555000Y-35828000D02*
X117555000Y-36831000D01*
X117415000Y-33748000D02*
X117415000Y-34760000D01*
X117415000Y-35640000D02*
X117415000Y-36652000D01*
X117275000Y-33967000D02*
X117275000Y-36433000D01*
X117135000Y-34256000D02*
X117135000Y-36144000D01*
X116995000Y-34728000D02*
X116995000Y-35672000D01*
X119100000Y-35200000D02*
G75*
G03X119100000Y-35200000I-900000J0D01*
G01*
X121987500Y-35200000D02*
G75*
G03X121987500Y-35200000I-2537500J0D01*
G01*
X144950000Y-53000000D02*
X133950000Y-53000000D01*
X144950000Y-41000000D02*
X133950000Y-41000000D01*
X144950000Y-53000000D02*
X144950000Y-41000000D01*
X122870000Y-48660000D02*
X122870000Y-43580000D01*
X122870000Y-43580000D02*
X120330000Y-43580000D01*
X120330000Y-43580000D02*
X120330000Y-48660000D01*
X120330000Y-48660000D02*
X122870000Y-48660000D01*
X121600000Y-48660000D02*
X121600000Y-49930000D01*
X121600000Y-43580000D02*
X121600000Y-42310000D01*
X123790000Y-68720000D02*
X128870000Y-68720000D01*
X128870000Y-68720000D02*
X128870000Y-66180000D01*
X128870000Y-66180000D02*
X123790000Y-66180000D01*
X123790000Y-66180000D02*
X123790000Y-68720000D01*
X123790000Y-67450000D02*
X122520000Y-67450000D01*
X128870000Y-67450000D02*
X130140000Y-67450000D01*
X96560000Y-72760000D02*
X91480000Y-72760000D01*
X91480000Y-72760000D02*
X91480000Y-75300000D01*
X91480000Y-75300000D02*
X96560000Y-75300000D01*
X96560000Y-75300000D02*
X96560000Y-72760000D01*
X96560000Y-74030000D02*
X97830000Y-74030000D01*
X91480000Y-74030000D02*
X90210000Y-74030000D01*
X64390000Y-43070000D02*
X69470000Y-43070000D01*
X69470000Y-43070000D02*
X69470000Y-40530000D01*
X69470000Y-40530000D02*
X64390000Y-40530000D01*
X64390000Y-40530000D02*
X64390000Y-43070000D01*
X64390000Y-41800000D02*
X63120000Y-41800000D01*
X69470000Y-41800000D02*
X70740000Y-41800000D01*
X69460000Y-37530000D02*
X64380000Y-37530000D01*
X64380000Y-37530000D02*
X64380000Y-40070000D01*
X64380000Y-40070000D02*
X69460000Y-40070000D01*
X69460000Y-40070000D02*
X69460000Y-37530000D01*
X69460000Y-38800000D02*
X70730000Y-38800000D01*
X64380000Y-38800000D02*
X63110000Y-38800000D01*
X119745000Y-71660000D02*
X119745000Y-66580000D01*
X119745000Y-66580000D02*
X117205000Y-66580000D01*
X117205000Y-66580000D02*
X117205000Y-71660000D01*
X117205000Y-71660000D02*
X119745000Y-71660000D01*
X118475000Y-71660000D02*
X118475000Y-72930000D01*
X118475000Y-66580000D02*
X118475000Y-65310000D01*
X57350000Y-51976000D02*
X57350000Y-56974000D01*
X57210000Y-51984000D02*
X57210000Y-54321000D01*
X57210000Y-54629000D02*
X57210000Y-56966000D01*
X57070000Y-52000000D02*
X57070000Y-54002000D01*
X57070000Y-54948000D02*
X57070000Y-56950000D01*
X56930000Y-52024000D02*
X56930000Y-53855000D01*
X56930000Y-55095000D02*
X56930000Y-56926000D01*
X56790000Y-52057000D02*
X56790000Y-53763000D01*
X56790000Y-55187000D02*
X56790000Y-56893000D01*
X56650000Y-52098000D02*
X56650000Y-53707000D01*
X56650000Y-55243000D02*
X56650000Y-56852000D01*
X56510000Y-52148000D02*
X56510000Y-53680000D01*
X56510000Y-55270000D02*
X56510000Y-56802000D01*
X56370000Y-52209000D02*
X56370000Y-53677000D01*
X56370000Y-55273000D02*
X56370000Y-56741000D01*
X56230000Y-52279000D02*
X56230000Y-53699000D01*
X56230000Y-55251000D02*
X56230000Y-56671000D01*
X56090000Y-52361000D02*
X56090000Y-53749000D01*
X56090000Y-55201000D02*
X56090000Y-56589000D01*
X55950000Y-52456000D02*
X55950000Y-53831000D01*
X55950000Y-55119000D02*
X55950000Y-56494000D01*
X55810000Y-52567000D02*
X55810000Y-53963000D01*
X55810000Y-54987000D02*
X55810000Y-56383000D01*
X55670000Y-52695000D02*
X55670000Y-54210000D01*
X55670000Y-54740000D02*
X55670000Y-56255000D01*
X55530000Y-52844000D02*
X55530000Y-56106000D01*
X55390000Y-53023000D02*
X55390000Y-55927000D01*
X55250000Y-53242000D02*
X55250000Y-55708000D01*
X55110000Y-53531000D02*
X55110000Y-55419000D01*
X54970000Y-54003000D02*
X54970000Y-54947000D01*
X57225000Y-54475000D02*
G75*
G03X57225000Y-54475000I-800000J0D01*
G01*
X59962500Y-54475000D02*
G75*
G03X59962500Y-54475000I-2537500J0D01*
G01*
X139425000Y-104549000D02*
X139425000Y-94551000D01*
X139565000Y-104545000D02*
X139565000Y-94555000D01*
X139705000Y-104537000D02*
X139705000Y-94563000D01*
X139845000Y-104525000D02*
X139845000Y-94575000D01*
X139985000Y-104510000D02*
X139985000Y-94590000D01*
X140125000Y-104490000D02*
X140125000Y-94610000D01*
X140265000Y-104466000D02*
X140265000Y-94634000D01*
X140405000Y-104437000D02*
X140405000Y-94663000D01*
X140545000Y-104405000D02*
X140545000Y-94695000D01*
X140685000Y-104368000D02*
X140685000Y-94732000D01*
X140825000Y-104327000D02*
X140825000Y-94773000D01*
X140965000Y-104282000D02*
X140965000Y-100016000D01*
X140965000Y-99084000D02*
X140965000Y-94818000D01*
X141105000Y-104232000D02*
X141105000Y-100217000D01*
X141105000Y-98883000D02*
X141105000Y-94868000D01*
X141245000Y-104177000D02*
X141245000Y-100346000D01*
X141245000Y-98754000D02*
X141245000Y-94923000D01*
X141385000Y-104117000D02*
X141385000Y-100435000D01*
X141385000Y-98665000D02*
X141385000Y-94983000D01*
X141525000Y-104052000D02*
X141525000Y-100496000D01*
X141525000Y-98604000D02*
X141525000Y-95048000D01*
X141665000Y-103982000D02*
X141665000Y-100533000D01*
X141665000Y-98567000D02*
X141665000Y-95118000D01*
X141805000Y-103906000D02*
X141805000Y-100549000D01*
X141805000Y-98551000D02*
X141805000Y-95194000D01*
X141945000Y-103824000D02*
X141945000Y-100545000D01*
X141945000Y-98555000D02*
X141945000Y-95276000D01*
X142085000Y-103736000D02*
X142085000Y-100522000D01*
X142085000Y-98578000D02*
X142085000Y-95364000D01*
X142225000Y-103641000D02*
X142225000Y-100477000D01*
X142225000Y-98623000D02*
X142225000Y-95459000D01*
X142365000Y-103539000D02*
X142365000Y-100407000D01*
X142365000Y-98693000D02*
X142365000Y-95561000D01*
X142505000Y-103429000D02*
X142505000Y-100306000D01*
X142505000Y-98794000D02*
X142505000Y-95671000D01*
X142645000Y-103311000D02*
X142645000Y-100157000D01*
X142645000Y-98943000D02*
X142645000Y-95789000D01*
X142785000Y-103183000D02*
X142785000Y-99905000D01*
X142785000Y-99195000D02*
X142785000Y-95917000D01*
X142925000Y-103046000D02*
X142925000Y-96054000D01*
X143065000Y-102896000D02*
X143065000Y-96204000D01*
X143205000Y-102734000D02*
X143205000Y-96366000D01*
X143345000Y-102557000D02*
X143345000Y-96543000D01*
X143485000Y-102361000D02*
X143485000Y-96739000D01*
X143625000Y-102143000D02*
X143625000Y-96957000D01*
X143765000Y-101897000D02*
X143765000Y-97203000D01*
X143905000Y-101612000D02*
X143905000Y-97488000D01*
X144045000Y-101270000D02*
X144045000Y-97830000D01*
X144185000Y-100824000D02*
X144185000Y-98276000D01*
X144325000Y-100049000D02*
X144325000Y-99051000D01*
X142850000Y-99550000D02*
G75*
G03X142850000Y-99550000I-1000000J0D01*
G01*
X144387500Y-99550000D02*
G75*
G03X144387500Y-99550000I-5037500J0D01*
G01*
X144000500Y-66499120D02*
X144000500Y-75500880D01*
X147500620Y-66499120D02*
X147500620Y-75500880D01*
X147500620Y-75500880D02*
X132999760Y-75500880D01*
X132999760Y-75500880D02*
X132999760Y-66499120D01*
X132999760Y-66499120D02*
X147500620Y-66499120D01*
X74040000Y-66450000D02*
X74040000Y-65950000D01*
X72840000Y-65950000D02*
X72840000Y-66450000D01*
X65490000Y-66450000D02*
X65490000Y-65950000D01*
X64290000Y-65950000D02*
X64290000Y-66450000D01*
X67635000Y-58180000D02*
X62555000Y-58180000D01*
X62555000Y-58180000D02*
X62555000Y-60720000D01*
X62555000Y-60720000D02*
X67635000Y-60720000D01*
X67635000Y-60720000D02*
X67635000Y-58180000D01*
X67635000Y-59450000D02*
X68905000Y-59450000D01*
X62555000Y-59450000D02*
X61285000Y-59450000D01*
D12*
X97365000Y-112450000D02*
X103615000Y-112450000D01*
X97365000Y-107400000D02*
X103615000Y-107400000D01*
X97365000Y-107400000D02*
G75*
G03X97365000Y-112450000I0J-2525000D01*
G01*
X103615000Y-107400000D02*
G75*
G02X103615000Y-112450000I0J-2525000D01*
G01*
X87270000Y-118670000D02*
X92410000Y-118670000D01*
X92410000Y-118670000D02*
X92410000Y-123870000D01*
X92410000Y-123870000D02*
X84670000Y-123870000D01*
X84670000Y-123870000D02*
X84670000Y-121270000D01*
X84670000Y-121270000D02*
X87270000Y-121270000D01*
X87270000Y-121270000D02*
X87270000Y-118670000D01*
X86000000Y-118670000D02*
X84670000Y-118670000D01*
X84670000Y-118670000D02*
X84670000Y-120000000D01*
D11*
X51400000Y-66450000D02*
X51400000Y-65950000D01*
X50200000Y-65950000D02*
X50200000Y-66450000D01*
X60230000Y-99540000D02*
X60230000Y-104620000D01*
X60230000Y-104620000D02*
X62770000Y-104620000D01*
X62770000Y-104620000D02*
X62770000Y-99540000D01*
X62770000Y-99540000D02*
X60230000Y-99540000D01*
X61500000Y-99540000D02*
X61500000Y-98270000D01*
X61500000Y-104620000D02*
X61500000Y-105890000D01*
D12*
X48190462Y-117330000D02*
G75*
G02X46645170Y-111780000I-462J2990000D01*
G01*
X48189538Y-117330000D02*
G75*
G03X49734830Y-111780000I462J2990000D01*
G01*
X50690000Y-114340000D02*
G75*
G03X50690000Y-114340000I-2500000J0D01*
G01*
X46645000Y-111780000D02*
X49735000Y-111780000D01*
X115330000Y-123430000D02*
X112730000Y-123430000D01*
X112730000Y-123430000D02*
X112730000Y-120770000D01*
X112730000Y-120770000D02*
X115330000Y-120770000D01*
X115330000Y-120770000D02*
X115330000Y-123430000D01*
X116600000Y-123430000D02*
X117930000Y-123430000D01*
X117930000Y-123430000D02*
X117930000Y-122100000D01*
X117180000Y-111505000D02*
X109500000Y-111505000D01*
X109500000Y-111505000D02*
X109500000Y-108845000D01*
X109500000Y-108845000D02*
X117180000Y-108845000D01*
X117180000Y-108845000D02*
X117180000Y-111505000D01*
X118450000Y-111505000D02*
X119780000Y-111505000D01*
X119780000Y-111505000D02*
X119780000Y-110175000D01*
X129790000Y-117680000D02*
X129790000Y-115880000D01*
X133010000Y-115880000D02*
X133010000Y-118330000D01*
X119634000Y-78232000D02*
X119634000Y-92964000D01*
X119634000Y-92964000D02*
X129794000Y-92964000D01*
X129794000Y-92964000D02*
X129794000Y-78232000D01*
X129794000Y-78232000D02*
X119634000Y-78232000D01*
X124308000Y-89408000D02*
X124943000Y-90424000D01*
X126492000Y-89281000D02*
X126492000Y-89916000D01*
X126492000Y-89916000D02*
X125832000Y-89916000D01*
X123292000Y-89281000D02*
X123292000Y-89916000D01*
X123292000Y-89916000D02*
X123927000Y-89916000D01*
X123927000Y-89408000D02*
X125832000Y-89408000D01*
X125832000Y-89408000D02*
X125832000Y-90424000D01*
X125832000Y-90424000D02*
X123927000Y-90424000D01*
X123927000Y-89408000D02*
X123927000Y-90424000D01*
D11*
X149468840Y-91097100D02*
X150268940Y-80098900D01*
X148668740Y-91097100D02*
X149468840Y-80098900D01*
X147868640Y-91097100D02*
X148668740Y-80098900D01*
X147068540Y-91097100D02*
X147868640Y-80098900D01*
X146268440Y-91097100D02*
X147068540Y-80098900D01*
X145468340Y-91097100D02*
X146268440Y-80098900D01*
X161368740Y-85598000D02*
G75*
G03X161368740Y-85598000I-1000760J0D01*
G01*
X152366980Y-80797400D02*
X164368480Y-80797400D01*
X164368480Y-80797400D02*
X164368480Y-90398600D01*
X164368480Y-90398600D02*
X152366980Y-90398600D01*
X144868900Y-80098900D02*
X152366980Y-80098900D01*
X152366980Y-80098900D02*
X152366980Y-91097100D01*
X152366980Y-91097100D02*
X144868900Y-91097100D01*
X130467100Y-93398340D02*
X130467100Y-77797660D01*
X130467100Y-77797660D02*
X144868900Y-77797660D01*
X144868900Y-77797660D02*
X144868900Y-93398340D01*
X144868900Y-93398340D02*
X130467100Y-93398340D01*
D12*
X94470000Y-95110000D02*
X104710000Y-95110000D01*
X94470000Y-85620000D02*
X104710000Y-85620000D01*
X94470000Y-95110000D02*
X94470000Y-85620000D01*
X104710000Y-95110000D02*
X104710000Y-85620000D01*
X94470000Y-79220000D02*
X95670000Y-79220000D01*
X96869000Y-79220000D02*
X98070000Y-79220000D01*
X99270000Y-79220000D02*
X100470000Y-79220000D01*
X101670000Y-79220000D02*
X102870000Y-79220000D01*
X104070000Y-79220000D02*
X104710000Y-79220000D01*
X94470000Y-85380000D02*
X94470000Y-84180000D01*
X94470000Y-82980000D02*
X94470000Y-81780000D01*
X94470000Y-80580000D02*
X94470000Y-79380000D01*
X104710000Y-85380000D02*
X104710000Y-84180000D01*
X104710000Y-82980000D02*
X104710000Y-81780000D01*
X104710000Y-80580000D02*
X104710000Y-79380000D01*
X97050000Y-97750000D02*
X97050000Y-95110000D01*
X99590000Y-97734000D02*
X99590000Y-95110000D01*
X102130000Y-97734000D02*
X102130000Y-95110000D01*
D11*
X128810000Y-94300000D02*
X130310000Y-94300000D01*
X128810000Y-99500000D02*
X130310000Y-99500000D01*
D12*
X124950000Y-96050000D02*
X123530000Y-96050000D01*
X125710000Y-102650000D02*
X123530000Y-102650000D01*
X119110000Y-102650000D02*
X121290000Y-102650000D01*
X119870000Y-96050000D02*
X121290000Y-96050000D01*
X125710000Y-102650000D02*
X125710000Y-96810000D01*
X125710000Y-96810000D02*
X124950000Y-96050000D01*
X119870000Y-96050000D02*
X119110000Y-96810000D01*
X119110000Y-96810000D02*
X119110000Y-102650000D01*
D11*
X96710000Y-101180000D02*
X91630000Y-101180000D01*
X91630000Y-101180000D02*
X91630000Y-103720000D01*
X91630000Y-103720000D02*
X96710000Y-103720000D01*
X96710000Y-103720000D02*
X96710000Y-101180000D01*
X96710000Y-102450000D02*
X97980000Y-102450000D01*
X91630000Y-102450000D02*
X90360000Y-102450000D01*
X93870000Y-92000000D02*
X93880000Y-82500000D01*
X93880000Y-82500000D02*
X88840000Y-82500000D01*
X88840000Y-82500000D02*
X88840000Y-93010000D01*
X88840000Y-93010000D02*
X93680000Y-93010000D01*
D12*
X89914691Y-96254296D02*
G75*
G03X89955000Y-93945000I40309J1154296D01*
G01*
X89975121Y-93945948D02*
G75*
G03X88826000Y-95340000I-20121J-1154052D01*
G01*
X81635000Y-98720000D02*
X91285000Y-98720000D01*
X81635000Y-93769000D02*
X91285000Y-93769000D01*
X81635000Y-98720000D02*
X81635000Y-93769000D01*
X91285000Y-98720000D02*
X91285000Y-93769000D01*
X90831000Y-95834000D02*
X89220000Y-94224000D01*
X90691000Y-95975000D02*
X89079000Y-94365000D01*
X79990000Y-105900000D02*
X83590000Y-105900000D01*
X79465816Y-106627205D02*
G75*
G02X79990000Y-105900000I2324184J-1122795D01*
G01*
X79433600Y-108848807D02*
G75*
G03X81790000Y-110350000I2356400J1098807D01*
G01*
X84146400Y-108848807D02*
G75*
G02X81790000Y-110350000I-2356400J1098807D01*
G01*
X84114184Y-106627205D02*
G75*
G03X83590000Y-105900000I-2324184J-1122795D01*
G01*
D11*
X123940000Y-76970000D02*
X129020000Y-76970000D01*
X129020000Y-76970000D02*
X129020000Y-74430000D01*
X129020000Y-74430000D02*
X123940000Y-74430000D01*
X123940000Y-74430000D02*
X123940000Y-76970000D01*
X123940000Y-75700000D02*
X122670000Y-75700000D01*
X129020000Y-75700000D02*
X130290000Y-75700000D01*
X56940000Y-66450000D02*
X56940000Y-65950000D01*
X55740000Y-65950000D02*
X55740000Y-66450000D01*
X86569000Y-73165000D02*
X81571000Y-73165000D01*
X86561000Y-73025000D02*
X81579000Y-73025000D01*
X86545000Y-72885000D02*
X84165000Y-72885000D01*
X83975000Y-72885000D02*
X81595000Y-72885000D01*
X86521000Y-72745000D02*
X84560000Y-72745000D01*
X83580000Y-72745000D02*
X81619000Y-72745000D01*
X86488000Y-72605000D02*
X84727000Y-72605000D01*
X83413000Y-72605000D02*
X81652000Y-72605000D01*
X86447000Y-72465000D02*
X84834000Y-72465000D01*
X83306000Y-72465000D02*
X81693000Y-72465000D01*
X86397000Y-72325000D02*
X84905000Y-72325000D01*
X83235000Y-72325000D02*
X81743000Y-72325000D01*
X86336000Y-72185000D02*
X84949000Y-72185000D01*
X83191000Y-72185000D02*
X81804000Y-72185000D01*
X86266000Y-72045000D02*
X84968000Y-72045000D01*
X83172000Y-72045000D02*
X81874000Y-72045000D01*
X86184000Y-71905000D02*
X84966000Y-71905000D01*
X83174000Y-71905000D02*
X81956000Y-71905000D01*
X86089000Y-71765000D02*
X84941000Y-71765000D01*
X83199000Y-71765000D02*
X82051000Y-71765000D01*
X85978000Y-71625000D02*
X84893000Y-71625000D01*
X83247000Y-71625000D02*
X82162000Y-71625000D01*
X85850000Y-71485000D02*
X84815000Y-71485000D01*
X83325000Y-71485000D02*
X82290000Y-71485000D01*
X85701000Y-71345000D02*
X84698000Y-71345000D01*
X83442000Y-71345000D02*
X82439000Y-71345000D01*
X85522000Y-71205000D02*
X84510000Y-71205000D01*
X83630000Y-71205000D02*
X82618000Y-71205000D01*
X85303000Y-71065000D02*
X82837000Y-71065000D01*
X85014000Y-70925000D02*
X83126000Y-70925000D01*
X84542000Y-70785000D02*
X83598000Y-70785000D01*
X84970000Y-71990000D02*
G75*
G03X84970000Y-71990000I-900000J0D01*
G01*
X86607500Y-73240000D02*
G75*
G03X86607500Y-73240000I-2537500J0D01*
G01*
X54102000Y-42418000D02*
X54102000Y-47498000D01*
X54102000Y-47498000D02*
X56642000Y-47498000D01*
X56642000Y-47498000D02*
X56642000Y-42418000D01*
X56642000Y-42418000D02*
X54102000Y-42418000D01*
X55372000Y-42418000D02*
X55372000Y-41148000D01*
X55372000Y-47498000D02*
X55372000Y-48768000D01*
D12*
X75790000Y-120010000D02*
X83890000Y-120010000D01*
X75790000Y-120050000D02*
X83890000Y-120050000D01*
X75790000Y-120090000D02*
X83890000Y-120090000D01*
X75791000Y-120130000D02*
X83889000Y-120130000D01*
X75793000Y-120170000D02*
X83887000Y-120170000D01*
X75794000Y-120210000D02*
X83886000Y-120210000D01*
X75797000Y-120250000D02*
X83883000Y-120250000D01*
X75799000Y-120290000D02*
X83881000Y-120290000D01*
X75802000Y-120330000D02*
X83878000Y-120330000D01*
X75805000Y-120370000D02*
X83875000Y-120370000D01*
X75809000Y-120410000D02*
X83871000Y-120410000D01*
X75813000Y-120450000D02*
X83867000Y-120450000D01*
X75818000Y-120490000D02*
X83862000Y-120490000D01*
X75823000Y-120530000D02*
X83857000Y-120530000D01*
X75828000Y-120570000D02*
X83852000Y-120570000D01*
X75834000Y-120610000D02*
X83846000Y-120610000D01*
X75840000Y-120650000D02*
X83840000Y-120650000D01*
X75846000Y-120690000D02*
X83834000Y-120690000D01*
X75853000Y-120731000D02*
X83827000Y-120731000D01*
X75861000Y-120771000D02*
X83819000Y-120771000D01*
X75869000Y-120811000D02*
X78860000Y-120811000D01*
X80820000Y-120811000D02*
X83811000Y-120811000D01*
X75877000Y-120851000D02*
X78860000Y-120851000D01*
X80820000Y-120851000D02*
X83803000Y-120851000D01*
X75885000Y-120891000D02*
X78860000Y-120891000D01*
X80820000Y-120891000D02*
X83795000Y-120891000D01*
X75894000Y-120931000D02*
X78860000Y-120931000D01*
X80820000Y-120931000D02*
X83786000Y-120931000D01*
X75904000Y-120971000D02*
X78860000Y-120971000D01*
X80820000Y-120971000D02*
X83776000Y-120971000D01*
X75914000Y-121011000D02*
X78860000Y-121011000D01*
X80820000Y-121011000D02*
X83766000Y-121011000D01*
X75924000Y-121051000D02*
X78860000Y-121051000D01*
X80820000Y-121051000D02*
X83756000Y-121051000D01*
X75935000Y-121091000D02*
X78860000Y-121091000D01*
X80820000Y-121091000D02*
X83745000Y-121091000D01*
X75946000Y-121131000D02*
X78860000Y-121131000D01*
X80820000Y-121131000D02*
X83734000Y-121131000D01*
X75957000Y-121171000D02*
X78860000Y-121171000D01*
X80820000Y-121171000D02*
X83723000Y-121171000D01*
X75970000Y-121211000D02*
X78860000Y-121211000D01*
X80820000Y-121211000D02*
X83710000Y-121211000D01*
X75982000Y-121251000D02*
X78860000Y-121251000D01*
X80820000Y-121251000D02*
X83698000Y-121251000D01*
X75995000Y-121291000D02*
X78860000Y-121291000D01*
X80820000Y-121291000D02*
X83685000Y-121291000D01*
X76008000Y-121331000D02*
X78860000Y-121331000D01*
X80820000Y-121331000D02*
X83672000Y-121331000D01*
X76022000Y-121371000D02*
X78860000Y-121371000D01*
X80820000Y-121371000D02*
X83658000Y-121371000D01*
X76037000Y-121411000D02*
X78860000Y-121411000D01*
X80820000Y-121411000D02*
X83643000Y-121411000D01*
X76051000Y-121451000D02*
X78860000Y-121451000D01*
X80820000Y-121451000D02*
X83629000Y-121451000D01*
X76067000Y-121491000D02*
X78860000Y-121491000D01*
X80820000Y-121491000D02*
X83613000Y-121491000D01*
X76082000Y-121531000D02*
X78860000Y-121531000D01*
X80820000Y-121531000D02*
X83598000Y-121531000D01*
X76099000Y-121571000D02*
X78860000Y-121571000D01*
X80820000Y-121571000D02*
X83581000Y-121571000D01*
X76115000Y-121611000D02*
X78860000Y-121611000D01*
X80820000Y-121611000D02*
X83565000Y-121611000D01*
X76133000Y-121651000D02*
X78860000Y-121651000D01*
X80820000Y-121651000D02*
X83547000Y-121651000D01*
X76150000Y-121691000D02*
X78860000Y-121691000D01*
X80820000Y-121691000D02*
X83530000Y-121691000D01*
X76169000Y-121731000D02*
X78860000Y-121731000D01*
X80820000Y-121731000D02*
X83511000Y-121731000D01*
X76188000Y-121771000D02*
X78860000Y-121771000D01*
X80820000Y-121771000D02*
X83492000Y-121771000D01*
X76207000Y-121811000D02*
X78860000Y-121811000D01*
X80820000Y-121811000D02*
X83473000Y-121811000D01*
X76227000Y-121851000D02*
X78860000Y-121851000D01*
X80820000Y-121851000D02*
X83453000Y-121851000D01*
X76247000Y-121891000D02*
X78860000Y-121891000D01*
X80820000Y-121891000D02*
X83433000Y-121891000D01*
X76268000Y-121931000D02*
X78860000Y-121931000D01*
X80820000Y-121931000D02*
X83412000Y-121931000D01*
X76290000Y-121971000D02*
X78860000Y-121971000D01*
X80820000Y-121971000D02*
X83390000Y-121971000D01*
X76312000Y-122011000D02*
X78860000Y-122011000D01*
X80820000Y-122011000D02*
X83368000Y-122011000D01*
X76335000Y-122051000D02*
X78860000Y-122051000D01*
X80820000Y-122051000D02*
X83345000Y-122051000D01*
X76358000Y-122091000D02*
X78860000Y-122091000D01*
X80820000Y-122091000D02*
X83322000Y-122091000D01*
X76382000Y-122131000D02*
X78860000Y-122131000D01*
X80820000Y-122131000D02*
X83298000Y-122131000D01*
X76406000Y-122171000D02*
X78860000Y-122171000D01*
X80820000Y-122171000D02*
X83274000Y-122171000D01*
X76432000Y-122211000D02*
X78860000Y-122211000D01*
X80820000Y-122211000D02*
X83248000Y-122211000D01*
X76457000Y-122251000D02*
X78860000Y-122251000D01*
X80820000Y-122251000D02*
X83223000Y-122251000D01*
X76484000Y-122291000D02*
X78860000Y-122291000D01*
X80820000Y-122291000D02*
X83196000Y-122291000D01*
X76511000Y-122331000D02*
X78860000Y-122331000D01*
X80820000Y-122331000D02*
X83169000Y-122331000D01*
X76539000Y-122371000D02*
X78860000Y-122371000D01*
X80820000Y-122371000D02*
X83141000Y-122371000D01*
X76568000Y-122411000D02*
X78860000Y-122411000D01*
X80820000Y-122411000D02*
X83112000Y-122411000D01*
X76597000Y-122451000D02*
X78860000Y-122451000D01*
X80820000Y-122451000D02*
X83083000Y-122451000D01*
X76627000Y-122491000D02*
X78860000Y-122491000D01*
X80820000Y-122491000D02*
X83053000Y-122491000D01*
X76658000Y-122531000D02*
X78860000Y-122531000D01*
X80820000Y-122531000D02*
X83022000Y-122531000D01*
X76690000Y-122571000D02*
X78860000Y-122571000D01*
X80820000Y-122571000D02*
X82990000Y-122571000D01*
X76722000Y-122611000D02*
X78860000Y-122611000D01*
X80820000Y-122611000D02*
X82958000Y-122611000D01*
X76756000Y-122651000D02*
X78860000Y-122651000D01*
X80820000Y-122651000D02*
X82924000Y-122651000D01*
X76790000Y-122691000D02*
X78860000Y-122691000D01*
X80820000Y-122691000D02*
X82890000Y-122691000D01*
X76825000Y-122731000D02*
X78860000Y-122731000D01*
X80820000Y-122731000D02*
X82855000Y-122731000D01*
X76861000Y-122771000D02*
X82819000Y-122771000D01*
X76898000Y-122811000D02*
X82782000Y-122811000D01*
X76936000Y-122851000D02*
X82744000Y-122851000D01*
X76975000Y-122891000D02*
X82705000Y-122891000D01*
X77016000Y-122931000D02*
X82664000Y-122931000D01*
X77057000Y-122971000D02*
X82623000Y-122971000D01*
X77100000Y-123011000D02*
X82580000Y-123011000D01*
X77143000Y-123051000D02*
X82537000Y-123051000D01*
X77188000Y-123091000D02*
X82492000Y-123091000D01*
X77235000Y-123131000D02*
X82445000Y-123131000D01*
X77283000Y-123171000D02*
X82397000Y-123171000D01*
X77332000Y-123211000D02*
X82348000Y-123211000D01*
X77383000Y-123251000D02*
X82297000Y-123251000D01*
X77436000Y-123291000D02*
X82244000Y-123291000D01*
X77491000Y-123331000D02*
X82189000Y-123331000D01*
X77547000Y-123371000D02*
X82133000Y-123371000D01*
X77606000Y-123411000D02*
X82074000Y-123411000D01*
X77667000Y-123451000D02*
X82013000Y-123451000D01*
X77731000Y-123491000D02*
X81949000Y-123491000D01*
X77797000Y-123531000D02*
X81883000Y-123531000D01*
X77866000Y-123571000D02*
X81814000Y-123571000D01*
X77938000Y-123611000D02*
X81742000Y-123611000D01*
X78014000Y-123651000D02*
X81666000Y-123651000D01*
X78095000Y-123691000D02*
X81585000Y-123691000D01*
X78180000Y-123731000D02*
X81500000Y-123731000D01*
X78270000Y-123771000D02*
X81410000Y-123771000D01*
X78367000Y-123811000D02*
X81313000Y-123811000D01*
X78471000Y-123851000D02*
X81209000Y-123851000D01*
X78586000Y-123891000D02*
X81094000Y-123891000D01*
X78713000Y-123931000D02*
X80967000Y-123931000D01*
X78857000Y-123971000D02*
X80823000Y-123971000D01*
X79026000Y-124011000D02*
X80654000Y-124011000D01*
X79242000Y-124051000D02*
X80438000Y-124051000D01*
X79594000Y-124091000D02*
X80086000Y-124091000D01*
X79840000Y-116060000D02*
X79840000Y-117260000D01*
X79190000Y-116660000D02*
X80490000Y-116660000D01*
X83930000Y-120010000D02*
G75*
G03X83930000Y-120010000I-4090000J0D01*
G01*
X89750000Y-108600000D02*
X89750000Y-116700000D01*
X89710000Y-108600000D02*
X89710000Y-116700000D01*
X89670000Y-108600000D02*
X89670000Y-116700000D01*
X89630000Y-108601000D02*
X89630000Y-116699000D01*
X89590000Y-108603000D02*
X89590000Y-116697000D01*
X89550000Y-108604000D02*
X89550000Y-116696000D01*
X89510000Y-108607000D02*
X89510000Y-116693000D01*
X89470000Y-108609000D02*
X89470000Y-116691000D01*
X89430000Y-108612000D02*
X89430000Y-116688000D01*
X89390000Y-108615000D02*
X89390000Y-116685000D01*
X89350000Y-108619000D02*
X89350000Y-116681000D01*
X89310000Y-108623000D02*
X89310000Y-116677000D01*
X89270000Y-108628000D02*
X89270000Y-116672000D01*
X89230000Y-108633000D02*
X89230000Y-116667000D01*
X89190000Y-108638000D02*
X89190000Y-116662000D01*
X89150000Y-108644000D02*
X89150000Y-116656000D01*
X89110000Y-108650000D02*
X89110000Y-116650000D01*
X89070000Y-108656000D02*
X89070000Y-116644000D01*
X89029000Y-108663000D02*
X89029000Y-116637000D01*
X88989000Y-108671000D02*
X88989000Y-116629000D01*
X88949000Y-108679000D02*
X88949000Y-111670000D01*
X88949000Y-113630000D02*
X88949000Y-116621000D01*
X88909000Y-108687000D02*
X88909000Y-111670000D01*
X88909000Y-113630000D02*
X88909000Y-116613000D01*
X88869000Y-108695000D02*
X88869000Y-111670000D01*
X88869000Y-113630000D02*
X88869000Y-116605000D01*
X88829000Y-108704000D02*
X88829000Y-111670000D01*
X88829000Y-113630000D02*
X88829000Y-116596000D01*
X88789000Y-108714000D02*
X88789000Y-111670000D01*
X88789000Y-113630000D02*
X88789000Y-116586000D01*
X88749000Y-108724000D02*
X88749000Y-111670000D01*
X88749000Y-113630000D02*
X88749000Y-116576000D01*
X88709000Y-108734000D02*
X88709000Y-111670000D01*
X88709000Y-113630000D02*
X88709000Y-116566000D01*
X88669000Y-108745000D02*
X88669000Y-111670000D01*
X88669000Y-113630000D02*
X88669000Y-116555000D01*
X88629000Y-108756000D02*
X88629000Y-111670000D01*
X88629000Y-113630000D02*
X88629000Y-116544000D01*
X88589000Y-108767000D02*
X88589000Y-111670000D01*
X88589000Y-113630000D02*
X88589000Y-116533000D01*
X88549000Y-108780000D02*
X88549000Y-111670000D01*
X88549000Y-113630000D02*
X88549000Y-116520000D01*
X88509000Y-108792000D02*
X88509000Y-111670000D01*
X88509000Y-113630000D02*
X88509000Y-116508000D01*
X88469000Y-108805000D02*
X88469000Y-111670000D01*
X88469000Y-113630000D02*
X88469000Y-116495000D01*
X88429000Y-108818000D02*
X88429000Y-111670000D01*
X88429000Y-113630000D02*
X88429000Y-116482000D01*
X88389000Y-108832000D02*
X88389000Y-111670000D01*
X88389000Y-113630000D02*
X88389000Y-116468000D01*
X88349000Y-108847000D02*
X88349000Y-111670000D01*
X88349000Y-113630000D02*
X88349000Y-116453000D01*
X88309000Y-108861000D02*
X88309000Y-111670000D01*
X88309000Y-113630000D02*
X88309000Y-116439000D01*
X88269000Y-108877000D02*
X88269000Y-111670000D01*
X88269000Y-113630000D02*
X88269000Y-116423000D01*
X88229000Y-108892000D02*
X88229000Y-111670000D01*
X88229000Y-113630000D02*
X88229000Y-116408000D01*
X88189000Y-108909000D02*
X88189000Y-111670000D01*
X88189000Y-113630000D02*
X88189000Y-116391000D01*
X88149000Y-108925000D02*
X88149000Y-111670000D01*
X88149000Y-113630000D02*
X88149000Y-116375000D01*
X88109000Y-108943000D02*
X88109000Y-111670000D01*
X88109000Y-113630000D02*
X88109000Y-116357000D01*
X88069000Y-108960000D02*
X88069000Y-111670000D01*
X88069000Y-113630000D02*
X88069000Y-116340000D01*
X88029000Y-108979000D02*
X88029000Y-111670000D01*
X88029000Y-113630000D02*
X88029000Y-116321000D01*
X87989000Y-108998000D02*
X87989000Y-111670000D01*
X87989000Y-113630000D02*
X87989000Y-116302000D01*
X87949000Y-109017000D02*
X87949000Y-111670000D01*
X87949000Y-113630000D02*
X87949000Y-116283000D01*
X87909000Y-109037000D02*
X87909000Y-111670000D01*
X87909000Y-113630000D02*
X87909000Y-116263000D01*
X87869000Y-109057000D02*
X87869000Y-111670000D01*
X87869000Y-113630000D02*
X87869000Y-116243000D01*
X87829000Y-109078000D02*
X87829000Y-111670000D01*
X87829000Y-113630000D02*
X87829000Y-116222000D01*
X87789000Y-109100000D02*
X87789000Y-111670000D01*
X87789000Y-113630000D02*
X87789000Y-116200000D01*
X87749000Y-109122000D02*
X87749000Y-111670000D01*
X87749000Y-113630000D02*
X87749000Y-116178000D01*
X87709000Y-109145000D02*
X87709000Y-111670000D01*
X87709000Y-113630000D02*
X87709000Y-116155000D01*
X87669000Y-109168000D02*
X87669000Y-111670000D01*
X87669000Y-113630000D02*
X87669000Y-116132000D01*
X87629000Y-109192000D02*
X87629000Y-111670000D01*
X87629000Y-113630000D02*
X87629000Y-116108000D01*
X87589000Y-109216000D02*
X87589000Y-111670000D01*
X87589000Y-113630000D02*
X87589000Y-116084000D01*
X87549000Y-109242000D02*
X87549000Y-111670000D01*
X87549000Y-113630000D02*
X87549000Y-116058000D01*
X87509000Y-109267000D02*
X87509000Y-111670000D01*
X87509000Y-113630000D02*
X87509000Y-116033000D01*
X87469000Y-109294000D02*
X87469000Y-111670000D01*
X87469000Y-113630000D02*
X87469000Y-116006000D01*
X87429000Y-109321000D02*
X87429000Y-111670000D01*
X87429000Y-113630000D02*
X87429000Y-115979000D01*
X87389000Y-109349000D02*
X87389000Y-111670000D01*
X87389000Y-113630000D02*
X87389000Y-115951000D01*
X87349000Y-109378000D02*
X87349000Y-111670000D01*
X87349000Y-113630000D02*
X87349000Y-115922000D01*
X87309000Y-109407000D02*
X87309000Y-111670000D01*
X87309000Y-113630000D02*
X87309000Y-115893000D01*
X87269000Y-109437000D02*
X87269000Y-111670000D01*
X87269000Y-113630000D02*
X87269000Y-115863000D01*
X87229000Y-109468000D02*
X87229000Y-111670000D01*
X87229000Y-113630000D02*
X87229000Y-115832000D01*
X87189000Y-109500000D02*
X87189000Y-111670000D01*
X87189000Y-113630000D02*
X87189000Y-115800000D01*
X87149000Y-109532000D02*
X87149000Y-111670000D01*
X87149000Y-113630000D02*
X87149000Y-115768000D01*
X87109000Y-109566000D02*
X87109000Y-111670000D01*
X87109000Y-113630000D02*
X87109000Y-115734000D01*
X87069000Y-109600000D02*
X87069000Y-111670000D01*
X87069000Y-113630000D02*
X87069000Y-115700000D01*
X87029000Y-109635000D02*
X87029000Y-111670000D01*
X87029000Y-113630000D02*
X87029000Y-115665000D01*
X86989000Y-109671000D02*
X86989000Y-115629000D01*
X86949000Y-109708000D02*
X86949000Y-115592000D01*
X86909000Y-109746000D02*
X86909000Y-115554000D01*
X86869000Y-109785000D02*
X86869000Y-115515000D01*
X86829000Y-109826000D02*
X86829000Y-115474000D01*
X86789000Y-109867000D02*
X86789000Y-115433000D01*
X86749000Y-109910000D02*
X86749000Y-115390000D01*
X86709000Y-109953000D02*
X86709000Y-115347000D01*
X86669000Y-109998000D02*
X86669000Y-115302000D01*
X86629000Y-110045000D02*
X86629000Y-115255000D01*
X86589000Y-110093000D02*
X86589000Y-115207000D01*
X86549000Y-110142000D02*
X86549000Y-115158000D01*
X86509000Y-110193000D02*
X86509000Y-115107000D01*
X86469000Y-110246000D02*
X86469000Y-115054000D01*
X86429000Y-110301000D02*
X86429000Y-114999000D01*
X86389000Y-110357000D02*
X86389000Y-114943000D01*
X86349000Y-110416000D02*
X86349000Y-114884000D01*
X86309000Y-110477000D02*
X86309000Y-114823000D01*
X86269000Y-110541000D02*
X86269000Y-114759000D01*
X86229000Y-110607000D02*
X86229000Y-114693000D01*
X86189000Y-110676000D02*
X86189000Y-114624000D01*
X86149000Y-110748000D02*
X86149000Y-114552000D01*
X86109000Y-110824000D02*
X86109000Y-114476000D01*
X86069000Y-110905000D02*
X86069000Y-114395000D01*
X86029000Y-110990000D02*
X86029000Y-114310000D01*
X85989000Y-111080000D02*
X85989000Y-114220000D01*
X85949000Y-111177000D02*
X85949000Y-114123000D01*
X85909000Y-111281000D02*
X85909000Y-114019000D01*
X85869000Y-111396000D02*
X85869000Y-113904000D01*
X85829000Y-111523000D02*
X85829000Y-113777000D01*
X85789000Y-111667000D02*
X85789000Y-113633000D01*
X85749000Y-111836000D02*
X85749000Y-113464000D01*
X85709000Y-112052000D02*
X85709000Y-113248000D01*
X85669000Y-112404000D02*
X85669000Y-112896000D01*
X93700000Y-112650000D02*
X92500000Y-112650000D01*
X93100000Y-112000000D02*
X93100000Y-113300000D01*
X93840000Y-112650000D02*
G75*
G03X93840000Y-112650000I-4090000J0D01*
G01*
X67090000Y-120010000D02*
X75190000Y-120010000D01*
X67090000Y-120050000D02*
X75190000Y-120050000D01*
X67090000Y-120090000D02*
X75190000Y-120090000D01*
X67091000Y-120130000D02*
X75189000Y-120130000D01*
X67093000Y-120170000D02*
X75187000Y-120170000D01*
X67094000Y-120210000D02*
X75186000Y-120210000D01*
X67097000Y-120250000D02*
X75183000Y-120250000D01*
X67099000Y-120290000D02*
X75181000Y-120290000D01*
X67102000Y-120330000D02*
X75178000Y-120330000D01*
X67105000Y-120370000D02*
X75175000Y-120370000D01*
X67109000Y-120410000D02*
X75171000Y-120410000D01*
X67113000Y-120450000D02*
X75167000Y-120450000D01*
X67118000Y-120490000D02*
X75162000Y-120490000D01*
X67123000Y-120530000D02*
X75157000Y-120530000D01*
X67128000Y-120570000D02*
X75152000Y-120570000D01*
X67134000Y-120610000D02*
X75146000Y-120610000D01*
X67140000Y-120650000D02*
X75140000Y-120650000D01*
X67146000Y-120690000D02*
X75134000Y-120690000D01*
X67153000Y-120731000D02*
X75127000Y-120731000D01*
X67161000Y-120771000D02*
X75119000Y-120771000D01*
X67169000Y-120811000D02*
X70160000Y-120811000D01*
X72120000Y-120811000D02*
X75111000Y-120811000D01*
X67177000Y-120851000D02*
X70160000Y-120851000D01*
X72120000Y-120851000D02*
X75103000Y-120851000D01*
X67185000Y-120891000D02*
X70160000Y-120891000D01*
X72120000Y-120891000D02*
X75095000Y-120891000D01*
X67194000Y-120931000D02*
X70160000Y-120931000D01*
X72120000Y-120931000D02*
X75086000Y-120931000D01*
X67204000Y-120971000D02*
X70160000Y-120971000D01*
X72120000Y-120971000D02*
X75076000Y-120971000D01*
X67214000Y-121011000D02*
X70160000Y-121011000D01*
X72120000Y-121011000D02*
X75066000Y-121011000D01*
X67224000Y-121051000D02*
X70160000Y-121051000D01*
X72120000Y-121051000D02*
X75056000Y-121051000D01*
X67235000Y-121091000D02*
X70160000Y-121091000D01*
X72120000Y-121091000D02*
X75045000Y-121091000D01*
X67246000Y-121131000D02*
X70160000Y-121131000D01*
X72120000Y-121131000D02*
X75034000Y-121131000D01*
X67257000Y-121171000D02*
X70160000Y-121171000D01*
X72120000Y-121171000D02*
X75023000Y-121171000D01*
X67270000Y-121211000D02*
X70160000Y-121211000D01*
X72120000Y-121211000D02*
X75010000Y-121211000D01*
X67282000Y-121251000D02*
X70160000Y-121251000D01*
X72120000Y-121251000D02*
X74998000Y-121251000D01*
X67295000Y-121291000D02*
X70160000Y-121291000D01*
X72120000Y-121291000D02*
X74985000Y-121291000D01*
X67308000Y-121331000D02*
X70160000Y-121331000D01*
X72120000Y-121331000D02*
X74972000Y-121331000D01*
X67322000Y-121371000D02*
X70160000Y-121371000D01*
X72120000Y-121371000D02*
X74958000Y-121371000D01*
X67337000Y-121411000D02*
X70160000Y-121411000D01*
X72120000Y-121411000D02*
X74943000Y-121411000D01*
X67351000Y-121451000D02*
X70160000Y-121451000D01*
X72120000Y-121451000D02*
X74929000Y-121451000D01*
X67367000Y-121491000D02*
X70160000Y-121491000D01*
X72120000Y-121491000D02*
X74913000Y-121491000D01*
X67382000Y-121531000D02*
X70160000Y-121531000D01*
X72120000Y-121531000D02*
X74898000Y-121531000D01*
X67399000Y-121571000D02*
X70160000Y-121571000D01*
X72120000Y-121571000D02*
X74881000Y-121571000D01*
X67415000Y-121611000D02*
X70160000Y-121611000D01*
X72120000Y-121611000D02*
X74865000Y-121611000D01*
X67433000Y-121651000D02*
X70160000Y-121651000D01*
X72120000Y-121651000D02*
X74847000Y-121651000D01*
X67450000Y-121691000D02*
X70160000Y-121691000D01*
X72120000Y-121691000D02*
X74830000Y-121691000D01*
X67469000Y-121731000D02*
X70160000Y-121731000D01*
X72120000Y-121731000D02*
X74811000Y-121731000D01*
X67488000Y-121771000D02*
X70160000Y-121771000D01*
X72120000Y-121771000D02*
X74792000Y-121771000D01*
X67507000Y-121811000D02*
X70160000Y-121811000D01*
X72120000Y-121811000D02*
X74773000Y-121811000D01*
X67527000Y-121851000D02*
X70160000Y-121851000D01*
X72120000Y-121851000D02*
X74753000Y-121851000D01*
X67547000Y-121891000D02*
X70160000Y-121891000D01*
X72120000Y-121891000D02*
X74733000Y-121891000D01*
X67568000Y-121931000D02*
X70160000Y-121931000D01*
X72120000Y-121931000D02*
X74712000Y-121931000D01*
X67590000Y-121971000D02*
X70160000Y-121971000D01*
X72120000Y-121971000D02*
X74690000Y-121971000D01*
X67612000Y-122011000D02*
X70160000Y-122011000D01*
X72120000Y-122011000D02*
X74668000Y-122011000D01*
X67635000Y-122051000D02*
X70160000Y-122051000D01*
X72120000Y-122051000D02*
X74645000Y-122051000D01*
X67658000Y-122091000D02*
X70160000Y-122091000D01*
X72120000Y-122091000D02*
X74622000Y-122091000D01*
X67682000Y-122131000D02*
X70160000Y-122131000D01*
X72120000Y-122131000D02*
X74598000Y-122131000D01*
X67706000Y-122171000D02*
X70160000Y-122171000D01*
X72120000Y-122171000D02*
X74574000Y-122171000D01*
X67732000Y-122211000D02*
X70160000Y-122211000D01*
X72120000Y-122211000D02*
X74548000Y-122211000D01*
X67757000Y-122251000D02*
X70160000Y-122251000D01*
X72120000Y-122251000D02*
X74523000Y-122251000D01*
X67784000Y-122291000D02*
X70160000Y-122291000D01*
X72120000Y-122291000D02*
X74496000Y-122291000D01*
X67811000Y-122331000D02*
X70160000Y-122331000D01*
X72120000Y-122331000D02*
X74469000Y-122331000D01*
X67839000Y-122371000D02*
X70160000Y-122371000D01*
X72120000Y-122371000D02*
X74441000Y-122371000D01*
X67868000Y-122411000D02*
X70160000Y-122411000D01*
X72120000Y-122411000D02*
X74412000Y-122411000D01*
X67897000Y-122451000D02*
X70160000Y-122451000D01*
X72120000Y-122451000D02*
X74383000Y-122451000D01*
X67927000Y-122491000D02*
X70160000Y-122491000D01*
X72120000Y-122491000D02*
X74353000Y-122491000D01*
X67958000Y-122531000D02*
X70160000Y-122531000D01*
X72120000Y-122531000D02*
X74322000Y-122531000D01*
X67990000Y-122571000D02*
X70160000Y-122571000D01*
X72120000Y-122571000D02*
X74290000Y-122571000D01*
X68022000Y-122611000D02*
X70160000Y-122611000D01*
X72120000Y-122611000D02*
X74258000Y-122611000D01*
X68056000Y-122651000D02*
X70160000Y-122651000D01*
X72120000Y-122651000D02*
X74224000Y-122651000D01*
X68090000Y-122691000D02*
X70160000Y-122691000D01*
X72120000Y-122691000D02*
X74190000Y-122691000D01*
X68125000Y-122731000D02*
X70160000Y-122731000D01*
X72120000Y-122731000D02*
X74155000Y-122731000D01*
X68161000Y-122771000D02*
X74119000Y-122771000D01*
X68198000Y-122811000D02*
X74082000Y-122811000D01*
X68236000Y-122851000D02*
X74044000Y-122851000D01*
X68275000Y-122891000D02*
X74005000Y-122891000D01*
X68316000Y-122931000D02*
X73964000Y-122931000D01*
X68357000Y-122971000D02*
X73923000Y-122971000D01*
X68400000Y-123011000D02*
X73880000Y-123011000D01*
X68443000Y-123051000D02*
X73837000Y-123051000D01*
X68488000Y-123091000D02*
X73792000Y-123091000D01*
X68535000Y-123131000D02*
X73745000Y-123131000D01*
X68583000Y-123171000D02*
X73697000Y-123171000D01*
X68632000Y-123211000D02*
X73648000Y-123211000D01*
X68683000Y-123251000D02*
X73597000Y-123251000D01*
X68736000Y-123291000D02*
X73544000Y-123291000D01*
X68791000Y-123331000D02*
X73489000Y-123331000D01*
X68847000Y-123371000D02*
X73433000Y-123371000D01*
X68906000Y-123411000D02*
X73374000Y-123411000D01*
X68967000Y-123451000D02*
X73313000Y-123451000D01*
X69031000Y-123491000D02*
X73249000Y-123491000D01*
X69097000Y-123531000D02*
X73183000Y-123531000D01*
X69166000Y-123571000D02*
X73114000Y-123571000D01*
X69238000Y-123611000D02*
X73042000Y-123611000D01*
X69314000Y-123651000D02*
X72966000Y-123651000D01*
X69395000Y-123691000D02*
X72885000Y-123691000D01*
X69480000Y-123731000D02*
X72800000Y-123731000D01*
X69570000Y-123771000D02*
X72710000Y-123771000D01*
X69667000Y-123811000D02*
X72613000Y-123811000D01*
X69771000Y-123851000D02*
X72509000Y-123851000D01*
X69886000Y-123891000D02*
X72394000Y-123891000D01*
X70013000Y-123931000D02*
X72267000Y-123931000D01*
X70157000Y-123971000D02*
X72123000Y-123971000D01*
X70326000Y-124011000D02*
X71954000Y-124011000D01*
X70542000Y-124051000D02*
X71738000Y-124051000D01*
X70894000Y-124091000D02*
X71386000Y-124091000D01*
X71140000Y-116060000D02*
X71140000Y-117260000D01*
X70490000Y-116660000D02*
X71790000Y-116660000D01*
X75230000Y-120010000D02*
G75*
G03X75230000Y-120010000I-4090000J0D01*
G01*
X57248000Y-122682000D02*
G75*
G03X57248000Y-122682000I-860000J0D01*
G01*
X56388000Y-121822000D02*
X56388000Y-121142000D01*
X57248000Y-117856000D02*
G75*
G03X57248000Y-117856000I-860000J0D01*
G01*
X56388000Y-116996000D02*
X56388000Y-116316000D01*
D11*
X61360000Y-116520000D02*
X63160000Y-116520000D01*
X61360000Y-123520000D02*
X63160000Y-123520000D01*
D12*
X63570000Y-114960000D02*
X63570000Y-112140000D01*
X63570000Y-112140000D02*
X68890000Y-112140000D01*
X68890000Y-112140000D02*
X68890000Y-114960000D01*
X68890000Y-114960000D02*
X63570000Y-114960000D01*
X62430000Y-113550000D02*
X63570000Y-113550000D01*
X70030000Y-113550000D02*
X68890000Y-113550000D01*
X64410000Y-114960000D02*
X64410000Y-112140000D01*
X47850000Y-52070000D02*
G75*
G03X47850000Y-52070000I-860000J0D01*
G01*
X47850000Y-52070000D02*
X48530000Y-52070000D01*
X47850000Y-55880000D02*
G75*
G03X47850000Y-55880000I-860000J0D01*
G01*
X47850000Y-55880000D02*
X48530000Y-55880000D01*
D11*
X50800000Y-86150000D02*
X50800000Y-86650000D01*
X52000000Y-86650000D02*
X52000000Y-86150000D01*
X55400000Y-86150000D02*
X55400000Y-86650000D01*
X56600000Y-86650000D02*
X56600000Y-86150000D01*
X60900000Y-86150000D02*
X60900000Y-86650000D01*
X62100000Y-86650000D02*
X62100000Y-86150000D01*
X72440000Y-86400000D02*
X72440000Y-86900000D01*
X73640000Y-86900000D02*
X73640000Y-86400000D01*
X107450000Y-76874000D02*
X107450000Y-71876000D01*
X107590000Y-76866000D02*
X107590000Y-74529000D01*
X107590000Y-74221000D02*
X107590000Y-71884000D01*
X107730000Y-76850000D02*
X107730000Y-74848000D01*
X107730000Y-73902000D02*
X107730000Y-71900000D01*
X107870000Y-76826000D02*
X107870000Y-74995000D01*
X107870000Y-73755000D02*
X107870000Y-71924000D01*
X108010000Y-76793000D02*
X108010000Y-75087000D01*
X108010000Y-73663000D02*
X108010000Y-71957000D01*
X108150000Y-76752000D02*
X108150000Y-75143000D01*
X108150000Y-73607000D02*
X108150000Y-71998000D01*
X108290000Y-76702000D02*
X108290000Y-75170000D01*
X108290000Y-73580000D02*
X108290000Y-72048000D01*
X108430000Y-76641000D02*
X108430000Y-75173000D01*
X108430000Y-73577000D02*
X108430000Y-72109000D01*
X108570000Y-76571000D02*
X108570000Y-75151000D01*
X108570000Y-73599000D02*
X108570000Y-72179000D01*
X108710000Y-76489000D02*
X108710000Y-75101000D01*
X108710000Y-73649000D02*
X108710000Y-72261000D01*
X108850000Y-76394000D02*
X108850000Y-75019000D01*
X108850000Y-73731000D02*
X108850000Y-72356000D01*
X108990000Y-76283000D02*
X108990000Y-74887000D01*
X108990000Y-73863000D02*
X108990000Y-72467000D01*
X109130000Y-76155000D02*
X109130000Y-74640000D01*
X109130000Y-74110000D02*
X109130000Y-72595000D01*
X109270000Y-76006000D02*
X109270000Y-72744000D01*
X109410000Y-75827000D02*
X109410000Y-72923000D01*
X109550000Y-75608000D02*
X109550000Y-73142000D01*
X109690000Y-75319000D02*
X109690000Y-73431000D01*
X109830000Y-74847000D02*
X109830000Y-73903000D01*
X109175000Y-74375000D02*
G75*
G03X109175000Y-74375000I-800000J0D01*
G01*
X109912500Y-74375000D02*
G75*
G03X109912500Y-74375000I-2537500J0D01*
G01*
X126101000Y-54300000D02*
X131099000Y-54300000D01*
X126109000Y-54440000D02*
X128446000Y-54440000D01*
X128754000Y-54440000D02*
X131091000Y-54440000D01*
X126125000Y-54580000D02*
X128127000Y-54580000D01*
X129073000Y-54580000D02*
X131075000Y-54580000D01*
X126149000Y-54720000D02*
X127980000Y-54720000D01*
X129220000Y-54720000D02*
X131051000Y-54720000D01*
X126182000Y-54860000D02*
X127888000Y-54860000D01*
X129312000Y-54860000D02*
X131018000Y-54860000D01*
X126223000Y-55000000D02*
X127832000Y-55000000D01*
X129368000Y-55000000D02*
X130977000Y-55000000D01*
X126273000Y-55140000D02*
X127805000Y-55140000D01*
X129395000Y-55140000D02*
X130927000Y-55140000D01*
X126334000Y-55280000D02*
X127802000Y-55280000D01*
X129398000Y-55280000D02*
X130866000Y-55280000D01*
X126404000Y-55420000D02*
X127824000Y-55420000D01*
X129376000Y-55420000D02*
X130796000Y-55420000D01*
X126486000Y-55560000D02*
X127874000Y-55560000D01*
X129326000Y-55560000D02*
X130714000Y-55560000D01*
X126581000Y-55700000D02*
X127956000Y-55700000D01*
X129244000Y-55700000D02*
X130619000Y-55700000D01*
X126692000Y-55840000D02*
X128088000Y-55840000D01*
X129112000Y-55840000D02*
X130508000Y-55840000D01*
X126820000Y-55980000D02*
X128335000Y-55980000D01*
X128865000Y-55980000D02*
X130380000Y-55980000D01*
X126969000Y-56120000D02*
X130231000Y-56120000D01*
X127148000Y-56260000D02*
X130052000Y-56260000D01*
X127367000Y-56400000D02*
X129833000Y-56400000D01*
X127656000Y-56540000D02*
X129544000Y-56540000D01*
X128128000Y-56680000D02*
X129072000Y-56680000D01*
X129400000Y-55225000D02*
G75*
G03X129400000Y-55225000I-800000J0D01*
G01*
X131137500Y-54225000D02*
G75*
G03X131137500Y-54225000I-2537500J0D01*
G01*
X96525000Y-52874000D02*
X96525000Y-47876000D01*
X96665000Y-52866000D02*
X96665000Y-50529000D01*
X96665000Y-50221000D02*
X96665000Y-47884000D01*
X96805000Y-52850000D02*
X96805000Y-50848000D01*
X96805000Y-49902000D02*
X96805000Y-47900000D01*
X96945000Y-52826000D02*
X96945000Y-50995000D01*
X96945000Y-49755000D02*
X96945000Y-47924000D01*
X97085000Y-52793000D02*
X97085000Y-51087000D01*
X97085000Y-49663000D02*
X97085000Y-47957000D01*
X97225000Y-52752000D02*
X97225000Y-51143000D01*
X97225000Y-49607000D02*
X97225000Y-47998000D01*
X97365000Y-52702000D02*
X97365000Y-51170000D01*
X97365000Y-49580000D02*
X97365000Y-48048000D01*
X97505000Y-52641000D02*
X97505000Y-51173000D01*
X97505000Y-49577000D02*
X97505000Y-48109000D01*
X97645000Y-52571000D02*
X97645000Y-51151000D01*
X97645000Y-49599000D02*
X97645000Y-48179000D01*
X97785000Y-52489000D02*
X97785000Y-51101000D01*
X97785000Y-49649000D02*
X97785000Y-48261000D01*
X97925000Y-52394000D02*
X97925000Y-51019000D01*
X97925000Y-49731000D02*
X97925000Y-48356000D01*
X98065000Y-52283000D02*
X98065000Y-50887000D01*
X98065000Y-49863000D02*
X98065000Y-48467000D01*
X98205000Y-52155000D02*
X98205000Y-50640000D01*
X98205000Y-50110000D02*
X98205000Y-48595000D01*
X98345000Y-52006000D02*
X98345000Y-48744000D01*
X98485000Y-51827000D02*
X98485000Y-48923000D01*
X98625000Y-51608000D02*
X98625000Y-49142000D01*
X98765000Y-51319000D02*
X98765000Y-49431000D01*
X98905000Y-50847000D02*
X98905000Y-49903000D01*
X98250000Y-50375000D02*
G75*
G03X98250000Y-50375000I-800000J0D01*
G01*
X98987500Y-50375000D02*
G75*
G03X98987500Y-50375000I-2537500J0D01*
G01*
X88605000Y-62401000D02*
X88605000Y-67399000D01*
X88465000Y-62409000D02*
X88465000Y-64746000D01*
X88465000Y-65054000D02*
X88465000Y-67391000D01*
X88325000Y-62425000D02*
X88325000Y-64427000D01*
X88325000Y-65373000D02*
X88325000Y-67375000D01*
X88185000Y-62449000D02*
X88185000Y-64280000D01*
X88185000Y-65520000D02*
X88185000Y-67351000D01*
X88045000Y-62482000D02*
X88045000Y-64188000D01*
X88045000Y-65612000D02*
X88045000Y-67318000D01*
X87905000Y-62523000D02*
X87905000Y-64132000D01*
X87905000Y-65668000D02*
X87905000Y-67277000D01*
X87765000Y-62573000D02*
X87765000Y-64105000D01*
X87765000Y-65695000D02*
X87765000Y-67227000D01*
X87625000Y-62634000D02*
X87625000Y-64102000D01*
X87625000Y-65698000D02*
X87625000Y-67166000D01*
X87485000Y-62704000D02*
X87485000Y-64124000D01*
X87485000Y-65676000D02*
X87485000Y-67096000D01*
X87345000Y-62786000D02*
X87345000Y-64174000D01*
X87345000Y-65626000D02*
X87345000Y-67014000D01*
X87205000Y-62881000D02*
X87205000Y-64256000D01*
X87205000Y-65544000D02*
X87205000Y-66919000D01*
X87065000Y-62992000D02*
X87065000Y-64388000D01*
X87065000Y-65412000D02*
X87065000Y-66808000D01*
X86925000Y-63120000D02*
X86925000Y-64635000D01*
X86925000Y-65165000D02*
X86925000Y-66680000D01*
X86785000Y-63269000D02*
X86785000Y-66531000D01*
X86645000Y-63448000D02*
X86645000Y-66352000D01*
X86505000Y-63667000D02*
X86505000Y-66133000D01*
X86365000Y-63956000D02*
X86365000Y-65844000D01*
X86225000Y-64428000D02*
X86225000Y-65372000D01*
X88480000Y-64900000D02*
G75*
G03X88480000Y-64900000I-800000J0D01*
G01*
X91217500Y-64900000D02*
G75*
G03X91217500Y-64900000I-2537500J0D01*
G01*
X104573000Y-32807000D02*
X104573000Y-37805000D01*
X104433000Y-32815000D02*
X104433000Y-35152000D01*
X104433000Y-35460000D02*
X104433000Y-37797000D01*
X104293000Y-32831000D02*
X104293000Y-34833000D01*
X104293000Y-35779000D02*
X104293000Y-37781000D01*
X104153000Y-32855000D02*
X104153000Y-34686000D01*
X104153000Y-35926000D02*
X104153000Y-37757000D01*
X104013000Y-32888000D02*
X104013000Y-34594000D01*
X104013000Y-36018000D02*
X104013000Y-37724000D01*
X103873000Y-32929000D02*
X103873000Y-34538000D01*
X103873000Y-36074000D02*
X103873000Y-37683000D01*
X103733000Y-32979000D02*
X103733000Y-34511000D01*
X103733000Y-36101000D02*
X103733000Y-37633000D01*
X103593000Y-33040000D02*
X103593000Y-34508000D01*
X103593000Y-36104000D02*
X103593000Y-37572000D01*
X103453000Y-33110000D02*
X103453000Y-34530000D01*
X103453000Y-36082000D02*
X103453000Y-37502000D01*
X103313000Y-33192000D02*
X103313000Y-34580000D01*
X103313000Y-36032000D02*
X103313000Y-37420000D01*
X103173000Y-33287000D02*
X103173000Y-34662000D01*
X103173000Y-35950000D02*
X103173000Y-37325000D01*
X103033000Y-33398000D02*
X103033000Y-34794000D01*
X103033000Y-35818000D02*
X103033000Y-37214000D01*
X102893000Y-33526000D02*
X102893000Y-35041000D01*
X102893000Y-35571000D02*
X102893000Y-37086000D01*
X102753000Y-33675000D02*
X102753000Y-36937000D01*
X102613000Y-33854000D02*
X102613000Y-36758000D01*
X102473000Y-34073000D02*
X102473000Y-36539000D01*
X102333000Y-34362000D02*
X102333000Y-36250000D01*
X102193000Y-34834000D02*
X102193000Y-35778000D01*
X104448000Y-35306000D02*
G75*
G03X104448000Y-35306000I-800000J0D01*
G01*
X107185500Y-35306000D02*
G75*
G03X107185500Y-35306000I-2537500J0D01*
G01*
X115411905Y-100877381D02*
X114840476Y-100877381D01*
X115126191Y-101877381D02*
X115126191Y-100877381D01*
X113983333Y-101877381D02*
X114554762Y-101877381D01*
X114269048Y-101877381D02*
X114269048Y-100877381D01*
X114364286Y-101020238D01*
X114459524Y-101115476D01*
X114554762Y-101163095D01*
X136152381Y-110461905D02*
X135152381Y-110461905D01*
X135152381Y-110842858D01*
X135200000Y-110938096D01*
X135247619Y-110985715D01*
X135342857Y-111033334D01*
X135485714Y-111033334D01*
X135580952Y-110985715D01*
X135628571Y-110938096D01*
X135676190Y-110842858D01*
X135676190Y-110461905D01*
X135152381Y-111366667D02*
X135152381Y-111985715D01*
X135533333Y-111652381D01*
X135533333Y-111795239D01*
X135580952Y-111890477D01*
X135628571Y-111938096D01*
X135723810Y-111985715D01*
X135961905Y-111985715D01*
X136057143Y-111938096D01*
X136104762Y-111890477D01*
X136152381Y-111795239D01*
X136152381Y-111509524D01*
X136104762Y-111414286D01*
X136057143Y-111366667D01*
X130242857Y-110382143D02*
X130290476Y-110429762D01*
X130433333Y-110477381D01*
X130528571Y-110477381D01*
X130671429Y-110429762D01*
X130766667Y-110334524D01*
X130814286Y-110239286D01*
X130861905Y-110048810D01*
X130861905Y-109905952D01*
X130814286Y-109715476D01*
X130766667Y-109620238D01*
X130671429Y-109525000D01*
X130528571Y-109477381D01*
X130433333Y-109477381D01*
X130290476Y-109525000D01*
X130242857Y-109572619D01*
X129766667Y-110477381D02*
X129576191Y-110477381D01*
X129480952Y-110429762D01*
X129433333Y-110382143D01*
X129338095Y-110239286D01*
X129290476Y-110048810D01*
X129290476Y-109667857D01*
X129338095Y-109572619D01*
X129385714Y-109525000D01*
X129480952Y-109477381D01*
X129671429Y-109477381D01*
X129766667Y-109525000D01*
X129814286Y-109572619D01*
X129861905Y-109667857D01*
X129861905Y-109905952D01*
X129814286Y-110001190D01*
X129766667Y-110048810D01*
X129671429Y-110096429D01*
X129480952Y-110096429D01*
X129385714Y-110048810D01*
X129338095Y-110001190D01*
X129290476Y-109905952D01*
X128385714Y-109477381D02*
X128861905Y-109477381D01*
X128909524Y-109953571D01*
X128861905Y-109905952D01*
X128766667Y-109858333D01*
X128528571Y-109858333D01*
X128433333Y-109905952D01*
X128385714Y-109953571D01*
X128338095Y-110048810D01*
X128338095Y-110286905D01*
X128385714Y-110382143D01*
X128433333Y-110429762D01*
X128528571Y-110477381D01*
X128766667Y-110477381D01*
X128861905Y-110429762D01*
X128909524Y-110382143D01*
X85767857Y-39857143D02*
X85815476Y-39904762D01*
X85958333Y-39952381D01*
X86053571Y-39952381D01*
X86196429Y-39904762D01*
X86291667Y-39809524D01*
X86339286Y-39714286D01*
X86386905Y-39523810D01*
X86386905Y-39380952D01*
X86339286Y-39190476D01*
X86291667Y-39095238D01*
X86196429Y-39000000D01*
X86053571Y-38952381D01*
X85958333Y-38952381D01*
X85815476Y-39000000D01*
X85767857Y-39047619D01*
X85196429Y-39380952D02*
X85291667Y-39333333D01*
X85339286Y-39285714D01*
X85386905Y-39190476D01*
X85386905Y-39142857D01*
X85339286Y-39047619D01*
X85291667Y-39000000D01*
X85196429Y-38952381D01*
X85005952Y-38952381D01*
X84910714Y-39000000D01*
X84863095Y-39047619D01*
X84815476Y-39142857D01*
X84815476Y-39190476D01*
X84863095Y-39285714D01*
X84910714Y-39333333D01*
X85005952Y-39380952D01*
X85196429Y-39380952D01*
X85291667Y-39428571D01*
X85339286Y-39476190D01*
X85386905Y-39571429D01*
X85386905Y-39761905D01*
X85339286Y-39857143D01*
X85291667Y-39904762D01*
X85196429Y-39952381D01*
X85005952Y-39952381D01*
X84910714Y-39904762D01*
X84863095Y-39857143D01*
X84815476Y-39761905D01*
X84815476Y-39571429D01*
X84863095Y-39476190D01*
X84910714Y-39428571D01*
X85005952Y-39380952D01*
X84482143Y-38952381D02*
X83863095Y-38952381D01*
X84196429Y-39333333D01*
X84053571Y-39333333D01*
X83958333Y-39380952D01*
X83910714Y-39428571D01*
X83863095Y-39523810D01*
X83863095Y-39761905D01*
X83910714Y-39857143D01*
X83958333Y-39904762D01*
X84053571Y-39952381D01*
X84339286Y-39952381D01*
X84434524Y-39904762D01*
X84482143Y-39857143D01*
X49877143Y-102517143D02*
X49924762Y-102469524D01*
X49972381Y-102326667D01*
X49972381Y-102231429D01*
X49924762Y-102088571D01*
X49829524Y-101993333D01*
X49734286Y-101945714D01*
X49543810Y-101898095D01*
X49400952Y-101898095D01*
X49210476Y-101945714D01*
X49115238Y-101993333D01*
X49020000Y-102088571D01*
X48972381Y-102231429D01*
X48972381Y-102326667D01*
X49020000Y-102469524D01*
X49067619Y-102517143D01*
X49067619Y-102898095D02*
X49020000Y-102945714D01*
X48972381Y-103040952D01*
X48972381Y-103279048D01*
X49020000Y-103374286D01*
X49067619Y-103421905D01*
X49162857Y-103469524D01*
X49258095Y-103469524D01*
X49400952Y-103421905D01*
X49972381Y-102850476D01*
X49972381Y-103469524D01*
X48972381Y-104088571D02*
X48972381Y-104183810D01*
X49020000Y-104279048D01*
X49067619Y-104326667D01*
X49162857Y-104374286D01*
X49353333Y-104421905D01*
X49591429Y-104421905D01*
X49781905Y-104374286D01*
X49877143Y-104326667D01*
X49924762Y-104279048D01*
X49972381Y-104183810D01*
X49972381Y-104088571D01*
X49924762Y-103993333D01*
X49877143Y-103945714D01*
X49781905Y-103898095D01*
X49591429Y-103850476D01*
X49353333Y-103850476D01*
X49162857Y-103898095D01*
X49067619Y-103945714D01*
X49020000Y-103993333D01*
X48972381Y-104088571D01*
X131902381Y-53716667D02*
X132616667Y-53716667D01*
X132759524Y-53669047D01*
X132854762Y-53573809D01*
X132902381Y-53430952D01*
X132902381Y-53335714D01*
X131997619Y-54145238D02*
X131950000Y-54192857D01*
X131902381Y-54288095D01*
X131902381Y-54526191D01*
X131950000Y-54621429D01*
X131997619Y-54669048D01*
X132092857Y-54716667D01*
X132188095Y-54716667D01*
X132330952Y-54669048D01*
X132902381Y-54097619D01*
X132902381Y-54716667D01*
X126492857Y-60252381D02*
X126969048Y-60252381D01*
X126969048Y-59252381D01*
X125635714Y-60252381D02*
X126207143Y-60252381D01*
X125921429Y-60252381D02*
X125921429Y-59252381D01*
X126016667Y-59395238D01*
X126111905Y-59490476D01*
X126207143Y-59538095D01*
X125302381Y-59252381D02*
X124683333Y-59252381D01*
X125016667Y-59633333D01*
X124873809Y-59633333D01*
X124778571Y-59680952D01*
X124730952Y-59728571D01*
X124683333Y-59823810D01*
X124683333Y-60061905D01*
X124730952Y-60157143D01*
X124778571Y-60204762D01*
X124873809Y-60252381D01*
X125159524Y-60252381D01*
X125254762Y-60204762D01*
X125302381Y-60157143D01*
X122692857Y-38757143D02*
X122740476Y-38804762D01*
X122883333Y-38852381D01*
X122978571Y-38852381D01*
X123121429Y-38804762D01*
X123216667Y-38709524D01*
X123264286Y-38614286D01*
X123311905Y-38423810D01*
X123311905Y-38280952D01*
X123264286Y-38090476D01*
X123216667Y-37995238D01*
X123121429Y-37900000D01*
X122978571Y-37852381D01*
X122883333Y-37852381D01*
X122740476Y-37900000D01*
X122692857Y-37947619D01*
X122359524Y-37852381D02*
X121692857Y-37852381D01*
X122121429Y-38852381D01*
X121407143Y-37852381D02*
X120740476Y-37852381D01*
X121169048Y-38852381D01*
X130902381Y-41416667D02*
X131616667Y-41416667D01*
X131759524Y-41369047D01*
X131854762Y-41273809D01*
X131902381Y-41130952D01*
X131902381Y-41035714D01*
X131902381Y-42416667D02*
X131902381Y-41845238D01*
X131902381Y-42130952D02*
X130902381Y-42130952D01*
X131045238Y-42035714D01*
X131140476Y-41940476D01*
X131188095Y-41845238D01*
X119952381Y-46133334D02*
X119952381Y-45657143D01*
X118952381Y-45657143D01*
X118952381Y-46371429D02*
X118952381Y-46990477D01*
X119333333Y-46657143D01*
X119333333Y-46800001D01*
X119380952Y-46895239D01*
X119428571Y-46942858D01*
X119523810Y-46990477D01*
X119761905Y-46990477D01*
X119857143Y-46942858D01*
X119904762Y-46895239D01*
X119952381Y-46800001D01*
X119952381Y-46514286D01*
X119904762Y-46419048D01*
X119857143Y-46371429D01*
X125617857Y-69902381D02*
X126094048Y-69902381D01*
X126094048Y-68902381D01*
X124760714Y-69902381D02*
X125332143Y-69902381D01*
X125046429Y-69902381D02*
X125046429Y-68902381D01*
X125141667Y-69045238D01*
X125236905Y-69140476D01*
X125332143Y-69188095D01*
X124379762Y-68997619D02*
X124332143Y-68950000D01*
X124236905Y-68902381D01*
X123998809Y-68902381D01*
X123903571Y-68950000D01*
X123855952Y-68997619D01*
X123808333Y-69092857D01*
X123808333Y-69188095D01*
X123855952Y-69330952D01*
X124427381Y-69902381D01*
X123808333Y-69902381D01*
X95766666Y-72482381D02*
X96242857Y-72482381D01*
X96242857Y-71482381D01*
X94909523Y-72482381D02*
X95480952Y-72482381D01*
X95195238Y-72482381D02*
X95195238Y-71482381D01*
X95290476Y-71625238D01*
X95385714Y-71720476D01*
X95480952Y-71768095D01*
X68866666Y-44402381D02*
X69342857Y-44402381D01*
X69342857Y-43402381D01*
X68104761Y-43735714D02*
X68104761Y-44402381D01*
X68342857Y-43354762D02*
X68580952Y-44069048D01*
X67961904Y-44069048D01*
X68666666Y-37052381D02*
X69142857Y-37052381D01*
X69142857Y-36052381D01*
X67857142Y-36052381D02*
X68333333Y-36052381D01*
X68380952Y-36528571D01*
X68333333Y-36480952D01*
X68238095Y-36433333D01*
X67999999Y-36433333D01*
X67904761Y-36480952D01*
X67857142Y-36528571D01*
X67809523Y-36623810D01*
X67809523Y-36861905D01*
X67857142Y-36957143D01*
X67904761Y-37004762D01*
X67999999Y-37052381D01*
X68238095Y-37052381D01*
X68333333Y-37004762D01*
X68380952Y-36957143D01*
X116852381Y-68657143D02*
X116852381Y-68180952D01*
X115852381Y-68180952D01*
X116852381Y-69514286D02*
X116852381Y-68942857D01*
X116852381Y-69228571D02*
X115852381Y-69228571D01*
X115995238Y-69133333D01*
X116090476Y-69038095D01*
X116138095Y-68942857D01*
X115852381Y-70133333D02*
X115852381Y-70228572D01*
X115900000Y-70323810D01*
X115947619Y-70371429D01*
X116042857Y-70419048D01*
X116233333Y-70466667D01*
X116471429Y-70466667D01*
X116661905Y-70419048D01*
X116757143Y-70371429D01*
X116804762Y-70323810D01*
X116852381Y-70228572D01*
X116852381Y-70133333D01*
X116804762Y-70038095D01*
X116757143Y-69990476D01*
X116661905Y-69942857D01*
X116471429Y-69895238D01*
X116233333Y-69895238D01*
X116042857Y-69942857D01*
X115947619Y-69990476D01*
X115900000Y-70038095D01*
X115852381Y-70133333D01*
X57777857Y-58522143D02*
X57825476Y-58569762D01*
X57968333Y-58617381D01*
X58063571Y-58617381D01*
X58206429Y-58569762D01*
X58301667Y-58474524D01*
X58349286Y-58379286D01*
X58396905Y-58188810D01*
X58396905Y-58045952D01*
X58349286Y-57855476D01*
X58301667Y-57760238D01*
X58206429Y-57665000D01*
X58063571Y-57617381D01*
X57968333Y-57617381D01*
X57825476Y-57665000D01*
X57777857Y-57712619D01*
X56920714Y-57950714D02*
X56920714Y-58617381D01*
X57158810Y-57569762D02*
X57396905Y-58284048D01*
X56777857Y-58284048D01*
X55968333Y-57617381D02*
X56158810Y-57617381D01*
X56254048Y-57665000D01*
X56301667Y-57712619D01*
X56396905Y-57855476D01*
X56444524Y-58045952D01*
X56444524Y-58426905D01*
X56396905Y-58522143D01*
X56349286Y-58569762D01*
X56254048Y-58617381D01*
X56063571Y-58617381D01*
X55968333Y-58569762D01*
X55920714Y-58522143D01*
X55873095Y-58426905D01*
X55873095Y-58188810D01*
X55920714Y-58093571D01*
X55968333Y-58045952D01*
X56063571Y-57998333D01*
X56254048Y-57998333D01*
X56349286Y-58045952D01*
X56396905Y-58093571D01*
X56444524Y-58188810D01*
X144042857Y-94757143D02*
X144090476Y-94804762D01*
X144233333Y-94852381D01*
X144328571Y-94852381D01*
X144471429Y-94804762D01*
X144566667Y-94709524D01*
X144614286Y-94614286D01*
X144661905Y-94423810D01*
X144661905Y-94280952D01*
X144614286Y-94090476D01*
X144566667Y-93995238D01*
X144471429Y-93900000D01*
X144328571Y-93852381D01*
X144233333Y-93852381D01*
X144090476Y-93900000D01*
X144042857Y-93947619D01*
X143709524Y-93852381D02*
X143042857Y-93852381D01*
X143471429Y-94852381D01*
X142185714Y-93852381D02*
X142661905Y-93852381D01*
X142709524Y-94328571D01*
X142661905Y-94280952D01*
X142566667Y-94233333D01*
X142328571Y-94233333D01*
X142233333Y-94280952D01*
X142185714Y-94328571D01*
X142138095Y-94423810D01*
X142138095Y-94661905D01*
X142185714Y-94757143D01*
X142233333Y-94804762D01*
X142328571Y-94852381D01*
X142566667Y-94852381D01*
X142661905Y-94804762D01*
X142709524Y-94757143D01*
X143089285Y-76957143D02*
X143136904Y-77004762D01*
X143279761Y-77052381D01*
X143374999Y-77052381D01*
X143517857Y-77004762D01*
X143613095Y-76909524D01*
X143660714Y-76814286D01*
X143708333Y-76623810D01*
X143708333Y-76480952D01*
X143660714Y-76290476D01*
X143613095Y-76195238D01*
X143517857Y-76100000D01*
X143374999Y-76052381D01*
X143279761Y-76052381D01*
X143136904Y-76100000D01*
X143089285Y-76147619D01*
X142470238Y-76052381D02*
X142279761Y-76052381D01*
X142184523Y-76100000D01*
X142089285Y-76195238D01*
X142041666Y-76385714D01*
X142041666Y-76719048D01*
X142089285Y-76909524D01*
X142184523Y-77004762D01*
X142279761Y-77052381D01*
X142470238Y-77052381D01*
X142565476Y-77004762D01*
X142660714Y-76909524D01*
X142708333Y-76719048D01*
X142708333Y-76385714D01*
X142660714Y-76195238D01*
X142565476Y-76100000D01*
X142470238Y-76052381D01*
X141613095Y-77052381D02*
X141613095Y-76052381D01*
X141041666Y-77052381D01*
X141041666Y-76052381D01*
X140041666Y-77052381D02*
X140613095Y-77052381D01*
X140327381Y-77052381D02*
X140327381Y-76052381D01*
X140422619Y-76195238D01*
X140517857Y-76290476D01*
X140613095Y-76338095D01*
X75457143Y-65457143D02*
X75504762Y-65409524D01*
X75552381Y-65266667D01*
X75552381Y-65171429D01*
X75504762Y-65028571D01*
X75409524Y-64933333D01*
X75314286Y-64885714D01*
X75123810Y-64838095D01*
X74980952Y-64838095D01*
X74790476Y-64885714D01*
X74695238Y-64933333D01*
X74600000Y-65028571D01*
X74552381Y-65171429D01*
X74552381Y-65266667D01*
X74600000Y-65409524D01*
X74647619Y-65457143D01*
X74647619Y-65838095D02*
X74600000Y-65885714D01*
X74552381Y-65980952D01*
X74552381Y-66219048D01*
X74600000Y-66314286D01*
X74647619Y-66361905D01*
X74742857Y-66409524D01*
X74838095Y-66409524D01*
X74980952Y-66361905D01*
X75552381Y-65790476D01*
X75552381Y-66409524D01*
X74885714Y-67266667D02*
X75552381Y-67266667D01*
X74504762Y-67028571D02*
X75219048Y-66790476D01*
X75219048Y-67409524D01*
X66997143Y-65557143D02*
X67044762Y-65509524D01*
X67092381Y-65366667D01*
X67092381Y-65271429D01*
X67044762Y-65128571D01*
X66949524Y-65033333D01*
X66854286Y-64985714D01*
X66663810Y-64938095D01*
X66520952Y-64938095D01*
X66330476Y-64985714D01*
X66235238Y-65033333D01*
X66140000Y-65128571D01*
X66092381Y-65271429D01*
X66092381Y-65366667D01*
X66140000Y-65509524D01*
X66187619Y-65557143D01*
X66187619Y-65938095D02*
X66140000Y-65985714D01*
X66092381Y-66080952D01*
X66092381Y-66319048D01*
X66140000Y-66414286D01*
X66187619Y-66461905D01*
X66282857Y-66509524D01*
X66378095Y-66509524D01*
X66520952Y-66461905D01*
X67092381Y-65890476D01*
X67092381Y-66509524D01*
X66092381Y-67414286D02*
X66092381Y-66938095D01*
X66568571Y-66890476D01*
X66520952Y-66938095D01*
X66473333Y-67033333D01*
X66473333Y-67271429D01*
X66520952Y-67366667D01*
X66568571Y-67414286D01*
X66663810Y-67461905D01*
X66901905Y-67461905D01*
X66997143Y-67414286D01*
X67044762Y-67366667D01*
X67092381Y-67271429D01*
X67092381Y-67033333D01*
X67044762Y-66938095D01*
X66997143Y-66890476D01*
X64767857Y-57777381D02*
X65244048Y-57777381D01*
X65244048Y-56777381D01*
X64482143Y-56872619D02*
X64434524Y-56825000D01*
X64339286Y-56777381D01*
X64101190Y-56777381D01*
X64005952Y-56825000D01*
X63958333Y-56872619D01*
X63910714Y-56967857D01*
X63910714Y-57063095D01*
X63958333Y-57205952D01*
X64529762Y-57777381D01*
X63910714Y-57777381D01*
X63529762Y-56872619D02*
X63482143Y-56825000D01*
X63386905Y-56777381D01*
X63148809Y-56777381D01*
X63053571Y-56825000D01*
X63005952Y-56872619D01*
X62958333Y-56967857D01*
X62958333Y-57063095D01*
X63005952Y-57205952D01*
X63577381Y-57777381D01*
X62958333Y-57777381D01*
X100966191Y-113426190D02*
X100966191Y-113902381D01*
X101299524Y-112902381D02*
X100966191Y-113426190D01*
X100632857Y-112902381D01*
X99823333Y-112902381D02*
X100299524Y-112902381D01*
X100347143Y-113378571D01*
X100299524Y-113330952D01*
X100204286Y-113283333D01*
X99966190Y-113283333D01*
X99870952Y-113330952D01*
X99823333Y-113378571D01*
X99775714Y-113473810D01*
X99775714Y-113711905D01*
X99823333Y-113807143D01*
X99870952Y-113854762D01*
X99966190Y-113902381D01*
X100204286Y-113902381D01*
X100299524Y-113854762D01*
X100347143Y-113807143D01*
X89138095Y-125152381D02*
X89138095Y-124152381D01*
X88757142Y-124152381D01*
X88661904Y-124200000D01*
X88614285Y-124247619D01*
X88566666Y-124342857D01*
X88566666Y-124485714D01*
X88614285Y-124580952D01*
X88661904Y-124628571D01*
X88757142Y-124676190D01*
X89138095Y-124676190D01*
X88185714Y-124247619D02*
X88138095Y-124200000D01*
X88042857Y-124152381D01*
X87804761Y-124152381D01*
X87709523Y-124200000D01*
X87661904Y-124247619D01*
X87614285Y-124342857D01*
X87614285Y-124438095D01*
X87661904Y-124580952D01*
X88233333Y-125152381D01*
X87614285Y-125152381D01*
X49582143Y-65532143D02*
X49629762Y-65484524D01*
X49677381Y-65341667D01*
X49677381Y-65246429D01*
X49629762Y-65103571D01*
X49534524Y-65008333D01*
X49439286Y-64960714D01*
X49248810Y-64913095D01*
X49105952Y-64913095D01*
X48915476Y-64960714D01*
X48820238Y-65008333D01*
X48725000Y-65103571D01*
X48677381Y-65246429D01*
X48677381Y-65341667D01*
X48725000Y-65484524D01*
X48772619Y-65532143D01*
X49677381Y-66484524D02*
X49677381Y-65913095D01*
X49677381Y-66198809D02*
X48677381Y-66198809D01*
X48820238Y-66103571D01*
X48915476Y-66008333D01*
X48963095Y-65913095D01*
X48677381Y-67103571D02*
X48677381Y-67198810D01*
X48725000Y-67294048D01*
X48772619Y-67341667D01*
X48867857Y-67389286D01*
X49058333Y-67436905D01*
X49296429Y-67436905D01*
X49486905Y-67389286D01*
X49582143Y-67341667D01*
X49629762Y-67294048D01*
X49677381Y-67198810D01*
X49677381Y-67103571D01*
X49629762Y-67008333D01*
X49582143Y-66960714D01*
X49486905Y-66913095D01*
X49296429Y-66865476D01*
X49058333Y-66865476D01*
X48867857Y-66913095D01*
X48772619Y-66960714D01*
X48725000Y-67008333D01*
X48677381Y-67103571D01*
X59920381Y-101691143D02*
X59920381Y-101214952D01*
X58920381Y-101214952D01*
X59015619Y-101976857D02*
X58968000Y-102024476D01*
X58920381Y-102119714D01*
X58920381Y-102357810D01*
X58968000Y-102453048D01*
X59015619Y-102500667D01*
X59110857Y-102548286D01*
X59206095Y-102548286D01*
X59348952Y-102500667D01*
X59920381Y-101929238D01*
X59920381Y-102548286D01*
X58920381Y-103453048D02*
X58920381Y-102976857D01*
X59396571Y-102929238D01*
X59348952Y-102976857D01*
X59301333Y-103072095D01*
X59301333Y-103310191D01*
X59348952Y-103405429D01*
X59396571Y-103453048D01*
X59491810Y-103500667D01*
X59729905Y-103500667D01*
X59825143Y-103453048D01*
X59872762Y-103405429D01*
X59920381Y-103310191D01*
X59920381Y-103072095D01*
X59872762Y-102976857D01*
X59825143Y-102929238D01*
X49414286Y-111452381D02*
X49414286Y-110452381D01*
X49176191Y-110452381D01*
X49033333Y-110500000D01*
X48938095Y-110595238D01*
X48890476Y-110690476D01*
X48842857Y-110880952D01*
X48842857Y-111023810D01*
X48890476Y-111214286D01*
X48938095Y-111309524D01*
X49033333Y-111404762D01*
X49176191Y-111452381D01*
X49414286Y-111452381D01*
X47890476Y-111452381D02*
X48461905Y-111452381D01*
X48176191Y-111452381D02*
X48176191Y-110452381D01*
X48271429Y-110595238D01*
X48366667Y-110690476D01*
X48461905Y-110738095D01*
X46938095Y-111452381D02*
X47509524Y-111452381D01*
X47223810Y-111452381D02*
X47223810Y-110452381D01*
X47319048Y-110595238D01*
X47414286Y-110690476D01*
X47509524Y-110738095D01*
X119382381Y-121361905D02*
X118382381Y-121361905D01*
X118382381Y-121742858D01*
X118430000Y-121838096D01*
X118477619Y-121885715D01*
X118572857Y-121933334D01*
X118715714Y-121933334D01*
X118810952Y-121885715D01*
X118858571Y-121838096D01*
X118906190Y-121742858D01*
X118906190Y-121361905D01*
X118715714Y-122790477D02*
X119382381Y-122790477D01*
X118334762Y-122552381D02*
X119049048Y-122314286D01*
X119049048Y-122933334D01*
X121232381Y-109436905D02*
X120232381Y-109436905D01*
X120232381Y-109817858D01*
X120280000Y-109913096D01*
X120327619Y-109960715D01*
X120422857Y-110008334D01*
X120565714Y-110008334D01*
X120660952Y-109960715D01*
X120708571Y-109913096D01*
X120756190Y-109817858D01*
X120756190Y-109436905D01*
X120232381Y-110913096D02*
X120232381Y-110436905D01*
X120708571Y-110389286D01*
X120660952Y-110436905D01*
X120613333Y-110532143D01*
X120613333Y-110770239D01*
X120660952Y-110865477D01*
X120708571Y-110913096D01*
X120803810Y-110960715D01*
X121041905Y-110960715D01*
X121137143Y-110913096D01*
X121184762Y-110865477D01*
X121232381Y-110770239D01*
X121232381Y-110532143D01*
X121184762Y-110436905D01*
X121137143Y-110389286D01*
X129182381Y-115615714D02*
X128182381Y-115615714D01*
X128182381Y-115853809D01*
X128230000Y-115996667D01*
X128325238Y-116091905D01*
X128420476Y-116139524D01*
X128610952Y-116187143D01*
X128753810Y-116187143D01*
X128944286Y-116139524D01*
X129039524Y-116091905D01*
X129134762Y-115996667D01*
X129182381Y-115853809D01*
X129182381Y-115615714D01*
X129182381Y-117139524D02*
X129182381Y-116568095D01*
X129182381Y-116853809D02*
X128182381Y-116853809D01*
X128325238Y-116758571D01*
X128420476Y-116663333D01*
X128468095Y-116568095D01*
X128277619Y-117520476D02*
X128230000Y-117568095D01*
X128182381Y-117663333D01*
X128182381Y-117901429D01*
X128230000Y-117996667D01*
X128277619Y-118044286D01*
X128372857Y-118091905D01*
X128468095Y-118091905D01*
X128610952Y-118044286D01*
X129182381Y-117472857D01*
X129182381Y-118091905D01*
X127992095Y-77922381D02*
X127992095Y-76922381D01*
X127420666Y-77922381D02*
X127849238Y-77350952D01*
X127420666Y-76922381D02*
X127992095Y-77493810D01*
X126468285Y-77922381D02*
X127039714Y-77922381D01*
X126754000Y-77922381D02*
X126754000Y-76922381D01*
X126849238Y-77065238D01*
X126944476Y-77160476D01*
X127039714Y-77208095D01*
X135388095Y-94627381D02*
X135388095Y-93627381D01*
X135007142Y-93627381D01*
X134911904Y-93675000D01*
X134864285Y-93722619D01*
X134816666Y-93817857D01*
X134816666Y-93960714D01*
X134864285Y-94055952D01*
X134911904Y-94103571D01*
X135007142Y-94151190D01*
X135388095Y-94151190D01*
X133864285Y-94627381D02*
X134435714Y-94627381D01*
X134150000Y-94627381D02*
X134150000Y-93627381D01*
X134245238Y-93770238D01*
X134340476Y-93865476D01*
X134435714Y-93913095D01*
X99685238Y-78767619D02*
X99780476Y-78720000D01*
X99875714Y-78624762D01*
X100018571Y-78481905D01*
X100113810Y-78434286D01*
X100209048Y-78434286D01*
X100161429Y-78672381D02*
X100256667Y-78624762D01*
X100351905Y-78529524D01*
X100399524Y-78339048D01*
X100399524Y-78005714D01*
X100351905Y-77815238D01*
X100256667Y-77720000D01*
X100161429Y-77672381D01*
X99970952Y-77672381D01*
X99875714Y-77720000D01*
X99780476Y-77815238D01*
X99732857Y-78005714D01*
X99732857Y-78339048D01*
X99780476Y-78529524D01*
X99875714Y-78624762D01*
X99970952Y-78672381D01*
X100161429Y-78672381D01*
X98780476Y-78672381D02*
X99351905Y-78672381D01*
X99066191Y-78672381D02*
X99066191Y-77672381D01*
X99161429Y-77815238D01*
X99256667Y-77910476D01*
X99351905Y-77958095D01*
X129726666Y-101002381D02*
X130202857Y-101002381D01*
X130202857Y-100002381D01*
X129440952Y-100097619D02*
X129393333Y-100050000D01*
X129298095Y-100002381D01*
X129059999Y-100002381D01*
X128964761Y-100050000D01*
X128917142Y-100097619D01*
X128869523Y-100192857D01*
X128869523Y-100288095D01*
X128917142Y-100430952D01*
X129488571Y-101002381D01*
X128869523Y-101002381D01*
X127077143Y-100997143D02*
X127124762Y-100949524D01*
X127172381Y-100806667D01*
X127172381Y-100711429D01*
X127124762Y-100568571D01*
X127029524Y-100473333D01*
X126934286Y-100425714D01*
X126743810Y-100378095D01*
X126600952Y-100378095D01*
X126410476Y-100425714D01*
X126315238Y-100473333D01*
X126220000Y-100568571D01*
X126172381Y-100711429D01*
X126172381Y-100806667D01*
X126220000Y-100949524D01*
X126267619Y-100997143D01*
X126505714Y-101854286D02*
X127172381Y-101854286D01*
X126124762Y-101616190D02*
X126839048Y-101378095D01*
X126839048Y-101997143D01*
X126267619Y-102330476D02*
X126220000Y-102378095D01*
X126172381Y-102473333D01*
X126172381Y-102711429D01*
X126220000Y-102806667D01*
X126267619Y-102854286D01*
X126362857Y-102901905D01*
X126458095Y-102901905D01*
X126600952Y-102854286D01*
X127172381Y-102282857D01*
X127172381Y-102901905D01*
X125391429Y-94689048D02*
X125391429Y-95450953D01*
X125772381Y-95070001D02*
X125010476Y-95070001D01*
X94416666Y-105027381D02*
X94892857Y-105027381D01*
X94892857Y-104027381D01*
X93654761Y-104027381D02*
X93845238Y-104027381D01*
X93940476Y-104075000D01*
X93988095Y-104122619D01*
X94083333Y-104265476D01*
X94130952Y-104455952D01*
X94130952Y-104836905D01*
X94083333Y-104932143D01*
X94035714Y-104979762D01*
X93940476Y-105027381D01*
X93749999Y-105027381D01*
X93654761Y-104979762D01*
X93607142Y-104932143D01*
X93559523Y-104836905D01*
X93559523Y-104598810D01*
X93607142Y-104503571D01*
X93654761Y-104455952D01*
X93749999Y-104408333D01*
X93940476Y-104408333D01*
X94035714Y-104455952D01*
X94083333Y-104503571D01*
X94130952Y-104598810D01*
X87527381Y-86888095D02*
X87527381Y-87459524D01*
X88527381Y-87173809D02*
X87527381Y-87173809D01*
X87622619Y-87745238D02*
X87575000Y-87792857D01*
X87527381Y-87888095D01*
X87527381Y-88126191D01*
X87575000Y-88221429D01*
X87622619Y-88269048D01*
X87717857Y-88316667D01*
X87813095Y-88316667D01*
X87955952Y-88269048D01*
X88527381Y-87697619D01*
X88527381Y-88316667D01*
X87055238Y-100362381D02*
X87388572Y-99886190D01*
X87626667Y-100362381D02*
X87626667Y-99362381D01*
X87245714Y-99362381D01*
X87150476Y-99410000D01*
X87102857Y-99457619D01*
X87055238Y-99552857D01*
X87055238Y-99695714D01*
X87102857Y-99790952D01*
X87150476Y-99838571D01*
X87245714Y-99886190D01*
X87626667Y-99886190D01*
X86769524Y-99362381D02*
X86436191Y-100362381D01*
X86102857Y-99362381D01*
X85245714Y-100362381D02*
X85817143Y-100362381D01*
X85531429Y-100362381D02*
X85531429Y-99362381D01*
X85626667Y-99505238D01*
X85721905Y-99600476D01*
X85817143Y-99648095D01*
X82938095Y-104427381D02*
X82938095Y-105236905D01*
X82890476Y-105332143D01*
X82842857Y-105379762D01*
X82747619Y-105427381D01*
X82557142Y-105427381D01*
X82461904Y-105379762D01*
X82414285Y-105332143D01*
X82366666Y-105236905D01*
X82366666Y-104427381D01*
X81938095Y-104522619D02*
X81890476Y-104475000D01*
X81795238Y-104427381D01*
X81557142Y-104427381D01*
X81461904Y-104475000D01*
X81414285Y-104522619D01*
X81366666Y-104617857D01*
X81366666Y-104713095D01*
X81414285Y-104855952D01*
X81985714Y-105427381D01*
X81366666Y-105427381D01*
X81033333Y-104427381D02*
X80366666Y-104427381D01*
X80795238Y-105427381D01*
X127116857Y-73962381D02*
X127593048Y-73962381D01*
X127593048Y-72962381D01*
X126831143Y-73057619D02*
X126783524Y-73010000D01*
X126688286Y-72962381D01*
X126450190Y-72962381D01*
X126354952Y-73010000D01*
X126307333Y-73057619D01*
X126259714Y-73152857D01*
X126259714Y-73248095D01*
X126307333Y-73390952D01*
X126878762Y-73962381D01*
X126259714Y-73962381D01*
X125402571Y-73295714D02*
X125402571Y-73962381D01*
X125640667Y-72914762D02*
X125878762Y-73629048D01*
X125259714Y-73629048D01*
X58597143Y-65557143D02*
X58644762Y-65509524D01*
X58692381Y-65366667D01*
X58692381Y-65271429D01*
X58644762Y-65128571D01*
X58549524Y-65033333D01*
X58454286Y-64985714D01*
X58263810Y-64938095D01*
X58120952Y-64938095D01*
X57930476Y-64985714D01*
X57835238Y-65033333D01*
X57740000Y-65128571D01*
X57692381Y-65271429D01*
X57692381Y-65366667D01*
X57740000Y-65509524D01*
X57787619Y-65557143D01*
X58692381Y-66033333D02*
X58692381Y-66223809D01*
X58644762Y-66319048D01*
X58597143Y-66366667D01*
X58454286Y-66461905D01*
X58263810Y-66509524D01*
X57882857Y-66509524D01*
X57787619Y-66461905D01*
X57740000Y-66414286D01*
X57692381Y-66319048D01*
X57692381Y-66128571D01*
X57740000Y-66033333D01*
X57787619Y-65985714D01*
X57882857Y-65938095D01*
X58120952Y-65938095D01*
X58216190Y-65985714D01*
X58263810Y-66033333D01*
X58311429Y-66128571D01*
X58311429Y-66319048D01*
X58263810Y-66414286D01*
X58216190Y-66461905D01*
X58120952Y-66509524D01*
X58692381Y-67461905D02*
X58692381Y-66890476D01*
X58692381Y-67176190D02*
X57692381Y-67176190D01*
X57835238Y-67080952D01*
X57930476Y-66985714D01*
X57978095Y-66890476D01*
X80857143Y-72757143D02*
X80904762Y-72709524D01*
X80952381Y-72566667D01*
X80952381Y-72471429D01*
X80904762Y-72328571D01*
X80809524Y-72233333D01*
X80714286Y-72185714D01*
X80523810Y-72138095D01*
X80380952Y-72138095D01*
X80190476Y-72185714D01*
X80095238Y-72233333D01*
X80000000Y-72328571D01*
X79952381Y-72471429D01*
X79952381Y-72566667D01*
X80000000Y-72709524D01*
X80047619Y-72757143D01*
X80952381Y-73233333D02*
X80952381Y-73423809D01*
X80904762Y-73519048D01*
X80857143Y-73566667D01*
X80714286Y-73661905D01*
X80523810Y-73709524D01*
X80142857Y-73709524D01*
X80047619Y-73661905D01*
X80000000Y-73614286D01*
X79952381Y-73519048D01*
X79952381Y-73328571D01*
X80000000Y-73233333D01*
X80047619Y-73185714D01*
X80142857Y-73138095D01*
X80380952Y-73138095D01*
X80476190Y-73185714D01*
X80523810Y-73233333D01*
X80571429Y-73328571D01*
X80571429Y-73519048D01*
X80523810Y-73614286D01*
X80476190Y-73661905D01*
X80380952Y-73709524D01*
X80047619Y-74090476D02*
X80000000Y-74138095D01*
X79952381Y-74233333D01*
X79952381Y-74471429D01*
X80000000Y-74566667D01*
X80047619Y-74614286D01*
X80142857Y-74661905D01*
X80238095Y-74661905D01*
X80380952Y-74614286D01*
X80952381Y-74042857D01*
X80952381Y-74661905D01*
X52324261Y-44564063D02*
X52324261Y-44087872D01*
X51324261Y-44087872D01*
X51419499Y-44849777D02*
X51371880Y-44897396D01*
X51324261Y-44992634D01*
X51324261Y-45230730D01*
X51371880Y-45325968D01*
X51419499Y-45373587D01*
X51514737Y-45421206D01*
X51609975Y-45421206D01*
X51752832Y-45373587D01*
X52324261Y-44802158D01*
X52324261Y-45421206D01*
X51324261Y-46278349D02*
X51324261Y-46087872D01*
X51371880Y-45992634D01*
X51419499Y-45945015D01*
X51562356Y-45849777D01*
X51752832Y-45802158D01*
X52133785Y-45802158D01*
X52229023Y-45849777D01*
X52276642Y-45897396D01*
X52324261Y-45992634D01*
X52324261Y-46183111D01*
X52276642Y-46278349D01*
X52229023Y-46325968D01*
X52133785Y-46373587D01*
X51895690Y-46373587D01*
X51800451Y-46325968D01*
X51752832Y-46278349D01*
X51705213Y-46183111D01*
X51705213Y-45992634D01*
X51752832Y-45897396D01*
X51800451Y-45849777D01*
X51895690Y-45802158D01*
X80482857Y-125517143D02*
X80530476Y-125564762D01*
X80673333Y-125612381D01*
X80768571Y-125612381D01*
X80911429Y-125564762D01*
X81006667Y-125469524D01*
X81054286Y-125374286D01*
X81101905Y-125183810D01*
X81101905Y-125040952D01*
X81054286Y-124850476D01*
X81006667Y-124755238D01*
X80911429Y-124660000D01*
X80768571Y-124612381D01*
X80673333Y-124612381D01*
X80530476Y-124660000D01*
X80482857Y-124707619D01*
X80006667Y-125612381D02*
X79816191Y-125612381D01*
X79720952Y-125564762D01*
X79673333Y-125517143D01*
X79578095Y-125374286D01*
X79530476Y-125183810D01*
X79530476Y-124802857D01*
X79578095Y-124707619D01*
X79625714Y-124660000D01*
X79720952Y-124612381D01*
X79911429Y-124612381D01*
X80006667Y-124660000D01*
X80054286Y-124707619D01*
X80101905Y-124802857D01*
X80101905Y-125040952D01*
X80054286Y-125136190D01*
X80006667Y-125183810D01*
X79911429Y-125231429D01*
X79720952Y-125231429D01*
X79625714Y-125183810D01*
X79578095Y-125136190D01*
X79530476Y-125040952D01*
X78959048Y-125040952D02*
X79054286Y-124993333D01*
X79101905Y-124945714D01*
X79149524Y-124850476D01*
X79149524Y-124802857D01*
X79101905Y-124707619D01*
X79054286Y-124660000D01*
X78959048Y-124612381D01*
X78768571Y-124612381D01*
X78673333Y-124660000D01*
X78625714Y-124707619D01*
X78578095Y-124802857D01*
X78578095Y-124850476D01*
X78625714Y-124945714D01*
X78673333Y-124993333D01*
X78768571Y-125040952D01*
X78959048Y-125040952D01*
X79054286Y-125088571D01*
X79101905Y-125136190D01*
X79149524Y-125231429D01*
X79149524Y-125421905D01*
X79101905Y-125517143D01*
X79054286Y-125564762D01*
X78959048Y-125612381D01*
X78768571Y-125612381D01*
X78673333Y-125564762D01*
X78625714Y-125517143D01*
X78578095Y-125421905D01*
X78578095Y-125231429D01*
X78625714Y-125136190D01*
X78673333Y-125088571D01*
X78768571Y-125040952D01*
X90392857Y-107947143D02*
X90440476Y-107994762D01*
X90583333Y-108042381D01*
X90678571Y-108042381D01*
X90821429Y-107994762D01*
X90916667Y-107899524D01*
X90964286Y-107804286D01*
X91011905Y-107613810D01*
X91011905Y-107470952D01*
X90964286Y-107280476D01*
X90916667Y-107185238D01*
X90821429Y-107090000D01*
X90678571Y-107042381D01*
X90583333Y-107042381D01*
X90440476Y-107090000D01*
X90392857Y-107137619D01*
X89488095Y-107042381D02*
X89964286Y-107042381D01*
X90011905Y-107518571D01*
X89964286Y-107470952D01*
X89869048Y-107423333D01*
X89630952Y-107423333D01*
X89535714Y-107470952D01*
X89488095Y-107518571D01*
X89440476Y-107613810D01*
X89440476Y-107851905D01*
X89488095Y-107947143D01*
X89535714Y-107994762D01*
X89630952Y-108042381D01*
X89869048Y-108042381D01*
X89964286Y-107994762D01*
X90011905Y-107947143D01*
X88535714Y-107042381D02*
X89011905Y-107042381D01*
X89059524Y-107518571D01*
X89011905Y-107470952D01*
X88916667Y-107423333D01*
X88678571Y-107423333D01*
X88583333Y-107470952D01*
X88535714Y-107518571D01*
X88488095Y-107613810D01*
X88488095Y-107851905D01*
X88535714Y-107947143D01*
X88583333Y-107994762D01*
X88678571Y-108042381D01*
X88916667Y-108042381D01*
X89011905Y-107994762D01*
X89059524Y-107947143D01*
X71782857Y-125317143D02*
X71830476Y-125364762D01*
X71973333Y-125412381D01*
X72068571Y-125412381D01*
X72211429Y-125364762D01*
X72306667Y-125269524D01*
X72354286Y-125174286D01*
X72401905Y-124983810D01*
X72401905Y-124840952D01*
X72354286Y-124650476D01*
X72306667Y-124555238D01*
X72211429Y-124460000D01*
X72068571Y-124412381D01*
X71973333Y-124412381D01*
X71830476Y-124460000D01*
X71782857Y-124507619D01*
X71306667Y-125412381D02*
X71116191Y-125412381D01*
X71020952Y-125364762D01*
X70973333Y-125317143D01*
X70878095Y-125174286D01*
X70830476Y-124983810D01*
X70830476Y-124602857D01*
X70878095Y-124507619D01*
X70925714Y-124460000D01*
X71020952Y-124412381D01*
X71211429Y-124412381D01*
X71306667Y-124460000D01*
X71354286Y-124507619D01*
X71401905Y-124602857D01*
X71401905Y-124840952D01*
X71354286Y-124936190D01*
X71306667Y-124983810D01*
X71211429Y-125031429D01*
X71020952Y-125031429D01*
X70925714Y-124983810D01*
X70878095Y-124936190D01*
X70830476Y-124840952D01*
X70354286Y-125412381D02*
X70163810Y-125412381D01*
X70068571Y-125364762D01*
X70020952Y-125317143D01*
X69925714Y-125174286D01*
X69878095Y-124983810D01*
X69878095Y-124602857D01*
X69925714Y-124507619D01*
X69973333Y-124460000D01*
X70068571Y-124412381D01*
X70259048Y-124412381D01*
X70354286Y-124460000D01*
X70401905Y-124507619D01*
X70449524Y-124602857D01*
X70449524Y-124840952D01*
X70401905Y-124936190D01*
X70354286Y-124983810D01*
X70259048Y-125031429D01*
X70068571Y-125031429D01*
X69973333Y-124983810D01*
X69925714Y-124936190D01*
X69878095Y-124840952D01*
X55062381Y-120769143D02*
X54586190Y-120435809D01*
X55062381Y-120197714D02*
X54062381Y-120197714D01*
X54062381Y-120578667D01*
X54110000Y-120673905D01*
X54157619Y-120721524D01*
X54252857Y-120769143D01*
X54395714Y-120769143D01*
X54490952Y-120721524D01*
X54538571Y-120673905D01*
X54586190Y-120578667D01*
X54586190Y-120197714D01*
X54062381Y-121102476D02*
X54062381Y-121769143D01*
X55062381Y-121340571D01*
X54062381Y-122626286D02*
X54062381Y-122150095D01*
X54538571Y-122102476D01*
X54490952Y-122150095D01*
X54443333Y-122245333D01*
X54443333Y-122483429D01*
X54490952Y-122578667D01*
X54538571Y-122626286D01*
X54633810Y-122673905D01*
X54871905Y-122673905D01*
X54967143Y-122626286D01*
X55014762Y-122578667D01*
X55062381Y-122483429D01*
X55062381Y-122245333D01*
X55014762Y-122150095D01*
X54967143Y-122102476D01*
X55062381Y-115943143D02*
X54586190Y-115609809D01*
X55062381Y-115371714D02*
X54062381Y-115371714D01*
X54062381Y-115752667D01*
X54110000Y-115847905D01*
X54157619Y-115895524D01*
X54252857Y-115943143D01*
X54395714Y-115943143D01*
X54490952Y-115895524D01*
X54538571Y-115847905D01*
X54586190Y-115752667D01*
X54586190Y-115371714D01*
X54062381Y-116276476D02*
X54062381Y-116943143D01*
X55062381Y-116514571D01*
X54062381Y-117752667D02*
X54062381Y-117562190D01*
X54110000Y-117466952D01*
X54157619Y-117419333D01*
X54300476Y-117324095D01*
X54490952Y-117276476D01*
X54871905Y-117276476D01*
X54967143Y-117324095D01*
X55014762Y-117371714D01*
X55062381Y-117466952D01*
X55062381Y-117657429D01*
X55014762Y-117752667D01*
X54967143Y-117800286D01*
X54871905Y-117847905D01*
X54633810Y-117847905D01*
X54538571Y-117800286D01*
X54490952Y-117752667D01*
X54443333Y-117657429D01*
X54443333Y-117466952D01*
X54490952Y-117371714D01*
X54538571Y-117324095D01*
X54633810Y-117276476D01*
X62902857Y-125172381D02*
X63379048Y-125172381D01*
X63379048Y-124172381D01*
X62617143Y-124267619D02*
X62569524Y-124220000D01*
X62474286Y-124172381D01*
X62236190Y-124172381D01*
X62140952Y-124220000D01*
X62093333Y-124267619D01*
X62045714Y-124362857D01*
X62045714Y-124458095D01*
X62093333Y-124600952D01*
X62664762Y-125172381D01*
X62045714Y-125172381D01*
X61712381Y-124172381D02*
X61045714Y-124172381D01*
X61474286Y-125172381D01*
X66890095Y-111810381D02*
X66890095Y-110810381D01*
X66652000Y-110810381D01*
X66509142Y-110858000D01*
X66413904Y-110953238D01*
X66366285Y-111048476D01*
X66318666Y-111238952D01*
X66318666Y-111381810D01*
X66366285Y-111572286D01*
X66413904Y-111667524D01*
X66509142Y-111762762D01*
X66652000Y-111810381D01*
X66890095Y-111810381D01*
X65937714Y-110905619D02*
X65890095Y-110858000D01*
X65794857Y-110810381D01*
X65556761Y-110810381D01*
X65461523Y-110858000D01*
X65413904Y-110905619D01*
X65366285Y-111000857D01*
X65366285Y-111096095D01*
X65413904Y-111238952D01*
X65985333Y-111810381D01*
X65366285Y-111810381D01*
X48902857Y-54382381D02*
X49236191Y-53906190D01*
X49474286Y-54382381D02*
X49474286Y-53382381D01*
X49093333Y-53382381D01*
X48998095Y-53430000D01*
X48950476Y-53477619D01*
X48902857Y-53572857D01*
X48902857Y-53715714D01*
X48950476Y-53810952D01*
X48998095Y-53858571D01*
X49093333Y-53906190D01*
X49474286Y-53906190D01*
X48045714Y-53382381D02*
X48236191Y-53382381D01*
X48331429Y-53430000D01*
X48379048Y-53477619D01*
X48474286Y-53620476D01*
X48521905Y-53810952D01*
X48521905Y-54191905D01*
X48474286Y-54287143D01*
X48426667Y-54334762D01*
X48331429Y-54382381D01*
X48140952Y-54382381D01*
X48045714Y-54334762D01*
X47998095Y-54287143D01*
X47950476Y-54191905D01*
X47950476Y-53953810D01*
X47998095Y-53858571D01*
X48045714Y-53810952D01*
X48140952Y-53763333D01*
X48331429Y-53763333D01*
X48426667Y-53810952D01*
X48474286Y-53858571D01*
X48521905Y-53953810D01*
X46998095Y-54382381D02*
X47569524Y-54382381D01*
X47283810Y-54382381D02*
X47283810Y-53382381D01*
X47379048Y-53525238D01*
X47474286Y-53620476D01*
X47569524Y-53668095D01*
X48902857Y-58192381D02*
X49236191Y-57716190D01*
X49474286Y-58192381D02*
X49474286Y-57192381D01*
X49093333Y-57192381D01*
X48998095Y-57240000D01*
X48950476Y-57287619D01*
X48902857Y-57382857D01*
X48902857Y-57525714D01*
X48950476Y-57620952D01*
X48998095Y-57668571D01*
X49093333Y-57716190D01*
X49474286Y-57716190D01*
X48045714Y-57192381D02*
X48236191Y-57192381D01*
X48331429Y-57240000D01*
X48379048Y-57287619D01*
X48474286Y-57430476D01*
X48521905Y-57620952D01*
X48521905Y-58001905D01*
X48474286Y-58097143D01*
X48426667Y-58144762D01*
X48331429Y-58192381D01*
X48140952Y-58192381D01*
X48045714Y-58144762D01*
X47998095Y-58097143D01*
X47950476Y-58001905D01*
X47950476Y-57763810D01*
X47998095Y-57668571D01*
X48045714Y-57620952D01*
X48140952Y-57573333D01*
X48331429Y-57573333D01*
X48426667Y-57620952D01*
X48474286Y-57668571D01*
X48521905Y-57763810D01*
X47093333Y-57525714D02*
X47093333Y-58192381D01*
X47331429Y-57144762D02*
X47569524Y-57859048D01*
X46950476Y-57859048D01*
X49857143Y-85280953D02*
X49904762Y-85233334D01*
X49952381Y-85090477D01*
X49952381Y-84995239D01*
X49904762Y-84852381D01*
X49809524Y-84757143D01*
X49714286Y-84709524D01*
X49523810Y-84661905D01*
X49380952Y-84661905D01*
X49190476Y-84709524D01*
X49095238Y-84757143D01*
X49000000Y-84852381D01*
X48952381Y-84995239D01*
X48952381Y-85090477D01*
X49000000Y-85233334D01*
X49047619Y-85280953D01*
X49952381Y-86233334D02*
X49952381Y-85661905D01*
X49952381Y-85947619D02*
X48952381Y-85947619D01*
X49095238Y-85852381D01*
X49190476Y-85757143D01*
X49238095Y-85661905D01*
X48952381Y-86852381D02*
X48952381Y-86947620D01*
X49000000Y-87042858D01*
X49047619Y-87090477D01*
X49142857Y-87138096D01*
X49333333Y-87185715D01*
X49571429Y-87185715D01*
X49761905Y-87138096D01*
X49857143Y-87090477D01*
X49904762Y-87042858D01*
X49952381Y-86947620D01*
X49952381Y-86852381D01*
X49904762Y-86757143D01*
X49857143Y-86709524D01*
X49761905Y-86661905D01*
X49571429Y-86614286D01*
X49333333Y-86614286D01*
X49142857Y-86661905D01*
X49047619Y-86709524D01*
X49000000Y-86757143D01*
X48952381Y-86852381D01*
X48952381Y-87804762D02*
X48952381Y-87900001D01*
X49000000Y-87995239D01*
X49047619Y-88042858D01*
X49142857Y-88090477D01*
X49333333Y-88138096D01*
X49571429Y-88138096D01*
X49761905Y-88090477D01*
X49857143Y-88042858D01*
X49904762Y-87995239D01*
X49952381Y-87900001D01*
X49952381Y-87804762D01*
X49904762Y-87709524D01*
X49857143Y-87661905D01*
X49761905Y-87614286D01*
X49571429Y-87566667D01*
X49333333Y-87566667D01*
X49142857Y-87614286D01*
X49047619Y-87661905D01*
X49000000Y-87709524D01*
X48952381Y-87804762D01*
X54457143Y-85280953D02*
X54504762Y-85233334D01*
X54552381Y-85090477D01*
X54552381Y-84995239D01*
X54504762Y-84852381D01*
X54409524Y-84757143D01*
X54314286Y-84709524D01*
X54123810Y-84661905D01*
X53980952Y-84661905D01*
X53790476Y-84709524D01*
X53695238Y-84757143D01*
X53600000Y-84852381D01*
X53552381Y-84995239D01*
X53552381Y-85090477D01*
X53600000Y-85233334D01*
X53647619Y-85280953D01*
X54552381Y-86233334D02*
X54552381Y-85661905D01*
X54552381Y-85947619D02*
X53552381Y-85947619D01*
X53695238Y-85852381D01*
X53790476Y-85757143D01*
X53838095Y-85661905D01*
X53552381Y-86852381D02*
X53552381Y-86947620D01*
X53600000Y-87042858D01*
X53647619Y-87090477D01*
X53742857Y-87138096D01*
X53933333Y-87185715D01*
X54171429Y-87185715D01*
X54361905Y-87138096D01*
X54457143Y-87090477D01*
X54504762Y-87042858D01*
X54552381Y-86947620D01*
X54552381Y-86852381D01*
X54504762Y-86757143D01*
X54457143Y-86709524D01*
X54361905Y-86661905D01*
X54171429Y-86614286D01*
X53933333Y-86614286D01*
X53742857Y-86661905D01*
X53647619Y-86709524D01*
X53600000Y-86757143D01*
X53552381Y-86852381D01*
X54552381Y-88138096D02*
X54552381Y-87566667D01*
X54552381Y-87852381D02*
X53552381Y-87852381D01*
X53695238Y-87757143D01*
X53790476Y-87661905D01*
X53838095Y-87566667D01*
X59957143Y-85280953D02*
X60004762Y-85233334D01*
X60052381Y-85090477D01*
X60052381Y-84995239D01*
X60004762Y-84852381D01*
X59909524Y-84757143D01*
X59814286Y-84709524D01*
X59623810Y-84661905D01*
X59480952Y-84661905D01*
X59290476Y-84709524D01*
X59195238Y-84757143D01*
X59100000Y-84852381D01*
X59052381Y-84995239D01*
X59052381Y-85090477D01*
X59100000Y-85233334D01*
X59147619Y-85280953D01*
X60052381Y-86233334D02*
X60052381Y-85661905D01*
X60052381Y-85947619D02*
X59052381Y-85947619D01*
X59195238Y-85852381D01*
X59290476Y-85757143D01*
X59338095Y-85661905D01*
X59052381Y-86852381D02*
X59052381Y-86947620D01*
X59100000Y-87042858D01*
X59147619Y-87090477D01*
X59242857Y-87138096D01*
X59433333Y-87185715D01*
X59671429Y-87185715D01*
X59861905Y-87138096D01*
X59957143Y-87090477D01*
X60004762Y-87042858D01*
X60052381Y-86947620D01*
X60052381Y-86852381D01*
X60004762Y-86757143D01*
X59957143Y-86709524D01*
X59861905Y-86661905D01*
X59671429Y-86614286D01*
X59433333Y-86614286D01*
X59242857Y-86661905D01*
X59147619Y-86709524D01*
X59100000Y-86757143D01*
X59052381Y-86852381D01*
X59147619Y-87566667D02*
X59100000Y-87614286D01*
X59052381Y-87709524D01*
X59052381Y-87947620D01*
X59100000Y-88042858D01*
X59147619Y-88090477D01*
X59242857Y-88138096D01*
X59338095Y-88138096D01*
X59480952Y-88090477D01*
X60052381Y-87519048D01*
X60052381Y-88138096D01*
X71497143Y-85530953D02*
X71544762Y-85483334D01*
X71592381Y-85340477D01*
X71592381Y-85245239D01*
X71544762Y-85102381D01*
X71449524Y-85007143D01*
X71354286Y-84959524D01*
X71163810Y-84911905D01*
X71020952Y-84911905D01*
X70830476Y-84959524D01*
X70735238Y-85007143D01*
X70640000Y-85102381D01*
X70592381Y-85245239D01*
X70592381Y-85340477D01*
X70640000Y-85483334D01*
X70687619Y-85530953D01*
X71592381Y-86483334D02*
X71592381Y-85911905D01*
X71592381Y-86197619D02*
X70592381Y-86197619D01*
X70735238Y-86102381D01*
X70830476Y-86007143D01*
X70878095Y-85911905D01*
X70592381Y-87102381D02*
X70592381Y-87197620D01*
X70640000Y-87292858D01*
X70687619Y-87340477D01*
X70782857Y-87388096D01*
X70973333Y-87435715D01*
X71211429Y-87435715D01*
X71401905Y-87388096D01*
X71497143Y-87340477D01*
X71544762Y-87292858D01*
X71592381Y-87197620D01*
X71592381Y-87102381D01*
X71544762Y-87007143D01*
X71497143Y-86959524D01*
X71401905Y-86911905D01*
X71211429Y-86864286D01*
X70973333Y-86864286D01*
X70782857Y-86911905D01*
X70687619Y-86959524D01*
X70640000Y-87007143D01*
X70592381Y-87102381D01*
X70592381Y-87769048D02*
X70592381Y-88388096D01*
X70973333Y-88054762D01*
X70973333Y-88197620D01*
X71020952Y-88292858D01*
X71068571Y-88340477D01*
X71163810Y-88388096D01*
X71401905Y-88388096D01*
X71497143Y-88340477D01*
X71544762Y-88292858D01*
X71592381Y-88197620D01*
X71592381Y-87911905D01*
X71544762Y-87816667D01*
X71497143Y-87769048D01*
X107192857Y-71007143D02*
X107240476Y-71054762D01*
X107383333Y-71102381D01*
X107478571Y-71102381D01*
X107621429Y-71054762D01*
X107716667Y-70959524D01*
X107764286Y-70864286D01*
X107811905Y-70673810D01*
X107811905Y-70530952D01*
X107764286Y-70340476D01*
X107716667Y-70245238D01*
X107621429Y-70150000D01*
X107478571Y-70102381D01*
X107383333Y-70102381D01*
X107240476Y-70150000D01*
X107192857Y-70197619D01*
X106859524Y-70102381D02*
X106192857Y-70102381D01*
X106621429Y-71102381D01*
X105764286Y-71102381D02*
X105573810Y-71102381D01*
X105478571Y-71054762D01*
X105430952Y-71007143D01*
X105335714Y-70864286D01*
X105288095Y-70673810D01*
X105288095Y-70292857D01*
X105335714Y-70197619D01*
X105383333Y-70150000D01*
X105478571Y-70102381D01*
X105669048Y-70102381D01*
X105764286Y-70150000D01*
X105811905Y-70197619D01*
X105859524Y-70292857D01*
X105859524Y-70530952D01*
X105811905Y-70626190D01*
X105764286Y-70673810D01*
X105669048Y-70721429D01*
X105478571Y-70721429D01*
X105383333Y-70673810D01*
X105335714Y-70626190D01*
X105288095Y-70530952D01*
X125157143Y-55058334D02*
X125204762Y-55010715D01*
X125252381Y-54867858D01*
X125252381Y-54772620D01*
X125204762Y-54629762D01*
X125109524Y-54534524D01*
X125014286Y-54486905D01*
X124823810Y-54439286D01*
X124680952Y-54439286D01*
X124490476Y-54486905D01*
X124395238Y-54534524D01*
X124300000Y-54629762D01*
X124252381Y-54772620D01*
X124252381Y-54867858D01*
X124300000Y-55010715D01*
X124347619Y-55058334D01*
X124347619Y-55439286D02*
X124300000Y-55486905D01*
X124252381Y-55582143D01*
X124252381Y-55820239D01*
X124300000Y-55915477D01*
X124347619Y-55963096D01*
X124442857Y-56010715D01*
X124538095Y-56010715D01*
X124680952Y-55963096D01*
X125252381Y-55391667D01*
X125252381Y-56010715D01*
X101467857Y-51132143D02*
X101515476Y-51179762D01*
X101658333Y-51227381D01*
X101753571Y-51227381D01*
X101896429Y-51179762D01*
X101991667Y-51084524D01*
X102039286Y-50989286D01*
X102086905Y-50798810D01*
X102086905Y-50655952D01*
X102039286Y-50465476D01*
X101991667Y-50370238D01*
X101896429Y-50275000D01*
X101753571Y-50227381D01*
X101658333Y-50227381D01*
X101515476Y-50275000D01*
X101467857Y-50322619D01*
X100515476Y-51227381D02*
X101086905Y-51227381D01*
X100801191Y-51227381D02*
X100801191Y-50227381D01*
X100896429Y-50370238D01*
X100991667Y-50465476D01*
X101086905Y-50513095D01*
X100182143Y-50227381D02*
X99515476Y-50227381D01*
X99944048Y-51227381D01*
X84916666Y-65217143D02*
X84964285Y-65264762D01*
X85107142Y-65312381D01*
X85202380Y-65312381D01*
X85345238Y-65264762D01*
X85440476Y-65169524D01*
X85488095Y-65074286D01*
X85535714Y-64883810D01*
X85535714Y-64740952D01*
X85488095Y-64550476D01*
X85440476Y-64455238D01*
X85345238Y-64360000D01*
X85202380Y-64312381D01*
X85107142Y-64312381D01*
X84964285Y-64360000D01*
X84916666Y-64407619D01*
X84059523Y-64645714D02*
X84059523Y-65312381D01*
X84297619Y-64264762D02*
X84535714Y-64979048D01*
X83916666Y-64979048D01*
X103814666Y-31863143D02*
X103862285Y-31910762D01*
X104005142Y-31958381D01*
X104100380Y-31958381D01*
X104243238Y-31910762D01*
X104338476Y-31815524D01*
X104386095Y-31720286D01*
X104433714Y-31529810D01*
X104433714Y-31386952D01*
X104386095Y-31196476D01*
X104338476Y-31101238D01*
X104243238Y-31006000D01*
X104100380Y-30958381D01*
X104005142Y-30958381D01*
X103862285Y-31006000D01*
X103814666Y-31053619D01*
X102862285Y-31958381D02*
X103433714Y-31958381D01*
X103148000Y-31958381D02*
X103148000Y-30958381D01*
X103243238Y-31101238D01*
X103338476Y-31196476D01*
X103433714Y-31244095D01*
M02*
